<svg width="1606" height="287" viewBox="0 0 1606 287" fill="none" xmlns="http://www.w3.org/2000/svg">
<path d="M482.715 91.8675L513.199 56.1067H623.413" stroke="#F5A020" stroke-width="4"/>
<path d="M1179.66 115.179L1204.86 149.767L1191.97 174.975" stroke="#F5A020" stroke-width="4"/>
<path d="M437.574 168.079L414.124 139.353L432.884 118.249" stroke="#F5A020" stroke-width="4"/>
<path d="M1157 222.6L1116.55 253.67H1024.51" stroke="#F5A020" stroke-width="4"/>
<path d="M735.971 250.739H531.373L492.681 225.531" stroke="#F5A020" stroke-width="4"/>
<path d="M853.22 260.705H955.226" stroke="#F5A020" stroke-width="4"/>
<path d="M1129.31 94.3152L1168 151.181L1141.62 199.839" stroke="#D9D9D9"/>
<path d="M472.749 92.4539L432.884 138.181L491.508 201.495" stroke="#D9D9D9"/>
<path d="M736.558 250.739H863.186" stroke="#D9D9D9"/>
<path d="M647.449 56.1067H940.57" stroke="#D9D9D9"/>
<path d="M722.488 49.0718H876.083" stroke="#D9D9D9"/>
<path d="M853.806 1H445.195L373.674 97.73H3" stroke="#D9D9D9"/>
<path d="M869.029 21H1285.26L1358.06 105H1605.5" stroke="#D9D9D9"/>
<path d="M1167.45 286.5L1231.35 217.91H1602" stroke="#D9D9D9"/>
<path d="M687.899 286.5H407.089L350.81 212.634H0.5" stroke="#D9D9D9"/>
<path d="M254.08 187.425L199.56 138.767H2" stroke="#D9D9D9"/>
<path d="M1126.48 84.2463L1106.55 56.1067H919.536" stroke="#F5A020" stroke-width="4"/>
</svg>
