<svg width="1440" height="287" viewBox="0 0 1440 287" fill="none" xmlns="http://www.w3.org/2000/svg">
<path d="M391.686 91.8675L422.17 56.1067H532.384" stroke="#F5A020" stroke-width="4"/>
<path d="M1088.63 115.179L1113.83 149.767L1100.94 174.975" stroke="#F5A020" stroke-width="4"/>
<path d="M346.545 168.079L323.095 139.353L341.855 118.249" stroke="#F5A020" stroke-width="4"/>
<path d="M1065.97 222.6L1025.52 253.67H933.478" stroke="#F5A020" stroke-width="4"/>
<path d="M644.943 250.739H440.344L401.652 225.531" stroke="#F5A020" stroke-width="4"/>
<path d="M762.191 260.705H864.197" stroke="#F5A020" stroke-width="4"/>
<path d="M1038.28 94.3152L1076.97 151.181L1050.59 199.839" stroke="#D9D9D9"/>
<path d="M381.72 92.4539L341.855 138.181L400.479 201.495" stroke="#D9D9D9"/>
<path d="M645.529 250.739H772.157" stroke="#D9D9D9"/>
<path d="M556.42 56.1067H849.541" stroke="#D9D9D9"/>
<path d="M631.459 49.0718H785.054" stroke="#D9D9D9"/>
<path d="M762.777 1H354.166L282.645 97.73H-21.0287" stroke="#D9D9D9"/>
<path d="M778.02 20.9321H1217.12L1293.91 105.351H1561.83" stroke="#D9D9D9"/>
<path d="M1076.42 286.5L1140.32 217.91H1520.79" stroke="#D9D9D9"/>
<path d="M596.871 286.5H316.061L259.781 212.634H-41.5472" stroke="#D9D9D9"/>
<path d="M163.051 187.425L108.531 138.767H-116" stroke="#D9D9D9"/>
<path d="M1035.45 84.2463L1015.52 56.1067H828.507" stroke="#F5A020" stroke-width="4"/>
</svg>
