<svg width="359" height="127" viewBox="0 0 359 127" fill="none" xmlns="http://www.w3.org/2000/svg">
<path d="M40.6445 34.9882L55.237 18.4675H99.663" stroke="#F5A020" stroke-width="2.5"/>
<path d="M321.405 32.4417L313.371 18.4675H237.988" stroke="#F5A020" stroke-width="2.5"/>
<path d="M346.465 58.5483L357.09 75.641L348.313 87.1901" stroke="#F5A020" stroke-width="2.5"/>
<path d="M15.6985 87.1902L2.30172 73.3313L12.9269 61.3203" stroke="#F5A020" stroke-width="2.5"/>
<path d="M326.906 102.072L310.6 117.502H273.5" stroke="#F5A020" stroke-width="2.5"/>
<path d="M148.728 118.818H66.2563L48.498 107.517" stroke="#F5A020" stroke-width="2.5"/>
<path d="M195.064 116.376H236.182" stroke="#F5A020" stroke-width="2.5"/>
<path d="M328.91 46.0752L347.389 75.6409L330.296 97.8152" stroke="#D9D9D9"/>
<path d="M32.3289 48.3853L12.6973 73.085L40.1823 100.125" stroke="#D9D9D9"/>
<path d="M155.211 109.364H206.254" stroke="#D9D9D9"/>
<path d="M95.0426 4.28662H44L25 23.2866" stroke="#D9D9D9"/>
<path d="M113.046 18.4673H231.201" stroke="#D9D9D9"/>
<path d="M143.294 12.2026H205.207" stroke="#D9D9D9"/>
<path d="M230.974 125.995H292.886" stroke="#D9D9D9"/>
<path d="M141.393 1H318.388L349.344 42.9225" stroke="#D9D9D9"/>
</svg>
