<svg width="939" height="938" viewBox="0 0 939 938" fill="none" xmlns="http://www.w3.org/2000/svg">
<path d="M582.449 122.497L577.16 125.971C576.479 126.418 575.661 126.603 574.859 126.491C574.057 126.38 573.328 125.98 572.807 125.366C566.886 118.47 562.286 110.773 559.007 102.276C558.148 100.051 558.897 98.7689 561.252 98.4306C565.858 97.7474 569.098 93.4143 569.372 88.7298C569.944 79.3348 565.273 74.0648 555.357 72.9197C554.956 72.8704 554.588 72.6709 554.33 72.3622C554.072 72.0536 553.944 71.6593 553.971 71.2606C554.583 61.6574 556.671 52.386 560.237 43.4465C560.497 42.7829 560.979 42.4836 561.681 42.5486C563.698 42.7178 565.657 43.0106 567.556 43.4269C576.496 45.3398 582.625 39.3671 581.532 30.3885C581.18 27.5388 579.033 25.2746 577.569 22.9323C576.919 21.8783 577.036 20.9219 577.921 20.0631C584.83 13.3487 592.866 8.45601 602.026 5.38508C602.69 5.16387 603.263 5.307 603.744 5.81449C606.926 9.15218 607.843 12.8802 612.078 14.5393C624.18 19.2628 628.24 11.553 630.934 1.42279C631.142 0.655055 631.643 0.297207 632.437 0.349256C642.222 0.882767 651.61 3.09487 660.602 6.98559C661.305 7.29789 661.578 7.83142 661.422 8.58614C660.641 12.2752 658.845 15.9251 659.86 19.5166C663.003 30.7398 672.957 29.0417 680.648 23.6546C681.003 23.4093 681.436 23.3036 681.865 23.3576C682.293 23.4116 682.687 23.6216 682.97 23.9473C689.411 31.3514 694.597 39.5623 698.527 48.5799C698.629 48.8158 698.679 49.071 698.674 49.3276C698.668 49.5843 698.608 49.8364 698.497 50.0665C698.385 50.2967 698.226 50.4993 698.029 50.6605C697.832 50.8217 697.602 50.9376 697.355 51.0002C681.877 55.021 685.683 77.2138 700.927 76.9015C701.26 76.8936 701.591 76.9572 701.897 77.0882C702.203 77.2191 702.477 77.4143 702.701 77.6605C702.925 77.9066 703.093 78.1981 703.195 78.515C703.296 78.8319 703.328 79.167 703.289 79.4975C702.17 89.0226 699.808 98.1963 696.204 107.019C695.918 107.734 695.397 108.001 694.642 107.819C686.21 105.789 676.861 105.633 675.475 116.485C674.89 121.092 677.486 124.547 680.296 128.001C680.778 128.587 680.739 129.14 680.179 129.66C672.801 136.622 664.317 141.795 654.727 145.178C654.405 145.293 654.052 145.277 653.744 145.134C653.437 144.991 653.2 144.733 653.087 144.417C651.461 139.927 648.487 136.772 644.167 134.95C643.425 134.625 642.957 134.859 642.762 135.653L573.217 407.86C573.183 407.999 573.206 408.147 573.283 408.271C573.36 408.395 573.483 408.486 573.627 408.524L677.115 435.42C677.83 435.603 678.097 436.052 677.915 436.767L663.237 493.488C663.199 493.617 663.115 493.725 663.002 493.791C662.888 493.857 662.755 493.874 662.632 493.84L500.92 451.992C500.152 451.797 499.866 451.315 500.061 450.547L583.757 123.414C583.797 123.247 583.786 123.071 583.725 122.91C583.664 122.749 583.556 122.61 583.415 122.511C583.274 122.412 583.106 122.358 582.934 122.355C582.762 122.353 582.593 122.402 582.449 122.497ZM663.705 75.1838C663.705 65.8917 660.014 56.9802 653.443 50.4096C646.873 43.8391 637.961 40.1478 628.669 40.1478C619.377 40.1478 610.466 43.8391 603.895 50.4096C597.325 56.9802 593.633 65.8917 593.633 75.1838C593.633 84.476 597.325 93.3875 603.895 99.958C610.466 106.529 619.377 110.22 628.669 110.22C637.961 110.22 646.873 106.529 653.443 99.958C660.014 93.3875 663.705 84.476 663.705 75.1838Z" fill="#261900"/>
<path d="M404.891 204.696L376.257 308.028C376.202 308.217 376.075 308.377 375.903 308.472C375.731 308.567 375.528 308.59 375.34 308.536L231.663 269.225C231.567 269.2 231.478 269.156 231.4 269.097C231.321 269.037 231.256 268.962 231.207 268.877C231.158 268.791 231.126 268.697 231.114 268.599C231.102 268.502 231.109 268.402 231.136 268.308L245.54 215.588C245.565 215.492 245.609 215.403 245.669 215.325C245.728 215.246 245.803 215.181 245.889 215.132C245.974 215.083 246.068 215.051 246.166 215.039C246.264 215.027 246.363 215.034 246.458 215.061L327.773 237.292C327.867 237.319 327.967 237.326 328.064 237.314C328.162 237.302 328.256 237.27 328.342 237.221C328.427 237.172 328.502 237.107 328.562 237.028C328.621 236.95 328.665 236.861 328.69 236.765L357.265 133.355C357.32 133.171 357.444 133.015 357.611 132.92C357.779 132.825 357.977 132.8 358.163 132.848L517.299 175.477C517.488 175.531 517.647 175.658 517.742 175.83C517.838 176.002 517.861 176.205 517.806 176.394L504.026 229.055C504.001 229.151 503.958 229.24 503.898 229.318C503.838 229.397 503.763 229.462 503.678 229.511C503.592 229.56 503.498 229.592 503.4 229.604C503.303 229.616 503.204 229.609 503.109 229.582L405.789 204.169C405.6 204.122 405.4 204.15 405.232 204.249C405.064 204.347 404.941 204.508 404.891 204.696Z" fill="#261900"/>
<path d="M701.129 328.701L804.305 356.749C804.537 356.813 804.734 356.965 804.855 357.173C804.975 357.382 805.009 357.629 804.949 357.861L763.082 516.743C763.017 516.975 762.865 517.173 762.657 517.293C762.449 517.413 762.202 517.447 761.969 517.388L709.561 503.959C709.443 503.929 709.331 503.876 709.233 503.803C709.135 503.73 709.053 503.638 708.991 503.532C708.93 503.427 708.889 503.31 708.873 503.189C708.857 503.068 708.866 502.945 708.898 502.827L733.843 405.741C733.902 405.508 733.868 405.261 733.748 405.053C733.628 404.845 733.43 404.692 733.198 404.628L630.003 376.541C629.772 376.477 629.574 376.324 629.454 376.116C629.333 375.908 629.299 375.661 629.359 375.428L668.006 231.927C668.07 231.695 668.223 231.498 668.431 231.377C668.639 231.257 668.886 231.223 669.119 231.283L721.663 245.375C721.895 245.439 722.092 245.592 722.213 245.8C722.333 246.008 722.367 246.255 722.307 246.488L700.485 327.588C700.425 327.821 700.459 328.068 700.58 328.276C700.7 328.484 700.898 328.637 701.129 328.701Z" fill="#261900"/>
<path d="M55.9044 247.388C65.7613 251.682 76.1257 247.251 77.0821 235.774C77.1109 235.419 77.2114 235.074 77.3774 234.759C77.5433 234.445 77.7713 234.168 78.0472 233.945C78.3232 233.722 78.6413 233.558 78.9822 233.463C79.323 233.368 79.6794 233.344 80.0294 233.393C89.1121 234.603 97.889 236.919 106.36 240.342C106.912 240.568 107.354 241 107.591 241.547C107.828 242.094 107.841 242.712 107.629 243.27C104.155 252.424 108.351 262.495 119.36 261.422C120.153 261.344 120.889 261.097 121.565 260.68L127.967 256.62C128.268 256.43 128.626 256.351 128.979 256.397C129.332 256.444 129.658 256.612 129.9 256.874C136.549 264.174 141.526 272.463 144.831 281.741C145.066 282.418 144.896 282.964 144.324 283.38C140.518 286.113 136.009 287.46 134.857 292.945C134.714 293.621 134.981 294.051 135.658 294.233L406.674 364.637C406.997 364.719 407.34 364.668 407.628 364.497C407.917 364.325 408.128 364.046 408.216 363.719L435.386 260.875C435.42 260.748 435.479 260.629 435.559 260.524C435.64 260.42 435.74 260.333 435.854 260.267C435.969 260.202 436.095 260.16 436.226 260.144C436.357 260.127 436.489 260.137 436.616 260.173L492.986 275.065C493.208 275.124 493.398 275.269 493.514 275.47C493.631 275.671 493.666 275.911 493.611 276.139L451.001 437.91C450.965 438.044 450.876 438.159 450.756 438.228C450.635 438.298 450.492 438.316 450.357 438.281L122.775 353.101C122.622 353.064 122.461 353.074 122.312 353.129C122.164 353.183 122.036 353.281 121.945 353.408C121.854 353.535 121.804 353.685 121.803 353.84C121.801 353.994 121.848 354.145 121.936 354.272L125.352 359.464C125.837 360.206 126.033 361.1 125.904 361.975C125.774 362.849 125.328 363.644 124.649 364.207C117.674 370.024 109.945 374.552 101.461 377.792C101.122 377.924 100.758 377.981 100.395 377.959C100.031 377.936 99.6762 377.836 99.3541 377.664C99.032 377.491 98.7501 377.252 98.5276 376.961C98.3052 376.67 98.1473 376.334 98.0647 375.977C95.0198 363.056 78.4289 365.047 73.5102 375.704C72.8075 377.207 72.9441 380.017 71.8121 381.813C71.4217 382.425 70.8686 382.704 70.153 382.652C60.7189 381.885 51.6167 379.738 42.8464 376.211C42.5453 376.088 42.2937 375.87 42.1311 375.591C41.9685 375.311 41.9042 374.987 41.9485 374.669C42.5926 370.258 44.1541 365.398 42.3779 361.357C38.0643 351.52 28.871 354.097 21.9028 359.328C21.3043 359.783 20.7447 359.744 20.2242 359.21C13.1324 351.963 7.97948 343.524 4.7654 333.895C4.5572 333.257 4.75239 332.782 5.35097 332.47C13.6074 328.195 19.7167 317.928 12.2411 310.199C9.39133 307.271 5.09723 306.237 1.05686 305.105C0.737066 305.012 0.458342 304.814 0.266718 304.545C0.0750943 304.275 -0.0179613 303.949 0.0028694 303.621C0.614455 293.797 2.89163 284.382 6.83441 275.378C6.96686 275.085 7.20841 274.856 7.50747 274.74C7.80654 274.623 8.1394 274.628 8.43492 274.753C18.6627 279.184 30.7643 275.222 27.2705 261.91C26.6849 259.665 24.7135 257.987 23.8547 255.937C23.3082 254.675 23.5619 253.601 24.6159 252.717C31.9289 246.601 39.9641 241.643 48.7215 237.843C49.3721 237.557 49.8666 237.726 50.2049 238.351L54.3038 245.924C54.6682 246.588 55.2017 247.076 55.9044 247.388ZM109.815 307.935C109.815 298.643 106.124 289.731 99.5531 283.161C92.9826 276.59 84.071 272.899 74.7789 272.899C70.1779 272.899 65.622 273.805 61.3712 275.566C57.1204 277.327 53.2581 279.907 50.0047 283.161C46.7513 286.414 44.1706 290.276 42.4099 294.527C40.6491 298.778 39.7429 303.334 39.7429 307.935C39.7429 312.536 40.6491 317.092 42.4099 321.343C44.1706 325.593 46.7513 329.456 50.0047 332.709C53.2581 335.962 57.1204 338.543 61.3712 340.304C65.622 342.065 70.1779 342.971 74.7789 342.971C84.071 342.971 92.9826 339.28 99.5531 332.709C106.124 326.139 109.815 317.227 109.815 307.935Z" fill="#261900"/>
<path d="M132.655 579.004L175.791 420.57C175.823 420.451 175.878 420.339 175.953 420.241C176.028 420.143 176.122 420.061 176.229 419.999C176.336 419.937 176.454 419.897 176.577 419.882C176.699 419.866 176.824 419.874 176.943 419.907L229.233 433.824C229.47 433.888 229.673 434.042 229.797 434.254C229.921 434.466 229.957 434.718 229.897 434.956L204.211 531.788C204.178 531.907 204.17 532.031 204.185 532.154C204.201 532.276 204.241 532.395 204.303 532.502C204.364 532.609 204.447 532.703 204.545 532.778C204.643 532.853 204.755 532.908 204.874 532.939L307.64 561.847C307.878 561.915 308.079 562.074 308.199 562.29C308.32 562.505 308.35 562.76 308.284 562.998L268.466 706.168C268.398 706.405 268.239 706.606 268.023 706.727C267.807 706.847 267.553 706.878 267.314 706.812L215.004 692.251C214.767 692.183 214.566 692.023 214.445 691.808C214.325 691.592 214.294 691.337 214.36 691.099L236.787 610.253C236.853 610.015 236.823 609.76 236.702 609.544C236.582 609.329 236.381 609.17 236.143 609.101L133.299 580.155C133.062 580.087 132.861 579.928 132.74 579.712C132.619 579.496 132.589 579.242 132.655 579.004Z" fill="#261900"/>
<path d="M353.029 816.227L358.416 812.597C359.014 812.199 359.737 812.033 360.448 812.13C361.16 812.227 361.812 812.58 362.281 813.124C368.566 820.346 373.309 828.479 376.51 837.522C376.611 837.808 376.65 838.111 376.625 838.413C376.599 838.715 376.509 839.007 376.362 839.272C376.214 839.536 376.011 839.765 375.768 839.945C375.524 840.125 375.245 840.25 374.949 840.314C359.275 843.632 364.311 865.219 379.594 865.844C379.817 865.854 380.036 865.908 380.238 866.004C380.439 866.099 380.619 866.234 380.767 866.4C380.914 866.566 381.027 866.759 381.097 866.969C381.167 867.179 381.194 867.4 381.175 867.62C380.421 877.288 378.208 886.605 374.539 895.571C374.416 895.872 374.197 896.124 373.918 896.286C373.639 896.449 373.315 896.513 372.997 896.469C368.566 895.883 363.901 894.224 359.802 895.903C349.477 900.158 352.639 909.234 357.499 916.378C357.685 916.65 357.77 916.979 357.737 917.308C357.705 917.636 357.559 917.942 357.323 918.173C350.206 925.096 341.943 930.171 332.535 933.398C331.858 933.632 331.312 933.457 330.895 932.871C328.885 930.119 327.362 927.386 324.805 925.454C315.436 918.408 305.17 924.985 303.998 935.662C303.924 936.337 303.59 936.956 303.068 937.387C302.547 937.817 301.879 938.025 301.207 937.965C291.474 937.185 282.137 934.842 273.198 930.939C272.495 930.626 272.333 930.138 272.71 929.475C280.283 916.026 266.249 902.929 255.319 913.528C255.018 913.821 254.659 914.048 254.265 914.194C253.871 914.34 253.451 914.402 253.03 914.376C252.61 914.35 252.199 914.237 251.823 914.044C251.448 913.851 251.116 913.582 250.849 913.255C244.98 905.955 240.107 898.043 236.23 889.52C236.141 889.329 236.092 889.122 236.087 888.911C236.081 888.7 236.119 888.49 236.197 888.293C236.276 888.096 236.393 887.916 236.543 887.765C236.693 887.613 236.872 887.493 237.069 887.412C247.167 883.248 249.958 876.573 245.442 867.386C242.768 861.921 238.338 861.062 232.775 860.301C232.461 860.256 232.176 860.092 231.982 859.844C231.789 859.596 231.702 859.283 231.74 858.973C232.833 849.24 235.332 839.891 239.235 830.925C239.364 830.637 239.584 830.4 239.862 830.248C240.14 830.097 240.462 830.04 240.777 830.086C250.634 831.491 260.608 832.506 260.159 818.472C260.147 817.796 259.944 817.14 259.574 816.579L255.202 809.903C254.772 809.253 254.844 808.667 255.416 808.147C262.807 801.354 271.22 796.299 280.654 792.981C280.934 792.885 281.238 792.882 281.52 792.974C281.801 793.065 282.045 793.246 282.216 793.488C285.007 797.587 285.651 802.369 291.975 802.935C292.495 802.987 292.821 802.76 292.951 802.252L364.584 531.587C364.78 530.871 364.519 530.416 363.804 530.22L261.253 502.641C260.381 502.406 260.062 501.847 260.296 500.962L275.267 445.236C275.303 445.101 275.366 444.974 275.451 444.864C275.537 444.753 275.644 444.66 275.765 444.591C275.887 444.522 276.021 444.478 276.16 444.461C276.299 444.445 276.44 444.456 276.575 444.494L437.955 487.67C438.101 487.706 438.225 487.8 438.302 487.931C438.379 488.063 438.402 488.222 438.365 488.372L351.839 815.369C351.795 815.523 351.799 815.687 351.852 815.839C351.905 815.99 352.003 816.122 352.133 816.216C352.263 816.309 352.419 816.361 352.579 816.363C352.74 816.365 352.897 816.318 353.029 816.227ZM341.396 863.248C341.396 853.956 337.705 845.044 331.134 838.474C324.564 831.903 315.652 828.212 306.36 828.212C297.068 828.212 288.156 831.903 281.586 838.474C275.015 845.044 271.324 853.956 271.324 863.248C271.324 872.54 275.015 881.452 281.586 888.022C288.156 894.593 297.068 898.284 306.36 898.284C315.652 898.284 324.564 894.593 331.134 888.022C337.705 881.452 341.396 872.54 341.396 863.248Z" fill="#261900"/>
<path d="M802.464 643.881L532.072 573.984C531.828 573.923 531.571 573.959 531.355 574.083C531.14 574.207 530.984 574.41 530.92 574.648L503.75 677.882C503.687 678.115 503.533 678.313 503.321 678.434C503.109 678.554 502.857 678.588 502.618 678.526L446.502 663.77C445.708 663.562 445.416 663.061 445.624 662.267L487.784 501.512C487.825 501.355 487.896 501.208 487.994 501.079C488.092 500.951 488.214 500.842 488.353 500.761C488.493 500.679 488.647 500.626 488.807 500.604C488.968 500.582 489.131 500.592 489.287 500.633L815.893 585.13C816.039 585.169 816.193 585.168 816.339 585.127C816.485 585.086 816.617 585.006 816.721 584.896C816.825 584.786 816.897 584.649 816.93 584.502C816.963 584.354 816.955 584.2 816.908 584.056C815.639 580.016 809.686 577.79 815.307 573.321C822.022 567.973 829.647 563.652 838.183 560.36C838.458 560.255 838.753 560.212 839.046 560.234C839.34 560.257 839.624 560.344 839.88 560.489C840.136 560.635 840.356 560.836 840.525 561.076C840.694 561.317 840.808 561.593 840.857 561.883C841.755 567.133 845.776 570.783 851.202 571.115C859.777 571.662 865.034 566.99 866.973 557.101C867.053 556.692 867.278 556.325 867.604 556.071C867.931 555.816 868.338 555.689 868.75 555.715C878.327 556.287 887.539 558.428 896.388 562.137C897.039 562.41 897.305 562.898 897.188 563.6C895.705 572.15 894.299 582.377 906.089 583.607C910.578 584.076 913.623 581.538 917.097 578.923C917.381 578.704 917.735 578.598 918.089 578.627C918.444 578.656 918.773 578.817 919.01 579.079C925.777 586.275 930.877 594.505 934.313 603.77C934.447 604.13 934.446 604.526 934.31 604.886C934.173 605.245 933.911 605.542 933.571 605.722C919.986 612.709 919.771 630.706 936.967 632.462C937.547 632.522 938.081 632.801 938.459 633.24C938.837 633.68 939.03 634.247 938.997 634.824C938.464 644.401 936.291 653.594 932.478 662.404C932.346 662.71 932.114 662.962 931.819 663.118C931.524 663.275 931.185 663.325 930.858 663.263C927.071 662.541 923.695 660.589 919.986 661.623C908.353 664.883 910.539 674.993 915.653 683.035C916.056 683.673 915.972 684.245 915.399 684.753C908.021 691.246 899.797 696.405 890.727 700.231C890.492 700.331 890.238 700.38 889.983 700.373C889.727 700.366 889.475 700.304 889.244 700.192C889.013 700.079 888.808 699.918 888.643 699.719C888.478 699.521 888.357 699.289 888.288 699.04C884.13 683.953 863.46 686.802 862.211 702.515C862.187 702.851 862.095 703.178 861.94 703.478C861.785 703.777 861.571 704.042 861.311 704.257C861.05 704.473 860.748 704.633 860.423 704.729C860.098 704.826 859.757 704.856 859.42 704.818C850.051 703.764 841.04 701.402 832.386 697.733C831.71 697.446 831.417 696.945 831.508 696.23C832.015 692.365 833.694 688.364 832.367 684.753C830.389 679.379 826.544 676.763 820.831 676.906C816.966 676.984 814.214 679.951 810.857 681.845C810.622 681.973 810.352 682.02 810.09 681.977C809.828 681.935 809.589 681.806 809.413 681.61C802.711 674.193 797.643 665.774 794.208 656.353C794.102 656.046 794.111 655.711 794.233 655.412C794.356 655.114 794.583 654.872 794.871 654.733C798.398 653.041 801.358 650.738 803.752 647.824C804.015 647.504 804.192 647.123 804.269 646.717C804.345 646.311 804.318 645.892 804.189 645.499C804.061 645.106 803.836 644.752 803.534 644.469C803.233 644.186 802.865 643.984 802.464 643.881ZM899.335 630.315C899.335 625.714 898.429 621.158 896.668 616.908C894.908 612.657 892.327 608.794 889.073 605.541C885.82 602.288 881.958 599.707 877.707 597.946C873.456 596.185 868.9 595.279 864.299 595.279C855.007 595.279 846.096 598.971 839.525 605.541C832.955 612.112 829.263 621.023 829.263 630.315C829.263 639.607 832.955 648.519 839.525 655.089C846.096 661.66 855.007 665.351 864.299 665.351C868.9 665.351 873.456 664.445 877.707 662.684C881.958 660.924 885.82 658.343 889.073 655.089C892.327 651.836 894.908 647.974 896.668 643.723C898.429 639.472 899.335 634.916 899.335 630.315Z" fill="#261900"/>
<path d="M610.621 701.674L582.006 805.319C581.986 805.396 581.951 805.468 581.902 805.531C581.854 805.594 581.794 805.647 581.725 805.687C581.656 805.727 581.58 805.753 581.501 805.763C581.422 805.774 581.342 805.769 581.265 805.748L421.914 763.295C421.837 763.274 421.765 763.239 421.702 763.191C421.639 763.142 421.585 763.082 421.546 763.013C421.506 762.944 421.48 762.868 421.469 762.789C421.459 762.71 421.464 762.63 421.485 762.553L435.245 709.58C435.266 709.503 435.301 709.43 435.35 709.367C435.398 709.304 435.458 709.251 435.527 709.211C435.596 709.171 435.672 709.145 435.751 709.135C435.83 709.124 435.91 709.129 435.987 709.15L533.6 734.505C533.753 734.547 533.916 734.528 534.055 734.451C534.193 734.375 534.296 734.247 534.342 734.095L562.956 630.47C562.977 630.393 563.012 630.321 563.06 630.258C563.109 630.195 563.169 630.142 563.238 630.102C563.307 630.062 563.383 630.036 563.462 630.025C563.541 630.015 563.621 630.02 563.698 630.041L707.668 669.234C707.745 669.255 707.817 669.29 707.88 669.338C707.943 669.387 707.996 669.447 708.036 669.516C708.076 669.585 708.102 669.661 708.112 669.74C708.123 669.819 708.118 669.899 708.097 669.976L693.673 723.028C693.652 723.105 693.617 723.177 693.569 723.24C693.52 723.303 693.46 723.357 693.391 723.397C693.322 723.436 693.246 723.462 693.167 723.473C693.088 723.483 693.008 723.478 692.931 723.457L611.362 701.245C611.286 701.224 611.205 701.219 611.126 701.23C611.047 701.24 610.971 701.266 610.902 701.306C610.834 701.346 610.773 701.399 610.725 701.462C610.677 701.525 610.641 701.597 610.621 701.674Z" fill="#261900"/>
</svg>
