<svg width="703" height="702" viewBox="0 0 703 702" fill="none" xmlns="http://www.w3.org/2000/svg">
<path d="M436.062 91.4521L432.102 94.0532C431.592 94.3875 430.98 94.5259 430.379 94.4425C429.779 94.3591 429.233 94.0596 428.843 93.6003C424.41 88.437 420.967 82.6746 418.512 76.3131C417.869 74.6472 418.429 73.6876 420.192 73.4343C423.641 72.9228 426.067 69.6787 426.271 66.1716C426.7 59.1379 423.202 55.1923 415.779 54.3351C415.478 54.2981 415.203 54.1488 415.01 53.9177C414.817 53.6866 414.721 53.3915 414.741 53.093C415.199 45.9034 416.763 38.9622 419.432 32.2694C419.627 31.7726 419.988 31.5485 420.514 31.5972C422.024 31.7238 423.49 31.943 424.912 32.2548C431.605 33.6868 436.193 29.2153 435.375 22.4933C435.112 20.3598 433.505 18.6647 432.409 16.9111C431.921 16.122 432.009 15.4059 432.672 14.763C437.845 9.73609 443.86 6.07311 450.719 3.774C451.216 3.60838 451.644 3.71555 452.005 4.09548C454.387 6.59431 455.073 9.38538 458.244 10.6275C467.304 14.1638 470.344 8.39171 472.361 0.807554C472.516 0.232775 472.892 -0.0351348 473.486 0.00383326C480.812 0.403256 487.841 2.05939 494.572 4.97225C495.098 5.20606 495.303 5.60549 495.186 6.17053C494.602 8.93239 493.257 11.665 494.017 14.3538C496.37 22.7563 503.822 21.485 509.58 17.4518C509.846 17.2682 510.171 17.189 510.491 17.2295C510.812 17.2699 511.107 17.4271 511.319 17.671C516.141 23.2142 520.023 29.3614 522.965 36.1126C523.042 36.2893 523.079 36.4803 523.075 36.6724C523.072 36.8646 523.026 37.0533 522.943 37.2256C522.86 37.3979 522.74 37.5496 522.593 37.6703C522.445 37.791 522.273 37.8778 522.089 37.9246C510.501 40.9349 513.35 57.5499 524.763 57.3161C525.012 57.3102 525.259 57.3579 525.488 57.4559C525.717 57.5539 525.923 57.7001 526.09 57.8844C526.258 58.0687 526.384 58.2868 526.46 58.5241C526.536 58.7614 526.56 59.0122 526.531 59.2597C525.693 66.3908 523.925 73.2589 521.227 79.864C521.012 80.3998 520.623 80.5995 520.058 80.4632C513.745 78.9434 506.745 78.8265 505.708 86.9513C505.269 90.4 507.213 92.9865 509.317 95.573C509.677 96.0114 509.648 96.4254 509.229 96.8151C503.706 102.027 497.354 105.9 490.174 108.432C489.933 108.518 489.668 108.507 489.438 108.4C489.208 108.293 489.031 108.1 488.946 107.863C487.729 104.502 485.503 102.139 482.268 100.775C481.713 100.532 481.362 100.707 481.216 101.301L429.15 305.095C429.124 305.199 429.142 305.309 429.2 305.402C429.257 305.495 429.349 305.563 429.457 305.591L506.935 325.728C507.471 325.865 507.671 326.201 507.534 326.736L496.545 369.202C496.517 369.298 496.454 369.379 496.369 369.428C496.284 369.478 496.185 369.491 496.092 369.465L375.023 338.135C374.448 337.988 374.234 337.628 374.38 337.053L437.041 92.139C437.071 92.0136 437.063 91.882 437.017 91.7614C436.971 91.6408 436.89 91.5367 436.785 91.4626C436.679 91.3886 436.554 91.348 436.425 91.3461C436.296 91.3442 436.17 91.3812 436.062 91.4521ZM496.896 56.0302C496.896 49.0734 494.132 42.4016 489.213 37.4825C484.294 32.5633 477.622 29.7998 470.665 29.7998C463.709 29.7998 457.037 32.5633 452.118 37.4825C447.199 42.4016 444.435 49.0734 444.435 56.0302C444.435 62.9869 447.199 69.6587 452.118 74.5778C457.037 79.497 463.709 82.2605 470.665 82.2605C477.622 82.2605 484.294 79.497 489.213 74.5778C494.132 69.6587 496.896 62.9869 496.896 56.0302Z" fill="#FFA800"/>
<path d="M436.062 91.4521L432.102 94.0532C431.592 94.3875 430.98 94.5259 430.379 94.4425C429.779 94.3591 429.233 94.0596 428.843 93.6003C424.41 88.437 420.967 82.6746 418.512 76.3131C417.869 74.6472 418.429 73.6876 420.192 73.4343C423.641 72.9228 426.067 69.6787 426.271 66.1716C426.7 59.1379 423.202 55.1923 415.779 54.3351C415.478 54.2981 415.203 54.1488 415.01 53.9177C414.817 53.6866 414.721 53.3915 414.741 53.093C415.199 45.9034 416.763 38.9622 419.432 32.2694C419.627 31.7726 419.988 31.5485 420.514 31.5972C422.024 31.7238 423.49 31.943 424.912 32.2548C431.605 33.6868 436.193 29.2153 435.375 22.4933C435.112 20.3598 433.505 18.6647 432.409 16.9111C431.921 16.122 432.009 15.4059 432.672 14.763C437.845 9.73609 443.86 6.07311 450.719 3.774C451.216 3.60838 451.644 3.71555 452.005 4.09548C454.387 6.59431 455.073 9.38538 458.244 10.6275C467.304 14.1638 470.344 8.39171 472.361 0.807554C472.516 0.232775 472.892 -0.0351348 473.486 0.00383326C480.812 0.403256 487.841 2.05939 494.572 4.97225C495.098 5.20606 495.303 5.60549 495.186 6.17053C494.602 8.93239 493.257 11.665 494.017 14.3538C496.37 22.7563 503.822 21.485 509.58 17.4518C509.846 17.2682 510.171 17.189 510.491 17.2295C510.812 17.2699 511.107 17.4271 511.319 17.671C516.141 23.2142 520.023 29.3614 522.965 36.1126C523.042 36.2893 523.079 36.4803 523.075 36.6724C523.072 36.8646 523.026 37.0533 522.943 37.2256C522.86 37.3979 522.74 37.5496 522.593 37.6703C522.445 37.791 522.273 37.8778 522.089 37.9246C510.501 40.9349 513.35 57.5499 524.763 57.3161C525.012 57.3102 525.259 57.3579 525.488 57.4559C525.717 57.5539 525.923 57.7001 526.09 57.8844C526.258 58.0687 526.384 58.2868 526.46 58.5241C526.536 58.7614 526.56 59.0122 526.531 59.2597C525.693 66.3908 523.925 73.2589 521.227 79.864C521.012 80.3998 520.623 80.5995 520.058 80.4632C513.745 78.9434 506.745 78.8265 505.708 86.9513C505.269 90.4 507.213 92.9865 509.317 95.573C509.677 96.0114 509.648 96.4254 509.229 96.8151C503.706 102.027 497.354 105.9 490.174 108.432C489.933 108.518 489.668 108.507 489.438 108.4C489.208 108.293 489.031 108.1 488.946 107.863C487.729 104.502 485.503 102.139 482.268 100.775C481.713 100.532 481.362 100.707 481.216 101.301L429.15 305.095C429.124 305.199 429.142 305.309 429.2 305.402C429.257 305.495 429.349 305.563 429.457 305.591L506.935 325.728C507.471 325.865 507.671 326.201 507.534 326.736L496.545 369.202C496.517 369.298 496.454 369.379 496.369 369.428C496.284 369.478 496.185 369.491 496.092 369.465L375.023 338.135C374.448 337.988 374.234 337.628 374.38 337.053L437.041 92.139C437.071 92.0136 437.063 91.882 437.017 91.7614C436.971 91.6408 436.89 91.5367 436.785 91.4626C436.679 91.3886 436.554 91.348 436.425 91.3461C436.296 91.3442 436.17 91.3812 436.062 91.4521ZM496.896 56.0302C496.896 49.0734 494.132 42.4016 489.213 37.4825C484.294 32.5633 477.622 29.7998 470.665 29.7998C463.709 29.7998 457.037 32.5633 452.118 37.4825C447.199 42.4016 444.435 49.0734 444.435 56.0302C444.435 62.9869 447.199 69.6587 452.118 74.5778C457.037 79.497 463.709 82.2605 470.665 82.2605C477.622 82.2605 484.294 79.497 489.213 74.5778C494.132 69.6587 496.896 62.9869 496.896 56.0302Z" fill="black" fill-opacity="0.85"/>
<path d="M303.129 152.992L281.692 230.353C281.651 230.495 281.556 230.614 281.427 230.686C281.298 230.757 281.146 230.774 281.005 230.733L173.438 201.303C173.367 201.284 173.3 201.252 173.242 201.207C173.183 201.162 173.134 201.106 173.097 201.042C173.061 200.978 173.037 200.908 173.028 200.834C173.019 200.761 173.024 200.687 173.044 200.616L183.828 161.146C183.847 161.075 183.88 161.008 183.924 160.949C183.969 160.891 184.025 160.842 184.089 160.805C184.153 160.768 184.224 160.745 184.297 160.735C184.37 160.726 184.444 160.732 184.515 160.752L245.393 177.396C245.464 177.416 245.538 177.421 245.611 177.412C245.685 177.403 245.755 177.379 245.819 177.343C245.883 177.306 245.939 177.257 245.984 177.198C246.029 177.14 246.061 177.073 246.08 177.001L267.473 99.5815C267.514 99.4434 267.607 99.3265 267.733 99.2556C267.858 99.1847 268.006 99.1653 268.146 99.2016L387.285 131.116C387.427 131.157 387.546 131.252 387.618 131.381C387.689 131.51 387.706 131.662 387.665 131.803L377.349 171.229C377.33 171.301 377.297 171.367 377.253 171.426C377.208 171.485 377.152 171.534 377.088 171.57C377.024 171.607 376.953 171.631 376.88 171.64C376.807 171.649 376.733 171.644 376.662 171.624L303.801 152.598C303.66 152.562 303.51 152.583 303.384 152.657C303.259 152.731 303.167 152.851 303.129 152.992Z" fill="#FFA800"/>
<path d="M303.129 152.992L281.692 230.353C281.651 230.495 281.556 230.614 281.427 230.686C281.298 230.757 281.146 230.774 281.005 230.733L173.438 201.303C173.367 201.284 173.3 201.252 173.242 201.207C173.183 201.162 173.134 201.106 173.097 201.042C173.061 200.978 173.037 200.908 173.028 200.834C173.019 200.761 173.024 200.687 173.044 200.616L183.828 161.146C183.847 161.075 183.88 161.008 183.924 160.949C183.969 160.891 184.025 160.842 184.089 160.805C184.153 160.768 184.224 160.745 184.297 160.735C184.37 160.726 184.444 160.732 184.515 160.752L245.393 177.396C245.464 177.416 245.538 177.421 245.611 177.412C245.685 177.403 245.755 177.379 245.819 177.343C245.883 177.306 245.939 177.257 245.984 177.198C246.029 177.14 246.061 177.073 246.08 177.001L267.473 99.5815C267.514 99.4434 267.607 99.3265 267.733 99.2556C267.858 99.1847 268.006 99.1653 268.146 99.2016L387.285 131.116C387.427 131.157 387.546 131.252 387.618 131.381C387.689 131.51 387.706 131.662 387.665 131.803L377.349 171.229C377.33 171.301 377.297 171.367 377.253 171.426C377.208 171.485 377.152 171.534 377.088 171.57C377.024 171.607 376.953 171.631 376.88 171.64C376.807 171.649 376.733 171.644 376.662 171.624L303.801 152.598C303.66 152.562 303.51 152.583 303.384 152.657C303.259 152.731 303.167 152.851 303.129 152.992Z" fill="black" fill-opacity="0.85"/>
<path d="M524.914 245.83L602.158 266.829C602.332 266.877 602.48 266.991 602.57 267.147C602.66 267.303 602.685 267.488 602.641 267.662L571.296 386.612C571.248 386.786 571.133 386.933 570.978 387.024C570.822 387.114 570.637 387.139 570.463 387.094L531.227 377.041C531.138 377.019 531.054 376.979 530.981 376.924C530.908 376.869 530.846 376.8 530.8 376.721C530.754 376.643 530.724 376.555 530.712 376.464C530.699 376.374 530.706 376.281 530.73 376.193L549.405 303.508C549.45 303.334 549.425 303.149 549.334 302.993C549.244 302.837 549.097 302.723 548.923 302.675L471.664 281.647C471.49 281.599 471.343 281.485 471.253 281.329C471.162 281.173 471.137 280.988 471.182 280.814L500.116 173.379C500.164 173.205 500.278 173.058 500.433 172.968C500.589 172.877 500.774 172.852 500.949 172.897L540.287 183.447C540.46 183.495 540.608 183.609 540.698 183.765C540.788 183.921 540.814 184.106 540.769 184.28L524.432 244.997C524.387 245.172 524.412 245.357 524.502 245.512C524.593 245.668 524.74 245.782 524.914 245.83Z" fill="#FFA800"/>
<path d="M524.914 245.83L602.158 266.829C602.332 266.877 602.48 266.991 602.57 267.147C602.66 267.303 602.685 267.488 602.641 267.662L571.296 386.612C571.248 386.786 571.133 386.933 570.978 387.024C570.822 387.114 570.637 387.139 570.463 387.094L531.227 377.041C531.138 377.019 531.054 376.979 530.981 376.924C530.908 376.869 530.846 376.8 530.8 376.721C530.754 376.643 530.724 376.555 530.712 376.464C530.699 376.374 530.706 376.281 530.73 376.193L549.405 303.508C549.45 303.334 549.425 303.149 549.334 302.993C549.244 302.837 549.097 302.723 548.923 302.675L471.664 281.647C471.49 281.599 471.343 281.485 471.253 281.329C471.162 281.173 471.137 280.988 471.182 280.814L500.116 173.379C500.164 173.205 500.278 173.058 500.433 172.968C500.589 172.877 500.774 172.852 500.949 172.897L540.287 183.447C540.46 183.495 540.608 183.609 540.698 183.765C540.788 183.921 540.814 184.106 540.769 184.28L524.432 244.997C524.387 245.172 524.412 245.357 524.502 245.512C524.593 245.668 524.74 245.782 524.914 245.83Z" fill="black" fill-opacity="0.85"/>
<path d="M41.8539 184.954C49.2334 188.169 56.9929 184.852 57.709 176.259C57.7306 175.994 57.8058 175.735 57.9301 175.5C58.0543 175.264 58.2249 175.056 58.4315 174.89C58.6381 174.723 58.8763 174.6 59.1315 174.529C59.3867 174.458 59.6535 174.44 59.9156 174.477C66.7155 175.383 73.2865 177.117 79.6285 179.679C80.0416 179.848 80.3723 180.172 80.5498 180.581C80.7272 180.991 80.7375 181.454 80.5784 181.871C77.9773 188.724 81.119 196.265 89.3608 195.461C89.9551 195.402 90.5055 195.217 91.0121 194.906L95.8052 191.866C96.0304 191.724 96.2986 191.665 96.5629 191.699C96.8272 191.734 97.071 191.86 97.2518 192.056C102.23 197.521 105.956 203.727 108.431 210.673C108.606 211.18 108.479 211.589 108.051 211.901C105.201 213.946 101.826 214.955 100.964 219.061C100.856 219.568 101.056 219.889 101.563 220.025L304.465 272.735C304.706 272.796 304.963 272.758 305.179 272.63C305.395 272.501 305.553 272.292 305.619 272.048L325.96 195.052C325.986 194.956 326.03 194.867 326.09 194.789C326.15 194.711 326.225 194.645 326.311 194.596C326.396 194.547 326.491 194.516 326.589 194.504C326.687 194.492 326.786 194.499 326.881 194.526L369.083 205.675C369.249 205.719 369.391 205.828 369.479 205.978C369.566 206.129 369.592 206.308 369.551 206.479L337.651 327.592C337.623 327.692 337.557 327.778 337.467 327.83C337.377 327.882 337.269 327.896 337.168 327.87L91.9181 264.098C91.8034 264.071 91.6824 264.078 91.5714 264.119C91.4604 264.16 91.3644 264.233 91.2963 264.328C91.2281 264.423 91.191 264.536 91.1898 264.651C91.1887 264.767 91.2235 264.88 91.2897 264.975L93.847 268.862C94.2102 269.418 94.3573 270.087 94.2603 270.742C94.1633 271.396 93.8289 271.991 93.3209 272.413C88.0992 276.768 82.3124 280.158 75.9606 282.584C75.7067 282.682 75.4345 282.725 75.1623 282.708C74.8902 282.692 74.6245 282.616 74.3833 282.487C74.1422 282.359 73.9312 282.179 73.7646 281.961C73.598 281.743 73.4798 281.492 73.418 281.225C71.1383 271.551 58.7173 273.041 55.0348 281.02C54.5087 282.145 54.611 284.25 53.7635 285.594C53.4712 286.052 53.0572 286.261 52.5213 286.222C45.4584 285.648 38.6439 284.04 32.0777 281.4C31.8524 281.308 31.664 281.144 31.5422 280.935C31.4205 280.726 31.3724 280.484 31.4055 280.246C31.8878 276.943 33.0568 273.304 31.727 270.28C28.4975 262.915 21.6148 264.844 16.398 268.76C15.9498 269.101 15.5309 269.072 15.1412 268.672C9.83184 263.246 5.97399 256.928 3.56771 249.719C3.41184 249.242 3.55797 248.886 4.0061 248.652C10.1874 245.452 14.7613 237.766 9.1645 231.979C7.031 229.787 3.81614 229.012 0.791242 228.165C0.551818 228.095 0.343146 227.947 0.199684 227.746C0.0562208 227.544 -0.0134471 227.3 0.00214823 227.054C0.460023 219.699 2.16488 212.651 5.11671 205.909C5.21587 205.69 5.39671 205.519 5.62061 205.431C5.84452 205.344 6.09372 205.348 6.31496 205.442C13.9722 208.759 23.0323 205.792 20.4165 195.826C19.9782 194.146 18.5022 192.889 17.8593 191.355C17.4501 190.41 17.6401 189.606 18.4292 188.944C23.9042 184.365 29.9199 180.653 36.4762 177.808C36.9634 177.594 37.3336 177.721 37.5869 178.188L40.6556 183.858C40.9284 184.355 41.3278 184.72 41.8539 184.954ZM82.215 230.284C82.215 223.327 79.4515 216.655 74.5323 211.736C69.6132 206.817 62.9414 204.053 55.9846 204.053C52.54 204.053 49.1291 204.732 45.9467 206.05C42.7643 207.368 39.8727 209.3 37.437 211.736C35.0013 214.172 33.0691 217.063 31.7509 220.246C30.4327 223.428 29.7543 226.839 29.7543 230.284C29.7543 233.728 30.4327 237.139 31.7509 240.322C33.0691 243.504 35.0013 246.396 37.437 248.831C39.8727 251.267 42.7643 253.199 45.9467 254.517C49.1291 255.836 52.54 256.514 55.9846 256.514C62.9414 256.514 69.6132 253.751 74.5323 248.831C79.4515 243.912 82.215 237.24 82.215 230.284Z" fill="#FFA800"/>
<path d="M41.8539 184.954C49.2334 188.169 56.9929 184.852 57.709 176.259C57.7306 175.994 57.8058 175.735 57.9301 175.5C58.0543 175.264 58.2249 175.056 58.4315 174.89C58.6381 174.723 58.8763 174.6 59.1315 174.529C59.3867 174.458 59.6535 174.44 59.9156 174.477C66.7155 175.383 73.2865 177.117 79.6285 179.679C80.0416 179.848 80.3723 180.172 80.5498 180.581C80.7272 180.991 80.7375 181.454 80.5784 181.871C77.9773 188.724 81.119 196.265 89.3608 195.461C89.9551 195.402 90.5055 195.217 91.0121 194.906L95.8052 191.866C96.0304 191.724 96.2986 191.665 96.5629 191.699C96.8272 191.734 97.071 191.86 97.2518 192.056C102.23 197.521 105.956 203.727 108.431 210.673C108.606 211.18 108.479 211.589 108.051 211.901C105.201 213.946 101.826 214.955 100.964 219.061C100.856 219.568 101.056 219.889 101.563 220.025L304.465 272.735C304.706 272.796 304.963 272.758 305.179 272.63C305.395 272.501 305.553 272.292 305.619 272.048L325.96 195.052C325.986 194.956 326.03 194.867 326.09 194.789C326.15 194.711 326.225 194.645 326.311 194.596C326.396 194.547 326.491 194.516 326.589 194.504C326.687 194.492 326.786 194.499 326.881 194.526L369.083 205.675C369.249 205.719 369.391 205.828 369.479 205.978C369.566 206.129 369.592 206.308 369.551 206.479L337.651 327.592C337.623 327.692 337.557 327.778 337.467 327.83C337.377 327.882 337.269 327.896 337.168 327.87L91.9181 264.098C91.8034 264.071 91.6824 264.078 91.5714 264.119C91.4604 264.16 91.3644 264.233 91.2963 264.328C91.2281 264.423 91.191 264.536 91.1898 264.651C91.1887 264.767 91.2235 264.88 91.2897 264.975L93.847 268.862C94.2102 269.418 94.3573 270.087 94.2603 270.742C94.1633 271.396 93.8289 271.991 93.3209 272.413C88.0992 276.768 82.3124 280.158 75.9606 282.584C75.7067 282.682 75.4345 282.725 75.1623 282.708C74.8902 282.692 74.6245 282.616 74.3833 282.487C74.1422 282.359 73.9312 282.179 73.7646 281.961C73.598 281.743 73.4798 281.492 73.418 281.225C71.1383 271.551 58.7173 273.041 55.0348 281.02C54.5087 282.145 54.611 284.25 53.7635 285.594C53.4712 286.052 53.0572 286.261 52.5213 286.222C45.4584 285.648 38.6439 284.04 32.0777 281.4C31.8524 281.308 31.664 281.144 31.5422 280.935C31.4205 280.726 31.3724 280.484 31.4055 280.246C31.8878 276.943 33.0568 273.304 31.727 270.28C28.4975 262.915 21.6148 264.844 16.398 268.76C15.9498 269.101 15.5309 269.072 15.1412 268.672C9.83184 263.246 5.97399 256.928 3.56771 249.719C3.41184 249.242 3.55797 248.886 4.0061 248.652C10.1874 245.452 14.7613 237.766 9.1645 231.979C7.031 229.787 3.81614 229.012 0.791242 228.165C0.551818 228.095 0.343146 227.947 0.199684 227.746C0.0562208 227.544 -0.0134471 227.3 0.00214823 227.054C0.460023 219.699 2.16488 212.651 5.11671 205.909C5.21587 205.69 5.39671 205.519 5.62061 205.431C5.84452 205.344 6.09372 205.348 6.31496 205.442C13.9722 208.759 23.0323 205.792 20.4165 195.826C19.9782 194.146 18.5022 192.889 17.8593 191.355C17.4501 190.41 17.6401 189.606 18.4292 188.944C23.9042 184.365 29.9199 180.653 36.4762 177.808C36.9634 177.594 37.3336 177.721 37.5869 178.188L40.6556 183.858C40.9284 184.355 41.3278 184.72 41.8539 184.954ZM82.215 230.284C82.215 223.327 79.4515 216.655 74.5323 211.736C69.6132 206.817 62.9414 204.053 55.9846 204.053C52.54 204.053 49.1291 204.732 45.9467 206.05C42.7643 207.368 39.8727 209.3 37.437 211.736C35.0013 214.172 33.0691 217.063 31.7509 220.246C30.4327 223.428 29.7543 226.839 29.7543 230.284C29.7543 233.728 30.4327 237.139 31.7509 240.322C33.0691 243.504 35.0013 246.396 37.437 248.831C39.8727 251.267 42.7643 253.199 45.9467 254.517C49.1291 255.836 52.54 256.514 55.9846 256.514C62.9414 256.514 69.6132 253.751 74.5323 248.831C79.4515 243.912 82.215 237.24 82.215 230.284Z" fill="black" fill-opacity="0.85"/>
<path d="M99.3147 433.224L131.609 314.61C131.633 314.521 131.674 314.437 131.731 314.364C131.787 314.29 131.857 314.229 131.937 314.183C132.017 314.136 132.106 314.107 132.198 314.095C132.289 314.083 132.382 314.089 132.472 314.114L171.62 324.533C171.797 324.581 171.949 324.696 172.042 324.855C172.134 325.013 172.161 325.202 172.117 325.38L152.886 397.875C152.862 397.965 152.855 398.058 152.867 398.15C152.879 398.241 152.909 398.33 152.955 398.41C153.001 398.49 153.063 398.56 153.136 398.617C153.21 398.673 153.294 398.714 153.383 398.738L230.32 420.38C230.498 420.431 230.649 420.55 230.739 420.711C230.829 420.873 230.852 421.063 230.803 421.242L200.992 528.428C200.941 528.606 200.822 528.757 200.66 528.847C200.499 528.937 200.308 528.96 200.13 528.91L160.967 518.009C160.789 517.958 160.639 517.839 160.548 517.677C160.458 517.516 160.435 517.325 160.485 517.147L177.275 456.62C177.325 456.442 177.302 456.251 177.212 456.089C177.121 455.928 176.971 455.809 176.793 455.758L99.7969 434.087C99.6191 434.035 99.4686 433.916 99.3783 433.755C99.288 433.593 99.2651 433.403 99.3147 433.224Z" fill="#FFA800"/>
<path d="M99.3147 433.224L131.609 314.61C131.633 314.521 131.674 314.437 131.731 314.364C131.787 314.29 131.857 314.229 131.937 314.183C132.017 314.136 132.106 314.107 132.198 314.095C132.289 314.083 132.382 314.089 132.472 314.114L171.62 324.533C171.797 324.581 171.949 324.696 172.042 324.855C172.134 325.013 172.161 325.202 172.117 325.38L152.886 397.875C152.862 397.965 152.855 398.058 152.867 398.15C152.879 398.241 152.909 398.33 152.955 398.41C153.001 398.49 153.063 398.56 153.136 398.617C153.21 398.673 153.294 398.714 153.383 398.738L230.32 420.38C230.498 420.431 230.649 420.55 230.739 420.711C230.829 420.873 230.852 421.063 230.803 421.242L200.992 528.428C200.941 528.606 200.822 528.757 200.66 528.847C200.499 528.937 200.308 528.96 200.13 528.91L160.967 518.009C160.789 517.958 160.639 517.839 160.548 517.677C160.458 517.516 160.435 517.325 160.485 517.147L177.275 456.62C177.325 456.442 177.302 456.251 177.212 456.089C177.121 455.928 176.971 455.809 176.793 455.758L99.7969 434.087C99.6191 434.035 99.4686 433.916 99.3783 433.755C99.288 433.593 99.2651 433.403 99.3147 433.224Z" fill="black" fill-opacity="0.85"/>
<path d="M264.302 610.827L268.335 608.109C268.783 607.811 269.324 607.686 269.857 607.759C270.389 607.831 270.877 608.096 271.229 608.503C275.934 613.91 279.485 619.999 281.882 626.769C281.957 626.983 281.987 627.21 281.967 627.436C281.948 627.662 281.881 627.881 281.77 628.079C281.66 628.277 281.508 628.449 281.326 628.583C281.143 628.718 280.934 628.812 280.713 628.859C268.978 631.343 272.749 647.505 284.191 647.973C284.358 647.98 284.521 648.021 284.672 648.093C284.823 648.164 284.958 648.265 285.068 648.389C285.179 648.513 285.263 648.658 285.316 648.815C285.368 648.972 285.388 649.138 285.374 649.303C284.809 656.541 283.153 663.516 280.406 670.229C280.314 670.454 280.15 670.642 279.941 670.764C279.732 670.886 279.489 670.934 279.251 670.901C275.934 670.462 272.442 669.22 269.373 670.477C261.643 673.663 264.01 680.458 267.649 685.806C267.788 686.01 267.851 686.256 267.827 686.502C267.803 686.748 267.693 686.977 267.517 687.15C262.188 692.333 256.002 696.133 248.958 698.549C248.452 698.724 248.043 698.592 247.731 698.154C246.226 696.094 245.086 694.048 243.172 692.601C236.157 687.326 228.471 692.25 227.594 700.244C227.539 700.749 227.289 701.213 226.898 701.535C226.507 701.857 226.007 702.013 225.505 701.968C218.218 701.384 211.228 699.63 204.535 696.707C204.009 696.474 203.887 696.108 204.17 695.611C209.839 685.543 199.333 675.738 191.149 683.673C190.924 683.892 190.656 684.062 190.361 684.171C190.066 684.28 189.751 684.327 189.436 684.307C189.121 684.288 188.813 684.204 188.532 684.059C188.251 683.915 188.003 683.713 187.803 683.468C183.409 678.003 179.761 672.08 176.858 665.699C176.791 665.555 176.755 665.4 176.751 665.242C176.747 665.084 176.775 664.927 176.834 664.78C176.892 664.632 176.98 664.498 177.093 664.384C177.205 664.271 177.339 664.181 177.486 664.12C185.046 661.003 187.136 656.005 183.755 649.127C181.753 645.036 178.436 644.393 174.271 643.823C174.036 643.79 173.823 643.667 173.678 643.481C173.533 643.295 173.468 643.061 173.497 642.829C174.315 635.542 176.186 628.542 179.108 621.83C179.204 621.615 179.369 621.437 179.577 621.324C179.786 621.21 180.026 621.167 180.263 621.202C187.642 622.254 195.11 623.014 194.773 612.507C194.764 612.001 194.612 611.51 194.335 611.09L191.062 606.092C190.74 605.605 190.794 605.167 191.222 604.777C196.756 599.692 203.054 595.907 210.117 593.423C210.327 593.351 210.554 593.349 210.765 593.417C210.976 593.486 211.159 593.621 211.286 593.802C213.376 596.871 213.858 600.451 218.593 600.875C218.982 600.914 219.226 600.744 219.323 600.364L272.953 397.725C273.099 397.189 272.904 396.848 272.369 396.702L195.592 376.054C194.939 375.878 194.7 375.46 194.876 374.797L206.084 333.077C206.111 332.976 206.158 332.881 206.222 332.798C206.286 332.715 206.366 332.646 206.457 332.594C206.548 332.542 206.649 332.509 206.753 332.497C206.857 332.484 206.962 332.493 207.063 332.522L327.883 364.846C327.992 364.872 328.086 364.943 328.143 365.042C328.201 365.14 328.218 365.259 328.19 365.372L263.411 610.184C263.378 610.299 263.381 610.422 263.421 610.535C263.46 610.649 263.534 610.747 263.631 610.818C263.728 610.888 263.845 610.926 263.965 610.928C264.085 610.93 264.203 610.894 264.302 610.827ZM255.593 646.029C255.593 639.073 252.829 632.401 247.91 627.482C242.991 622.563 236.319 619.799 229.362 619.799C222.406 619.799 215.734 622.563 210.815 627.482C205.896 632.401 203.132 639.073 203.132 646.029C203.132 652.986 205.896 659.658 210.815 664.577C215.734 669.496 222.406 672.26 229.362 672.26C236.319 672.26 242.991 669.496 247.91 664.577C252.829 659.658 255.593 652.986 255.593 646.029Z" fill="#FFA800"/>
<path d="M264.302 610.827L268.335 608.109C268.783 607.811 269.324 607.686 269.857 607.759C270.389 607.831 270.877 608.096 271.229 608.503C275.934 613.91 279.485 619.999 281.882 626.769C281.957 626.983 281.987 627.21 281.967 627.436C281.948 627.662 281.881 627.881 281.77 628.079C281.66 628.277 281.508 628.449 281.326 628.583C281.143 628.718 280.934 628.812 280.713 628.859C268.978 631.343 272.749 647.505 284.191 647.973C284.358 647.98 284.521 648.021 284.672 648.093C284.823 648.164 284.958 648.265 285.068 648.389C285.179 648.513 285.263 648.658 285.316 648.815C285.368 648.972 285.388 649.138 285.374 649.303C284.809 656.541 283.153 663.516 280.406 670.229C280.314 670.454 280.15 670.642 279.941 670.764C279.732 670.886 279.489 670.934 279.251 670.901C275.934 670.462 272.442 669.22 269.373 670.477C261.643 673.663 264.01 680.458 267.649 685.806C267.788 686.01 267.851 686.256 267.827 686.502C267.803 686.748 267.693 686.977 267.517 687.15C262.188 692.333 256.002 696.133 248.958 698.549C248.452 698.724 248.043 698.592 247.731 698.154C246.226 696.094 245.086 694.048 243.172 692.601C236.157 687.326 228.471 692.25 227.594 700.244C227.539 700.749 227.289 701.213 226.898 701.535C226.507 701.857 226.007 702.013 225.505 701.968C218.218 701.384 211.228 699.63 204.535 696.707C204.009 696.474 203.887 696.108 204.17 695.611C209.839 685.543 199.333 675.738 191.149 683.673C190.924 683.892 190.656 684.062 190.361 684.171C190.066 684.28 189.751 684.327 189.436 684.307C189.121 684.288 188.813 684.204 188.532 684.059C188.251 683.915 188.003 683.713 187.803 683.468C183.409 678.003 179.761 672.08 176.858 665.699C176.791 665.555 176.755 665.4 176.751 665.242C176.747 665.084 176.775 664.927 176.834 664.78C176.892 664.632 176.98 664.498 177.093 664.384C177.205 664.271 177.339 664.181 177.486 664.12C185.046 661.003 187.136 656.005 183.755 649.127C181.753 645.036 178.436 644.393 174.271 643.823C174.036 643.79 173.823 643.667 173.678 643.481C173.533 643.295 173.468 643.061 173.497 642.829C174.315 635.542 176.186 628.542 179.108 621.83C179.204 621.615 179.369 621.437 179.577 621.324C179.786 621.21 180.026 621.167 180.263 621.202C187.642 622.254 195.11 623.014 194.773 612.507C194.764 612.001 194.612 611.51 194.335 611.09L191.062 606.092C190.74 605.605 190.794 605.167 191.222 604.777C196.756 599.692 203.054 595.907 210.117 593.423C210.327 593.351 210.554 593.349 210.765 593.417C210.976 593.486 211.159 593.621 211.286 593.802C213.376 596.871 213.858 600.451 218.593 600.875C218.982 600.914 219.226 600.744 219.323 600.364L272.953 397.725C273.099 397.189 272.904 396.848 272.369 396.702L195.592 376.054C194.939 375.878 194.7 375.46 194.876 374.797L206.084 333.077C206.111 332.976 206.158 332.881 206.222 332.798C206.286 332.715 206.366 332.646 206.457 332.594C206.548 332.542 206.649 332.509 206.753 332.497C206.857 332.484 206.962 332.493 207.063 332.522L327.883 364.846C327.992 364.872 328.086 364.943 328.143 365.042C328.201 365.14 328.218 365.259 328.19 365.372L263.411 610.184C263.378 610.299 263.381 610.422 263.421 610.535C263.46 610.649 263.534 610.747 263.631 610.818C263.728 610.888 263.845 610.926 263.965 610.928C264.085 610.93 264.203 610.894 264.302 610.827ZM255.593 646.029C255.593 639.073 252.829 632.401 247.91 627.482C242.991 622.563 236.319 619.799 229.362 619.799C222.406 619.799 215.734 622.563 210.815 627.482C205.896 632.401 203.132 639.073 203.132 646.029C203.132 652.986 205.896 659.658 210.815 664.577C215.734 669.496 222.406 672.26 229.362 672.26C236.319 672.26 242.991 669.496 247.91 664.577C252.829 659.658 255.593 652.986 255.593 646.029Z" fill="black" fill-opacity="0.85"/>
<path d="M600.78 481.796L398.346 429.467C398.163 429.421 397.971 429.448 397.809 429.541C397.648 429.634 397.531 429.785 397.484 429.964L377.142 507.252C377.095 507.426 376.98 507.575 376.821 507.665C376.663 507.755 376.473 507.78 376.295 507.734L334.282 496.687C333.688 496.531 333.469 496.156 333.625 495.561L365.189 375.209C365.219 375.091 365.273 374.982 365.346 374.885C365.419 374.789 365.511 374.708 365.615 374.646C365.72 374.585 365.835 374.545 365.955 374.529C366.075 374.513 366.197 374.52 366.314 374.551L610.834 437.811C610.943 437.84 611.059 437.839 611.168 437.809C611.277 437.778 611.376 437.718 611.454 437.636C611.532 437.553 611.586 437.451 611.61 437.341C611.635 437.23 611.629 437.115 611.594 437.007C610.644 433.982 606.187 432.316 610.395 428.97C615.422 424.966 621.131 421.732 627.522 419.267C627.728 419.188 627.948 419.156 628.168 419.173C628.388 419.189 628.601 419.255 628.792 419.364C628.984 419.473 629.149 419.623 629.275 419.803C629.402 419.983 629.487 420.19 629.524 420.407C630.196 424.338 633.206 427.07 637.269 427.319C643.689 427.728 647.625 424.23 649.076 416.826C649.136 416.52 649.304 416.246 649.549 416.055C649.793 415.864 650.098 415.77 650.406 415.789C657.576 416.218 664.473 417.82 671.098 420.597C671.585 420.801 671.785 421.167 671.697 421.693C670.586 428.093 669.534 435.75 678.361 436.671C681.722 437.022 684.001 435.122 686.602 433.164C686.815 433 687.08 432.921 687.345 432.943C687.61 432.964 687.857 433.085 688.034 433.281C693.1 438.668 696.919 444.83 699.491 451.766C699.592 452.036 699.591 452.333 699.489 452.602C699.387 452.871 699.19 453.093 698.936 453.228C688.765 458.459 688.604 471.932 701.478 473.247C701.912 473.292 702.312 473.501 702.595 473.83C702.878 474.159 703.023 474.584 702.998 475.015C702.599 482.186 700.972 489.068 698.117 495.664C698.019 495.893 697.845 496.082 697.624 496.199C697.404 496.316 697.15 496.354 696.905 496.307C694.07 495.766 691.542 494.305 688.765 495.079C680.056 497.52 681.692 505.089 685.521 511.11C685.823 511.587 685.76 512.016 685.331 512.396C679.807 517.257 673.65 521.12 666.86 523.984C666.684 524.059 666.494 524.095 666.302 524.09C666.111 524.085 665.922 524.039 665.749 523.954C665.576 523.87 665.423 523.749 665.3 523.601C665.176 523.452 665.085 523.279 665.034 523.092C661.921 511.796 646.446 513.93 645.511 525.694C645.493 525.945 645.424 526.19 645.308 526.414C645.192 526.638 645.032 526.837 644.837 526.998C644.642 527.159 644.415 527.279 644.172 527.352C643.929 527.424 643.673 527.446 643.421 527.418C636.407 526.629 629.66 524.861 623.182 522.113C622.675 521.899 622.456 521.524 622.524 520.988C622.904 518.095 624.161 515.099 623.167 512.396C621.686 508.372 618.808 506.414 614.531 506.521C611.638 506.58 609.577 508.801 607.064 510.218C606.888 510.315 606.686 510.35 606.489 510.318C606.293 510.286 606.115 510.189 605.982 510.043C600.965 504.49 597.171 498.187 594.599 491.134C594.52 490.904 594.526 490.653 594.618 490.429C594.71 490.206 594.88 490.025 595.096 489.921C597.736 488.654 599.952 486.93 601.745 484.748C601.941 484.509 602.074 484.224 602.131 483.919C602.188 483.615 602.168 483.302 602.072 483.007C601.976 482.713 601.807 482.448 601.581 482.236C601.355 482.024 601.08 481.873 600.78 481.796ZM673.305 471.64C673.305 468.195 672.626 464.784 671.308 461.602C669.99 458.42 668.058 455.528 665.622 453.092C663.186 450.657 660.294 448.724 657.112 447.406C653.93 446.088 650.519 445.41 647.074 445.41C640.117 445.41 633.446 448.173 628.526 453.092C623.607 458.011 620.844 464.683 620.844 471.64C620.844 478.597 623.607 485.268 628.526 490.188C633.446 495.107 640.117 497.87 647.074 497.87C650.519 497.87 653.93 497.192 657.112 495.874C660.294 494.555 663.186 492.623 665.622 490.188C668.058 487.752 669.99 484.86 671.308 481.678C672.626 478.495 673.305 475.085 673.305 471.64Z" fill="#FFA800"/>
<path d="M600.78 481.796L398.346 429.467C398.163 429.421 397.971 429.448 397.809 429.541C397.648 429.634 397.531 429.785 397.484 429.964L377.142 507.252C377.095 507.426 376.98 507.575 376.821 507.665C376.663 507.755 376.473 507.78 376.295 507.734L334.282 496.687C333.688 496.531 333.469 496.156 333.625 495.561L365.189 375.209C365.219 375.091 365.273 374.982 365.346 374.885C365.419 374.789 365.511 374.708 365.615 374.646C365.72 374.585 365.835 374.545 365.955 374.529C366.075 374.513 366.197 374.52 366.314 374.551L610.834 437.811C610.943 437.84 611.059 437.839 611.168 437.809C611.277 437.778 611.376 437.718 611.454 437.636C611.532 437.553 611.586 437.451 611.61 437.341C611.635 437.23 611.629 437.115 611.594 437.007C610.644 433.982 606.187 432.316 610.395 428.97C615.422 424.966 621.131 421.732 627.522 419.267C627.728 419.188 627.948 419.156 628.168 419.173C628.388 419.189 628.601 419.255 628.792 419.364C628.984 419.473 629.149 419.623 629.275 419.803C629.402 419.983 629.487 420.19 629.524 420.407C630.196 424.338 633.206 427.07 637.269 427.319C643.689 427.728 647.625 424.23 649.076 416.826C649.136 416.52 649.304 416.246 649.549 416.055C649.793 415.864 650.098 415.77 650.406 415.789C657.576 416.218 664.473 417.82 671.098 420.597C671.585 420.801 671.785 421.167 671.697 421.693C670.586 428.093 669.534 435.75 678.361 436.671C681.722 437.022 684.001 435.122 686.602 433.164C686.815 433 687.08 432.921 687.345 432.943C687.61 432.964 687.857 433.085 688.034 433.281C693.1 438.668 696.919 444.83 699.491 451.766C699.592 452.036 699.591 452.333 699.489 452.602C699.387 452.871 699.19 453.093 698.936 453.228C688.765 458.459 688.604 471.932 701.478 473.247C701.912 473.292 702.312 473.501 702.595 473.83C702.878 474.159 703.023 474.584 702.998 475.015C702.599 482.186 700.972 489.068 698.117 495.664C698.019 495.893 697.845 496.082 697.624 496.199C697.404 496.316 697.15 496.354 696.905 496.307C694.07 495.766 691.542 494.305 688.765 495.079C680.056 497.52 681.692 505.089 685.521 511.11C685.823 511.587 685.76 512.016 685.331 512.396C679.807 517.257 673.65 521.12 666.86 523.984C666.684 524.059 666.494 524.095 666.302 524.09C666.111 524.085 665.922 524.039 665.749 523.954C665.576 523.87 665.423 523.749 665.3 523.601C665.176 523.452 665.085 523.279 665.034 523.092C661.921 511.796 646.446 513.93 645.511 525.694C645.493 525.945 645.424 526.19 645.308 526.414C645.192 526.638 645.032 526.837 644.837 526.998C644.642 527.159 644.415 527.279 644.172 527.352C643.929 527.424 643.673 527.446 643.421 527.418C636.407 526.629 629.66 524.861 623.182 522.113C622.675 521.899 622.456 521.524 622.524 520.988C622.904 518.095 624.161 515.099 623.167 512.396C621.686 508.372 618.808 506.414 614.531 506.521C611.638 506.58 609.577 508.801 607.064 510.218C606.888 510.315 606.686 510.35 606.489 510.318C606.293 510.286 606.115 510.189 605.982 510.043C600.965 504.49 597.171 498.187 594.599 491.134C594.52 490.904 594.526 490.653 594.618 490.429C594.71 490.206 594.88 490.025 595.096 489.921C597.736 488.654 599.952 486.93 601.745 484.748C601.941 484.509 602.074 484.224 602.131 483.919C602.188 483.615 602.168 483.302 602.072 483.007C601.976 482.713 601.807 482.448 601.581 482.236C601.355 482.024 601.08 481.873 600.78 481.796ZM673.305 471.64C673.305 468.195 672.626 464.784 671.308 461.602C669.99 458.42 668.058 455.528 665.622 453.092C663.186 450.657 660.294 448.724 657.112 447.406C653.93 446.088 650.519 445.41 647.074 445.41C640.117 445.41 633.446 448.173 628.526 453.092C623.607 458.011 620.844 464.683 620.844 471.64C620.844 478.597 623.607 485.268 628.526 490.188C633.446 495.107 640.117 497.87 647.074 497.87C650.519 497.87 653.93 497.192 657.112 495.874C660.294 494.555 663.186 492.623 665.622 490.188C668.058 487.752 669.99 484.86 671.308 481.678C672.626 478.495 673.305 475.085 673.305 471.64Z" fill="black" fill-opacity="0.85"/>
<path d="M457.153 525.064L435.73 602.659C435.715 602.717 435.688 602.771 435.652 602.819C435.616 602.866 435.571 602.906 435.519 602.935C435.468 602.965 435.411 602.985 435.352 602.993C435.292 603 435.232 602.996 435.175 602.981L315.874 571.198C315.816 571.182 315.762 571.156 315.715 571.12C315.668 571.083 315.628 571.038 315.598 570.987C315.568 570.935 315.549 570.878 315.541 570.819C315.533 570.76 315.537 570.7 315.553 570.642L325.855 530.983C325.87 530.925 325.897 530.871 325.933 530.824C325.969 530.776 326.014 530.736 326.066 530.707C326.117 530.677 326.174 530.657 326.233 530.65C326.292 530.642 326.352 530.646 326.41 530.661L399.49 549.643C399.604 549.675 399.726 549.661 399.83 549.603C399.934 549.546 400.011 549.45 400.045 549.337L421.468 471.756C421.483 471.698 421.51 471.644 421.546 471.597C421.582 471.55 421.627 471.51 421.679 471.48C421.73 471.45 421.787 471.431 421.846 471.423C421.905 471.415 421.966 471.419 422.023 471.435L529.809 500.777C529.866 500.793 529.92 500.819 529.968 500.855C530.015 500.892 530.055 500.937 530.085 500.988C530.115 501.04 530.134 501.097 530.142 501.156C530.15 501.215 530.146 501.275 530.13 501.333L519.331 541.051C519.316 541.109 519.29 541.163 519.253 541.21C519.217 541.257 519.172 541.297 519.12 541.327C519.069 541.357 519.012 541.376 518.953 541.384C518.894 541.392 518.834 541.388 518.776 541.372L457.708 524.743C457.651 524.727 457.59 524.723 457.531 524.731C457.472 524.739 457.415 524.758 457.364 524.788C457.312 524.818 457.267 524.858 457.231 524.905C457.195 524.953 457.168 525.007 457.153 525.064Z" fill="#FFA800"/>
<path d="M457.153 525.064L435.73 602.659C435.715 602.717 435.688 602.771 435.652 602.819C435.616 602.866 435.571 602.906 435.519 602.935C435.468 602.965 435.411 602.985 435.352 602.993C435.292 603 435.232 602.996 435.175 602.981L315.874 571.198C315.816 571.182 315.762 571.156 315.715 571.12C315.668 571.083 315.628 571.038 315.598 570.987C315.568 570.935 315.549 570.878 315.541 570.819C315.533 570.76 315.537 570.7 315.553 570.642L325.855 530.983C325.87 530.925 325.897 530.871 325.933 530.824C325.969 530.776 326.014 530.736 326.066 530.707C326.117 530.677 326.174 530.657 326.233 530.65C326.292 530.642 326.352 530.646 326.41 530.661L399.49 549.643C399.604 549.675 399.726 549.661 399.83 549.603C399.934 549.546 400.011 549.45 400.045 549.337L421.468 471.756C421.483 471.698 421.51 471.644 421.546 471.597C421.582 471.55 421.627 471.51 421.679 471.48C421.73 471.45 421.787 471.431 421.846 471.423C421.905 471.415 421.966 471.419 422.023 471.435L529.809 500.777C529.866 500.793 529.92 500.819 529.968 500.855C530.015 500.892 530.055 500.937 530.085 500.988C530.115 501.04 530.134 501.097 530.142 501.156C530.15 501.215 530.146 501.275 530.13 501.333L519.331 541.051C519.316 541.109 519.29 541.163 519.253 541.21C519.217 541.257 519.172 541.297 519.12 541.327C519.069 541.357 519.012 541.376 518.953 541.384C518.894 541.392 518.834 541.388 518.776 541.372L457.708 524.743C457.651 524.727 457.59 524.723 457.531 524.731C457.472 524.739 457.415 524.758 457.364 524.788C457.312 524.818 457.267 524.858 457.231 524.905C457.195 524.953 457.168 525.007 457.153 525.064Z" fill="black" fill-opacity="0.85"/>
</svg>
