<svg width="76" height="76" viewBox="0 0 76 76" fill="none" xmlns="http://www.w3.org/2000/svg">
<path d="M49.1802 60.0697C49.4009 60.2903 49.5759 60.5523 49.6953 60.8406C49.8148 61.1289 49.8762 61.4379 49.8762 61.75C49.8762 62.062 49.8148 62.3711 49.6953 62.6594C49.5759 62.9477 49.4009 63.2096 49.1802 63.4303C48.9596 63.651 48.6976 63.826 48.4093 63.9454C48.121 64.0648 47.812 64.1263 47.4999 64.1263C47.1879 64.1263 46.8788 64.0648 46.5905 63.9454C46.3022 63.826 46.0403 63.651 45.8196 63.4303L22.0696 39.6803C21.8488 39.4597 21.6736 39.1978 21.5541 38.9095C21.4346 38.6211 21.373 38.3121 21.373 38C21.373 37.6879 21.4346 37.3788 21.5541 37.0905C21.6736 36.8022 21.8488 36.5402 22.0696 36.3197L45.8196 12.5697C46.2652 12.124 46.8697 11.8737 47.4999 11.8737C48.1302 11.8737 48.7346 12.124 49.1802 12.5697C49.6259 13.0153 49.8762 13.6197 49.8762 14.25C49.8762 14.8802 49.6259 15.4846 49.1802 15.9303L27.1076 38L49.1802 60.0697Z" fill="#F5A020"/>
</svg>
