<svg width="76" height="76" viewBox="0 0 76 76" fill="none" xmlns="http://www.w3.org/2000/svg">
<path d="M26.8197 60.0697C26.599 60.2903 26.424 60.5523 26.3046 60.8406C26.1852 61.1289 26.1237 61.4379 26.1237 61.75C26.1237 62.062 26.1852 62.3711 26.3046 62.6594C26.424 62.9477 26.599 63.2096 26.8197 63.4303C27.0404 63.651 27.3023 63.826 27.5906 63.9454C27.879 64.0648 28.188 64.1263 28.5 64.1263C28.8121 64.1263 29.1211 64.0648 29.4094 63.9454C29.6977 63.826 29.9597 63.651 30.1803 63.4303L53.9303 39.6803C54.1512 39.4597 54.3263 39.1978 54.4459 38.9095C54.5654 38.6211 54.6269 38.3121 54.6269 38C54.6269 37.6879 54.5654 37.3788 54.4459 37.0905C54.3263 36.8022 54.1512 36.5402 53.9303 36.3197L30.1803 12.5697C29.7347 12.124 29.1303 11.8737 28.5 11.8737C27.8698 11.8737 27.2654 12.124 26.8197 12.5697C26.3741 13.0153 26.1237 13.6197 26.1237 14.25C26.1237 14.8802 26.3741 15.4846 26.8197 15.9303L48.8924 38L26.8197 60.0697Z" fill="#F5A020"/>
</svg>
