<svg width="129" height="58" viewBox="0 0 129 58" fill="none" xmlns="http://www.w3.org/2000/svg">
<path d="M92.9423 29.244V31.6982C92.9423 31.7077 92.946 31.7168 92.9528 31.7236C92.9595 31.7303 92.9686 31.7341 92.9782 31.7341H108.541C108.551 31.7341 108.56 31.7378 108.567 31.7446C108.574 31.7513 108.577 31.7604 108.577 31.77V34.6225C108.577 34.632 108.574 34.6412 108.567 34.6479C108.56 34.6546 108.551 34.6584 108.541 34.6584H90.0828C90.0733 34.6584 90.0641 34.6546 90.0574 34.6479C90.0507 34.6412 90.0469 34.632 90.0469 34.6225V20.8833C90.0469 20.8738 90.0507 20.8647 90.0574 20.8579C90.0641 20.8512 90.0733 20.8474 90.0828 20.8474H108.541C108.551 20.8474 108.56 20.8512 108.567 20.8579C108.574 20.8647 108.577 20.8738 108.577 20.8833V23.7115C108.577 23.7211 108.574 23.7302 108.567 23.7369C108.56 23.7436 108.551 23.7474 108.541 23.7474L92.9782 23.7787C92.9686 23.7787 92.9595 23.7825 92.9528 23.7892C92.946 23.7959 92.9423 23.8051 92.9423 23.8146V26.2548C92.9423 26.2644 92.946 26.2735 92.9528 26.2802C92.9595 26.287 92.9686 26.2907 92.9782 26.2907H105.616C105.625 26.2907 105.635 26.2945 105.641 26.3013C105.648 26.308 105.652 26.3171 105.652 26.3266L105.654 29.1421C105.654 29.1516 105.65 29.1608 105.644 29.1675C105.637 29.1742 105.628 29.178 105.618 29.178L92.9782 29.2081C92.9686 29.2081 92.9595 29.2119 92.9528 29.2186C92.946 29.2254 92.9423 29.2345 92.9423 29.244Z" fill="#D9D9D9"/>
<path d="M113.103 23.8273L113.127 31.6669C113.128 31.7116 113.15 31.734 113.194 31.734H128.687C128.715 31.734 128.73 31.7487 128.73 31.778L128.733 34.6028C128.733 34.6398 128.714 34.6584 128.676 34.6584H110.257C110.218 34.6584 110.199 34.6391 110.199 34.6005V20.9053C110.199 20.8667 110.218 20.8474 110.257 20.8474H128.668C128.709 20.8474 128.73 20.8678 128.73 20.9088L128.734 23.7092C128.734 23.7149 128.733 23.7206 128.731 23.7259C128.729 23.7311 128.725 23.7359 128.721 23.7399C128.717 23.7439 128.712 23.747 128.707 23.7491C128.702 23.7512 128.696 23.7522 128.69 23.752C125.05 23.7343 121.441 23.7401 117.865 23.7694C116.304 23.7825 114.751 23.7675 113.208 23.7242C113.194 23.7239 113.181 23.7264 113.168 23.7314C113.155 23.7365 113.143 23.744 113.134 23.7536C113.124 23.7632 113.116 23.7747 113.111 23.7873C113.105 23.8 113.103 23.8136 113.103 23.8273Z" fill="#D9D9D9"/>
<path d="M88.4301 31.155V34.6213C88.4301 34.6312 88.4262 34.6406 88.4192 34.6476C88.4123 34.6545 88.4028 34.6584 88.393 34.6584H69.9355C69.9257 34.6584 69.9162 34.6545 69.9093 34.6476C69.9023 34.6406 69.8984 34.6312 69.8984 34.6213L69.8996 20.8845C69.8996 20.8746 69.9035 20.8652 69.9105 20.8583C69.9174 20.8513 69.9268 20.8474 69.9367 20.8474H88.393C88.4028 20.8474 88.4123 20.8513 88.4192 20.8583C88.4262 20.8652 88.4301 20.8746 88.4301 20.8845V24.3207C88.43 24.3302 88.4263 24.3394 88.4196 24.3462L85.0564 27.7153C85.0528 27.7187 85.05 27.7229 85.048 27.7274C85.0461 27.732 85.0451 27.7369 85.0451 27.7419C85.0451 27.7469 85.0461 27.7518 85.048 27.7564C85.05 27.7609 85.0528 27.7651 85.0564 27.7685L88.4196 31.1295C88.4263 31.1363 88.43 31.1455 88.4301 31.155ZM84.0604 24.5975C84.2445 24.4111 84.5954 24.1273 84.8143 23.8285C84.8398 23.7945 84.8313 23.7772 84.7888 23.7764L72.8714 23.7602C72.7988 23.7602 72.7629 23.7965 72.7637 23.869L72.7904 26.2456C72.7911 26.2757 72.8066 26.2907 72.8367 26.2907H82.2953C82.3378 26.2907 82.3745 26.2757 82.4053 26.2456C82.962 25.702 83.5137 25.1527 84.0604 24.5975ZM82.3625 29.2128C82.3589 29.2091 82.3546 29.2061 82.3498 29.2041C82.345 29.2021 82.3399 29.2011 82.3347 29.2012L72.8297 29.2116C72.8196 29.2116 72.8099 29.2156 72.8027 29.2228C72.7955 29.23 72.7915 29.2397 72.7915 29.2498L72.7822 31.6958C72.7822 31.706 72.7863 31.7157 72.7934 31.7229C72.8006 31.73 72.8103 31.7341 72.8205 31.7341H84.7912C84.7987 31.7341 84.8061 31.732 84.8124 31.7279C84.8187 31.7237 84.8237 31.7178 84.8267 31.7109C84.8296 31.704 84.8305 31.6963 84.8291 31.6889C84.8277 31.6815 84.8242 31.6746 84.8189 31.6692L82.3625 29.2128Z" fill="#D9D9D9"/>
<path d="M62.0704 0.608154H60.4676C60.4305 0.608154 60.4004 0.638229 60.4004 0.675327V55.4375C60.4004 55.4746 60.4305 55.5047 60.4676 55.5047H62.0704C62.1075 55.5047 62.1376 55.4746 62.1376 55.4375V0.675327C62.1376 0.638229 62.1075 0.608154 62.0704 0.608154Z" fill="#FFA800"/>
<path d="M34.5601 9.09074L34.2463 9.29689C34.2059 9.32338 34.1573 9.33435 34.1098 9.32774C34.0622 9.32113 34.0189 9.29739 33.988 9.26099C33.6367 8.85177 33.3637 8.39507 33.1692 7.89089C33.1182 7.75886 33.1626 7.68281 33.3024 7.66273C33.5757 7.6222 33.7679 7.36509 33.7842 7.08713C33.8181 6.52967 33.5409 6.21697 32.9526 6.14902C32.9288 6.1461 32.907 6.13426 32.8917 6.11595C32.8764 6.09763 32.8687 6.07424 32.8704 6.05058C32.9067 5.48077 33.0306 4.93065 33.2421 4.40021C33.2576 4.36084 33.2862 4.34308 33.3278 4.34694C33.4475 4.35697 33.5637 4.37435 33.6765 4.39905C34.2069 4.51255 34.5705 4.15816 34.5057 3.62541C34.4848 3.45632 34.3574 3.32197 34.2706 3.18299C34.232 3.12045 34.2389 3.0637 34.2914 3.01274C34.7014 2.61434 35.1782 2.32403 35.7218 2.14181C35.7611 2.12868 35.7951 2.13718 35.8237 2.16729C36.0124 2.36533 36.0669 2.58654 36.3182 2.68498C37.0363 2.96526 37.2772 2.50779 37.437 1.90671C37.4493 1.86115 37.4791 1.83992 37.5262 1.84301C38.1068 1.87466 38.6639 2.00592 39.1974 2.23678C39.2391 2.25531 39.2553 2.28697 39.246 2.33175C39.1997 2.55064 39.0931 2.76721 39.1534 2.98031C39.3398 3.64625 39.9305 3.54549 40.3868 3.22584C40.4079 3.21129 40.4336 3.20502 40.459 3.20822C40.4844 3.21143 40.5078 3.22389 40.5246 3.24322C40.9068 3.68254 41.2145 4.16974 41.4477 4.70481C41.4537 4.71881 41.4567 4.73395 41.4564 4.74918C41.4561 4.7644 41.4525 4.77936 41.4459 4.79302C41.4393 4.80667 41.4298 4.8187 41.4181 4.82826C41.4064 4.83783 41.3928 4.8447 41.3782 4.84842C40.4598 5.087 40.6856 6.40382 41.5901 6.38529C41.6099 6.38482 41.6295 6.3886 41.6476 6.39637C41.6658 6.40414 41.6821 6.41572 41.6953 6.43033C41.7086 6.44493 41.7186 6.46222 41.7246 6.48103C41.7307 6.49983 41.7326 6.51972 41.7303 6.53932C41.6639 7.1045 41.5237 7.64884 41.3098 8.17232C41.2929 8.21479 41.262 8.23062 41.2172 8.21981C40.7169 8.09936 40.1621 8.09009 40.0799 8.73403C40.0451 9.00735 40.1992 9.21234 40.366 9.41734C40.3945 9.45208 40.3922 9.4849 40.359 9.51578C39.9212 9.92886 39.4178 10.2358 38.8488 10.4365C38.8297 10.4433 38.8087 10.4424 38.7905 10.4339C38.7722 10.4255 38.7582 10.4101 38.7515 10.3913C38.655 10.125 38.4785 9.93773 38.2222 9.82964C38.1782 9.81034 38.1504 9.82424 38.1388 9.87134L34.0123 26.023C34.0103 26.0312 34.0117 26.04 34.0163 26.0473C34.0208 26.0547 34.0281 26.0601 34.0366 26.0623L40.1772 27.6583C40.2196 27.6691 40.2355 27.6957 40.2247 27.7382L39.3537 31.1038C39.3515 31.1114 39.3465 31.1178 39.3398 31.1217C39.333 31.1256 39.3252 31.1267 39.3178 31.1246L29.7225 28.6415C29.677 28.63 29.66 28.6014 29.6716 28.5558L34.6377 9.14517C34.6401 9.13523 34.6394 9.12481 34.6358 9.11525C34.6322 9.10569 34.6258 9.09744 34.6174 9.09157C34.6091 9.0857 34.5991 9.08248 34.5889 9.08233C34.5787 9.08219 34.5687 9.08511 34.5601 9.09074ZM39.3815 6.28337C39.3815 5.73202 39.1625 5.20324 38.7726 4.81338C38.3828 4.42351 37.854 4.20448 37.3026 4.20448C36.7513 4.20448 36.2225 4.42351 35.8326 4.81338C35.4428 5.20324 35.2237 5.73202 35.2237 6.28337C35.2237 6.83473 35.4428 7.3635 35.8326 7.75337C36.2225 8.14323 36.7513 8.36226 37.3026 8.36226C37.854 8.36226 38.3828 8.14323 38.7726 7.75337C39.1625 7.3635 39.3815 6.83473 39.3815 6.28337Z" fill="#FFA800"/>
<path d="M24.0244 13.968L22.3254 20.0993C22.3222 20.1105 22.3146 20.12 22.3044 20.1256C22.2942 20.1313 22.2822 20.1326 22.271 20.1294L13.7458 17.7969C13.7401 17.7954 13.7348 17.7928 13.7302 17.7893C13.7255 17.7857 13.7217 17.7813 13.7187 17.7762C13.7158 17.7712 13.714 17.7656 13.7132 17.7598C13.7125 17.754 13.7129 17.7481 13.7145 17.7425L14.5692 14.6143C14.5707 14.6086 14.5733 14.6033 14.5768 14.5987C14.5804 14.5941 14.5848 14.5902 14.5899 14.5872C14.595 14.5843 14.6006 14.5825 14.6064 14.5817C14.6122 14.581 14.618 14.5815 14.6237 14.583L19.4485 15.9022C19.4542 15.9037 19.4601 15.9042 19.4659 15.9034C19.4716 15.9027 19.4772 15.9009 19.4823 15.8979C19.4874 15.895 19.4918 15.8911 19.4954 15.8865C19.4989 15.8819 19.5015 15.8765 19.503 15.8709L21.1985 9.73499C21.2018 9.72404 21.2091 9.71478 21.2191 9.70916C21.229 9.70354 21.2407 9.702 21.2518 9.70488L30.6942 12.2343C30.7054 12.2375 30.7149 12.2451 30.7205 12.2553C30.7262 12.2655 30.7276 12.2775 30.7243 12.2887L29.9067 15.4134C29.9052 15.4191 29.9026 15.4244 29.8991 15.429C29.8955 15.4337 29.8911 15.4376 29.886 15.4405C29.8809 15.4434 29.8754 15.4453 29.8696 15.446C29.8638 15.4467 29.8579 15.4463 29.8522 15.4447L24.0777 13.9368C24.0665 13.9339 24.0546 13.9356 24.0446 13.9415C24.0347 13.9473 24.0274 13.9569 24.0244 13.968Z" fill="#FFA800"/>
<path d="M41.602 21.3256L47.7241 22.9899C47.7378 22.9937 47.7495 23.0027 47.7567 23.0151C47.7638 23.0274 47.7658 23.0421 47.7623 23.0559L45.278 32.4833C45.2742 32.497 45.2652 32.5087 45.2528 32.5159C45.2405 32.523 45.2258 32.525 45.212 32.5215L42.1024 31.7247C42.0953 31.7229 42.0887 31.7198 42.0829 31.7154C42.0771 31.7111 42.0722 31.7056 42.0685 31.6994C42.0649 31.6931 42.0625 31.6862 42.0615 31.679C42.0606 31.6718 42.0611 31.6645 42.063 31.6575L43.5431 25.8968C43.5467 25.883 43.5446 25.8684 43.5375 25.856C43.5304 25.8437 43.5186 25.8346 43.5049 25.8308L37.3817 24.1643C37.368 24.1605 37.3563 24.1514 37.3491 24.1391C37.342 24.1267 37.34 24.1121 37.3435 24.0982L39.6367 15.5835C39.6405 15.5697 39.6495 15.558 39.6619 15.5509C39.6742 15.5437 39.6889 15.5417 39.7027 15.5453L42.8204 16.3814C42.8342 16.3853 42.8459 16.3943 42.853 16.4066C42.8602 16.419 42.8622 16.4336 42.8586 16.4475L41.5638 21.2596C41.5603 21.2734 41.5623 21.2881 41.5694 21.3004C41.5766 21.3128 41.5883 21.3218 41.602 21.3256Z" fill="#FFA800"/>
<path d="M3.31713 16.501C3.90199 16.7558 4.51697 16.4929 4.57372 15.8119C4.57543 15.7909 4.5814 15.7704 4.59124 15.7517C4.60109 15.733 4.61462 15.7166 4.63099 15.7034C4.64736 15.6901 4.66624 15.6804 4.68646 15.6748C4.70669 15.6691 4.72783 15.6677 4.74861 15.6706C5.28753 15.7424 5.80832 15.8799 6.31096 16.0829C6.3437 16.0963 6.3699 16.122 6.38397 16.1545C6.39804 16.1869 6.39885 16.2236 6.38624 16.2567C6.18008 16.7998 6.42909 17.3974 7.08229 17.3337C7.12938 17.3291 7.17301 17.3144 7.21316 17.2897L7.59303 17.0488C7.61089 17.0375 7.63214 17.0329 7.65309 17.0356C7.67404 17.0384 7.69336 17.0484 7.70769 17.0639C8.10224 17.497 8.39756 17.9889 8.59368 18.5394C8.60758 18.5795 8.59754 18.612 8.56357 18.6367C8.33773 18.7988 8.07019 18.8787 8.00186 19.2042C7.99337 19.2443 8.0092 19.2698 8.04935 19.2806L24.1303 23.4581C24.1495 23.4629 24.1698 23.4599 24.1869 23.4498C24.2041 23.4396 24.2166 23.423 24.2218 23.4036L25.834 17.3013C25.836 17.2938 25.8395 17.2867 25.8442 17.2805C25.849 17.2743 25.855 17.2691 25.8617 17.2652C25.8685 17.2613 25.876 17.2589 25.8838 17.2579C25.8915 17.2569 25.8994 17.2575 25.9069 17.2596L29.2517 18.1433C29.2649 18.1468 29.2761 18.1554 29.283 18.1673C29.29 18.1792 29.292 18.1935 29.2887 18.207L26.7605 27.8058C26.7583 27.8137 26.7531 27.8205 26.7459 27.8247C26.7388 27.8288 26.7303 27.8299 26.7223 27.8278L7.28496 22.7736C7.27587 22.7714 7.26629 22.772 7.25749 22.7752C7.24869 22.7785 7.24108 22.7842 7.23568 22.7918C7.23028 22.7993 7.22734 22.8083 7.22725 22.8174C7.22716 22.8266 7.22992 22.8355 7.23516 22.8431L7.43784 23.1512C7.46663 23.1952 7.47829 23.2482 7.4706 23.3001C7.46291 23.352 7.43641 23.3992 7.39615 23.4326C6.9823 23.7777 6.52367 24.0464 6.02026 24.2387C6.00013 24.2465 5.97856 24.2498 5.95699 24.2485C5.93542 24.2472 5.91436 24.2412 5.89525 24.231C5.87614 24.2208 5.85941 24.2066 5.84621 24.1893C5.83301 24.172 5.82364 24.1521 5.81874 24.1309C5.63807 23.3643 4.65364 23.4824 4.36178 24.1147C4.32009 24.2039 4.32819 24.3707 4.26102 24.4772C4.23786 24.5135 4.20504 24.5301 4.16258 24.527C3.6028 24.4815 3.06272 24.3541 2.54232 24.1448C2.52446 24.1375 2.50953 24.1246 2.49988 24.108C2.49023 24.0914 2.48642 24.0722 2.48904 24.0534C2.52726 23.7916 2.61992 23.5032 2.51452 23.2635C2.25857 22.6798 1.71308 22.8327 1.29962 23.143C1.2641 23.1701 1.2309 23.1678 1.20002 23.1361C0.779222 22.706 0.473468 22.2053 0.282759 21.634C0.270405 21.5961 0.281987 21.568 0.317504 21.5494C0.807403 21.2958 1.16991 20.6866 0.726332 20.228C0.557241 20.0542 0.302448 19.9929 0.0627098 19.9257C0.0437343 19.9202 0.0271961 19.9085 0.0158259 19.8925C0.00445578 19.8765 -0.00106575 19.8571 0.000170258 19.8377C0.0364591 19.2547 0.171577 18.6961 0.405524 18.1618C0.413384 18.1445 0.427716 18.1309 0.445462 18.124C0.463207 18.117 0.482957 18.1173 0.500492 18.1248C1.10737 18.3877 1.82542 18.1526 1.61811 17.3627C1.58337 17.2295 1.46639 17.1299 1.41544 17.0083C1.38301 16.9334 1.39806 16.8697 1.4606 16.8172C1.89453 16.4543 2.3713 16.1601 2.89092 15.9347C2.92953 15.9177 2.95887 15.9277 2.97894 15.9648L3.22216 16.4142C3.24378 16.4535 3.27543 16.4825 3.31713 16.501ZM6.51595 20.0936C6.51595 19.5423 6.29692 19.0135 5.90706 18.6236C5.51719 18.2338 4.98842 18.0147 4.43706 18.0147C4.16406 18.0147 3.89373 18.0685 3.64151 18.173C3.38928 18.2775 3.16011 18.4306 2.96707 18.6236C2.77402 18.8167 2.62089 19.0458 2.51642 19.2981C2.41195 19.5503 2.35817 19.8206 2.35817 20.0936C2.35817 20.3666 2.41195 20.637 2.51642 20.8892C2.62089 21.1414 2.77402 21.3706 2.96707 21.5636C3.16011 21.7567 3.38928 21.9098 3.64151 22.0143C3.89373 22.1187 4.16406 22.1725 4.43706 22.1725C4.98842 22.1725 5.51719 21.9535 5.90706 21.5636C6.29692 21.1737 6.51595 20.645 6.51595 20.0936Z" fill="#FFA800"/>
<path d="M7.87117 36.1778L10.4307 26.777C10.4326 26.7699 10.4358 26.7633 10.4403 26.7575C10.4448 26.7517 10.4503 26.7468 10.4567 26.7431C10.463 26.7395 10.47 26.7371 10.4773 26.7361C10.4846 26.7352 10.492 26.7357 10.499 26.7376L13.6017 27.5634C13.6158 27.5672 13.6278 27.5764 13.6351 27.5889C13.6425 27.6015 13.6446 27.6165 13.6411 27.6306L12.117 33.3762C12.115 33.3833 12.1145 33.3906 12.1155 33.3979C12.1164 33.4052 12.1188 33.4122 12.1224 33.4185C12.1261 33.4249 12.131 33.4305 12.1368 33.4349C12.1426 33.4394 12.1493 33.4426 12.1563 33.4445L18.254 35.1597C18.2681 35.1638 18.2801 35.1732 18.2872 35.186C18.2944 35.1988 18.2962 35.2139 18.2922 35.2281L15.9296 43.7231C15.9256 43.7372 15.9161 43.7492 15.9033 43.7563C15.8905 43.7635 15.8754 43.7653 15.8613 43.7614L12.7574 42.8974C12.7433 42.8933 12.7314 42.8839 12.7242 42.8711C12.7171 42.8583 12.7153 42.8432 12.7192 42.829L14.0499 38.032C14.0539 38.0178 14.052 38.0027 14.0449 37.9899C14.0377 37.9771 14.0258 37.9677 14.0117 37.9636L7.90939 36.2461C7.8953 36.242 7.88337 36.2326 7.87621 36.2198C7.86906 36.207 7.86724 36.1919 7.87117 36.1778Z" fill="#FFA800"/>
<path d="M20.9473 50.2536L21.2669 50.0382C21.3024 50.0146 21.3453 50.0047 21.3875 50.0105C21.4297 50.0163 21.4684 50.0372 21.4963 50.0695C21.8692 50.498 22.1506 50.9806 22.3406 51.5172C22.3466 51.5341 22.3489 51.5521 22.3474 51.57C22.3458 51.5879 22.3405 51.6053 22.3317 51.621C22.323 51.6367 22.311 51.6503 22.2965 51.6609C22.282 51.6716 22.2655 51.6791 22.2479 51.6828C21.3179 51.8797 21.6167 53.1606 22.5235 53.1977C22.5368 53.1983 22.5498 53.2015 22.5617 53.2072C22.5737 53.2128 22.5844 53.2208 22.5931 53.2307C22.6019 53.2405 22.6085 53.252 22.6127 53.2644C22.6169 53.2769 22.6185 53.29 22.6174 53.3031C22.5726 53.8767 22.4413 54.4296 22.2236 54.9615C22.2163 54.9794 22.2033 54.9943 22.1868 55.004C22.1702 55.0136 22.151 55.0174 22.1321 55.0148C21.8692 54.9801 21.5924 54.8816 21.3492 54.9812C20.7365 55.2337 20.9241 55.7722 21.2125 56.1961C21.2236 56.2123 21.2286 56.2318 21.2267 56.2513C21.2248 56.2708 21.2161 56.289 21.2021 56.3027C20.7798 56.7134 20.2895 57.0146 19.7312 57.206C19.6911 57.2199 19.6587 57.2095 19.6339 57.1748C19.5147 57.0115 19.4243 56.8493 19.2726 56.7347C18.7167 56.3166 18.1075 56.7069 18.038 57.3404C18.0336 57.3804 18.0138 57.4172 17.9828 57.4427C17.9519 57.4683 17.9122 57.4806 17.8724 57.4771C17.2949 57.4307 16.7409 57.2917 16.2104 57.0601C16.1688 57.0416 16.1591 57.0126 16.1815 56.9732C16.6309 56.1753 15.7981 55.3982 15.1496 56.027C15.1317 56.0444 15.1104 56.0579 15.0871 56.0665C15.0637 56.0752 15.0387 56.0789 15.0138 56.0774C14.9888 56.0758 14.9644 56.0691 14.9422 56.0577C14.9199 56.0462 14.9002 56.0303 14.8844 56.0108C14.5361 55.5777 14.247 55.1082 14.0169 54.6025C14.0116 54.5912 14.0088 54.5789 14.0084 54.5664C14.0081 54.5538 14.0103 54.5414 14.015 54.5297C14.0196 54.518 14.0266 54.5073 14.0355 54.4984C14.0444 54.4894 14.055 54.4823 14.0667 54.4774C14.6659 54.2304 14.8315 53.8343 14.5635 53.2892C14.4049 52.9649 14.142 52.9139 13.8119 52.8687C13.7933 52.8661 13.7764 52.8564 13.7649 52.8417C13.7534 52.8269 13.7483 52.8084 13.7505 52.79C13.8154 52.2125 13.9636 51.6577 14.1953 51.1257C14.2029 51.1087 14.2159 51.0946 14.2324 51.0856C14.2489 51.0766 14.268 51.0732 14.2867 51.0759C14.8716 51.1593 15.4634 51.2195 15.4368 50.3868C15.4361 50.3467 15.424 50.3078 15.4021 50.2745L15.1426 49.8784C15.1171 49.8398 15.1214 49.805 15.1554 49.7742C15.5939 49.3711 16.0931 49.0712 16.6529 48.8743C16.6695 48.8686 16.6875 48.8684 16.7042 48.8739C16.7209 48.8793 16.7354 48.89 16.7455 48.9044C16.9111 49.1476 16.9493 49.4313 17.3246 49.4649C17.3555 49.468 17.3748 49.4545 17.3825 49.4244L21.6329 33.3643C21.6445 33.3218 21.6291 33.2948 21.5866 33.2832L15.5017 31.6467C15.4499 31.6328 15.431 31.5996 15.4449 31.5471L16.3332 28.2406C16.3353 28.2326 16.3391 28.2251 16.3441 28.2185C16.3492 28.2119 16.3556 28.2064 16.3628 28.2023C16.37 28.1982 16.378 28.1956 16.3862 28.1946C16.3945 28.1936 16.4028 28.1943 16.4108 28.1966L25.9864 30.7584C25.9951 30.7606 26.0025 30.7661 26.007 30.774C26.0116 30.7818 26.0129 30.7912 26.0107 30.8001L20.8767 50.2027C20.874 50.2118 20.8743 50.2216 20.8774 50.2306C20.8806 50.2396 20.8864 50.2474 20.8941 50.2529C20.9018 50.2585 20.9111 50.2616 20.9206 50.2617C20.9301 50.2618 20.9394 50.259 20.9473 50.2536ZM20.257 53.0436C20.257 52.4923 20.038 51.9635 19.6481 51.5736C19.2583 51.1838 18.7295 50.9647 18.1781 50.9647C17.6268 50.9647 17.098 51.1838 16.7082 51.5736C16.3183 51.9635 16.0993 52.4923 16.0993 53.0436C16.0993 53.595 16.3183 54.1238 16.7082 54.5136C17.098 54.9035 17.6268 55.1225 18.1781 55.1225C18.7295 55.1225 19.2583 54.9035 19.6481 54.5136C20.038 54.1238 20.257 53.595 20.257 53.0436Z" fill="#FFA800"/>
<path d="M47.6147 40.0276L31.5708 35.8802C31.5564 35.8766 31.5411 35.8787 31.5283 35.8861C31.5155 35.8935 31.5062 35.9055 31.5025 35.9196L29.8903 42.0451C29.8866 42.0589 29.8775 42.0707 29.8649 42.0778C29.8523 42.085 29.8373 42.0869 29.8232 42.0833L26.4935 41.2077C26.4464 41.1954 26.429 41.1657 26.4414 41.1186L28.943 31.58C28.9454 31.5707 28.9496 31.562 28.9554 31.5544C28.9612 31.5467 28.9685 31.5403 28.9767 31.5355C28.985 31.5306 28.9942 31.5275 29.0037 31.5262C29.0132 31.5249 29.0229 31.5254 29.0321 31.5279L48.4115 36.5415C48.4202 36.5439 48.4294 36.5438 48.438 36.5414C48.4467 36.5389 48.4545 36.5342 48.4607 36.5277C48.4668 36.5211 48.4711 36.5131 48.4731 36.5043C48.475 36.4955 48.4746 36.4864 48.4718 36.4778C48.3965 36.2381 48.0433 36.1061 48.3768 35.8409C48.7752 35.5235 49.2277 35.2672 49.7342 35.0718C49.7505 35.0656 49.768 35.063 49.7854 35.0644C49.8028 35.0657 49.8197 35.0709 49.8348 35.0795C49.85 35.0881 49.8631 35.1 49.8731 35.1143C49.8831 35.1286 49.8899 35.145 49.8928 35.1622C49.9461 35.4737 50.1847 35.6903 50.5066 35.71C51.0155 35.7424 51.3274 35.4652 51.4424 34.8784C51.4472 34.8542 51.4605 34.8324 51.4799 34.8173C51.4993 34.8022 51.5234 34.7947 51.5478 34.7962C52.1161 34.8302 52.6627 34.9572 53.1878 35.1772C53.2264 35.1934 53.2422 35.2224 53.2353 35.2641C53.1472 35.7714 53.0638 36.3782 53.7634 36.4512C54.0298 36.479 54.2104 36.3284 54.4166 36.1732C54.4334 36.1603 54.4544 36.154 54.4754 36.1557C54.4965 36.1574 54.516 36.167 54.5301 36.1825C54.9316 36.6095 55.2342 37.0978 55.4381 37.6476C55.4461 37.6689 55.446 37.6925 55.4379 37.7138C55.4298 37.7351 55.4142 37.7527 55.3941 37.7634C54.588 38.178 54.5752 39.2458 55.5956 39.3501C55.63 39.3536 55.6617 39.3701 55.6841 39.3962C55.7065 39.4223 55.718 39.456 55.716 39.4902C55.6844 40.0585 55.5554 40.604 55.3292 41.1267C55.3214 41.1448 55.3076 41.1598 55.2901 41.1691C55.2726 41.1783 55.2525 41.1814 55.2331 41.1776C55.0084 41.1348 54.808 41.019 54.588 41.0803C53.8977 41.2738 54.0274 41.8737 54.3309 42.3508C54.3548 42.3887 54.3498 42.4226 54.3158 42.4528C53.878 42.838 53.3901 43.1442 52.8519 43.3712C52.838 43.3771 52.8229 43.38 52.8077 43.3796C52.7925 43.3792 52.7776 43.3755 52.7639 43.3688C52.7502 43.3621 52.738 43.3526 52.7282 43.3408C52.7185 43.329 52.7113 43.3153 52.7071 43.3005C52.4605 42.4053 51.234 42.5744 51.1598 43.5067C51.1584 43.5266 51.153 43.546 51.1438 43.5638C51.1346 43.5816 51.1219 43.5973 51.1064 43.6101C51.091 43.6228 51.0731 43.6324 51.0538 43.6381C51.0345 43.6438 51.0142 43.6456 50.9942 43.6433C50.4383 43.5808 49.9036 43.4407 49.3902 43.2229C49.35 43.2059 49.3327 43.1762 49.3381 43.1338C49.3682 42.9044 49.4678 42.667 49.389 42.4528C49.2717 42.1339 49.0435 41.9787 48.7046 41.9872C48.4752 41.9918 48.3119 42.1679 48.1127 42.2802C48.0988 42.2878 48.0828 42.2906 48.0672 42.2881C48.0517 42.2856 48.0375 42.2779 48.027 42.2663C47.6294 41.8262 47.3287 41.3266 47.1248 40.7676C47.1186 40.7494 47.1191 40.7295 47.1264 40.7118C47.1336 40.6941 47.1471 40.6798 47.1642 40.6715C47.3735 40.5711 47.5491 40.4345 47.6912 40.2615C47.7067 40.2426 47.7173 40.22 47.7218 40.1959C47.7263 40.1718 47.7247 40.1469 47.7171 40.1236C47.7095 40.1003 47.6961 40.0793 47.6782 40.0625C47.6603 40.0457 47.6385 40.0337 47.6147 40.0276ZM53.3627 39.2227C53.3627 38.9497 53.3089 38.6793 53.2044 38.4271C53.0999 38.1749 52.9468 37.9457 52.7538 37.7527C52.5607 37.5596 52.3315 37.4065 52.0793 37.302C51.8271 37.1976 51.5568 37.1438 51.2838 37.1438C50.7324 37.1438 50.2036 37.3628 49.8138 37.7527C49.4239 38.1425 49.2049 38.6713 49.2049 39.2227C49.2049 39.774 49.4239 40.3028 49.8138 40.6927C50.2036 41.0825 50.7324 41.3016 51.2838 41.3016C51.5568 41.3016 51.8271 41.2478 52.0793 41.1433C52.3315 41.0388 52.5607 40.8857 52.7538 40.6927C52.9468 40.4996 53.0999 40.2704 53.2044 40.0182C53.3089 39.766 53.3627 39.4957 53.3627 39.2227Z" fill="#FFA800"/>
<path d="M36.2316 43.4566L34.5337 49.6064C34.5325 49.6109 34.5304 49.6152 34.5275 49.619C34.5247 49.6227 34.5211 49.6259 34.517 49.6283C34.5129 49.6306 34.5084 49.6322 34.5037 49.6328C34.499 49.6334 34.4943 49.6331 34.4897 49.6319L25.0345 47.1129C25.03 47.1117 25.0257 47.1096 25.0219 47.1067C25.0182 47.1038 25.015 47.1002 25.0126 47.0962C25.0103 47.0921 25.0087 47.0876 25.0081 47.0829C25.0075 47.0782 25.0078 47.0734 25.009 47.0689L25.8255 43.9256C25.8267 43.9211 25.8288 43.9168 25.8317 43.913C25.8346 43.9093 25.8382 43.9061 25.8423 43.9038C25.8463 43.9014 25.8509 43.8999 25.8555 43.8992C25.8602 43.8986 25.865 43.8989 25.8695 43.9002L31.6615 45.4046C31.6705 45.4071 31.6802 45.406 31.6885 45.4014C31.6967 45.3969 31.7028 45.3893 31.7055 45.3803L33.4033 39.2316C33.4046 39.2271 33.4067 39.2228 33.4095 39.219C33.4124 39.2153 33.416 39.2121 33.4201 39.2098C33.4242 39.2074 33.4287 39.2059 33.4334 39.2052C33.438 39.2046 33.4428 39.2049 33.4474 39.2062L41.9899 41.5317C41.9945 41.5329 41.9988 41.535 42.0025 41.5379C42.0063 41.5408 42.0094 41.5444 42.0118 41.5484C42.0142 41.5525 42.0157 41.557 42.0163 41.5617C42.0169 41.5664 42.0166 41.5712 42.0154 41.5757L41.1595 44.7236C41.1583 44.7282 41.1562 44.7324 41.1533 44.7362C41.1505 44.74 41.1469 44.7431 41.1428 44.7455C41.1387 44.7478 41.1342 44.7494 41.1295 44.75C41.1248 44.7506 41.1201 44.7503 41.1155 44.7491L36.2756 43.4311C36.271 43.4299 36.2662 43.4296 36.2616 43.4302C36.2569 43.4308 36.2524 43.4323 36.2483 43.4347C36.2442 43.4371 36.2406 43.4402 36.2377 43.444C36.2349 43.4477 36.2328 43.452 36.2316 43.4566Z" fill="#FFA800"/>
</svg>
