<svg width="38" height="38" viewBox="0 0 38 38" fill="none" xmlns="http://www.w3.org/2000/svg">
<path fill-rule="evenodd" clip-rule="evenodd" d="M7.91667 1.979C6.76187 1.979 5.65437 2.43775 4.83781 3.25431C4.02124 4.07087 3.5625 5.17837 3.5625 6.33317C3.5625 7.48797 4.02124 8.59547 4.83781 9.41203C5.65437 10.2286 6.76187 10.6873 7.91667 10.6873C9.07146 10.6873 10.179 10.2286 10.9955 9.41203C11.8121 8.59547 12.2708 7.48797 12.2708 6.33317C12.2708 5.17837 11.8121 4.07087 10.9955 3.25431C10.179 2.43775 9.07146 1.979 7.91667 1.979ZM5.9375 6.33317C5.9375 5.80826 6.14602 5.30485 6.51718 4.93369C6.88835 4.56252 7.39176 4.354 7.91667 4.354C8.44157 4.354 8.94498 4.56252 9.31615 4.93369C9.68731 5.30485 9.89583 5.80826 9.89583 6.33317C9.89583 6.85808 9.68731 7.36149 9.31615 7.73265C8.94498 8.10382 8.44157 8.31234 7.91667 8.31234C7.39176 8.31234 6.88835 8.10382 6.51718 7.73265C6.14602 7.36149 5.9375 6.85808 5.9375 6.33317ZM3.5625 12.6665C3.5625 12.3516 3.68761 12.0495 3.91031 11.8268C4.13301 11.6041 4.43506 11.479 4.75 11.479H11.0833C11.3983 11.479 11.7003 11.6041 11.923 11.8268C12.1457 12.0495 12.2708 12.3516 12.2708 12.6665V33.2498C12.2708 33.5648 12.1457 33.8668 11.923 34.0895C11.7003 34.3122 11.3983 34.4373 11.0833 34.4373H4.75C4.43506 34.4373 4.13301 34.3122 3.91031 34.0895C3.68761 33.8668 3.5625 33.5648 3.5625 33.2498V12.6665ZM5.9375 13.854V32.0623H9.89583V13.854H5.9375ZM14.6458 12.6665C14.6458 12.3516 14.7709 12.0495 14.9936 11.8268C15.2163 11.6041 15.5184 11.479 15.8333 11.479H22.1667C22.4816 11.479 22.7837 11.6041 23.0064 11.8268C23.2291 12.0495 23.3542 12.3516 23.3542 12.6665V13.3537L24.0429 13.0576C25.2304 12.5501 26.4903 12.2322 27.7764 12.1155C32.1702 11.7165 36.0208 15.1682 36.0208 19.6015V33.2498C36.0208 33.5648 35.8957 33.8668 35.673 34.0895C35.4503 34.3122 35.1483 34.4373 34.8333 34.4373H28.5C28.1851 34.4373 27.883 34.3122 27.6603 34.0895C27.4376 33.8668 27.3125 33.5648 27.3125 33.2498V22.1665C27.3125 21.6416 27.104 21.1382 26.7328 20.767C26.3617 20.3959 25.8582 20.1873 25.3333 20.1873C24.8084 20.1873 24.305 20.3959 23.9339 20.767C23.5627 21.1382 23.3542 21.6416 23.3542 22.1665V33.2498C23.3542 33.5648 23.2291 33.8668 23.0064 34.0895C22.7837 34.3122 22.4816 34.4373 22.1667 34.4373H15.8333C15.5184 34.4373 15.2163 34.3122 14.9936 34.0895C14.7709 33.8668 14.6458 33.5648 14.6458 33.2498V12.6665ZM17.0208 13.854V32.0623H20.9792V22.1665C20.9792 21.0117 21.4379 19.9042 22.2545 19.0876C23.071 18.2711 24.1785 17.8123 25.3333 17.8123C26.4881 17.8123 27.5956 18.2711 28.4122 19.0876C29.2288 19.9042 29.6875 21.0117 29.6875 22.1665V32.0623H33.6458V19.6015C33.6458 16.5868 31.0159 14.2055 27.9933 14.481C26.9549 14.5755 25.9377 14.8319 24.9787 15.241L22.6353 16.2464C22.4546 16.3241 22.2574 16.3556 22.0615 16.3381C21.8655 16.3207 21.677 16.2549 21.5128 16.1466C21.3486 16.0383 21.2139 15.8908 21.1207 15.7176C21.0276 15.5443 20.9789 15.3506 20.9792 15.1539V13.854H17.0208Z" fill="#D9D9D9"/>
</svg>
