<svg width="31" height="28" viewBox="0 0 31 28" fill="none" xmlns="http://www.w3.org/2000/svg">
<path d="M30.5689 0.795405C30.3974 0.650911 30.1886 0.554812 29.9653 0.517463C29.7419 0.480114 29.5123 0.50293 29.3012 0.583453L1.25472 11.2904C0.857238 11.4412 0.520723 11.7138 0.295837 12.0673C0.0709516 12.4208 -0.0301327 12.836 0.00780298 13.2504C0.0457386 13.6647 0.220641 14.0559 0.506178 14.3649C0.791715 14.6739 1.17243 14.8841 1.59101 14.9638L8.85797 16.3556V24.26C8.85654 24.6905 8.9877 25.1115 9.23445 25.4685C9.48121 25.8255 9.83218 26.1019 10.2419 26.262C10.651 26.425 11.1008 26.4641 11.533 26.3743C11.9652 26.2845 12.3596 26.0699 12.6651 25.7585L16.1692 22.2134L21.7284 26.96C22.1295 27.307 22.6468 27.4991 23.1829 27.5C23.4179 27.4998 23.6513 27.4638 23.8749 27.3933C24.2402 27.2803 24.5687 27.0758 24.8278 26.8004C25.0869 26.5249 25.2674 26.188 25.3515 25.8233L30.9688 1.98477C31.0191 1.76978 31.0084 1.5455 30.938 1.33598C30.8675 1.12646 30.7399 0.939588 30.5689 0.795405ZM22.1076 5.65545L9.70908 14.3171L2.84484 13.0036L22.1076 5.65545ZM11.0722 24.26V17.8501L14.503 20.785L11.0722 24.26ZM23.1857 25.34L11.7434 15.5524L28.2121 4.03813L23.1857 25.34Z" fill="#D9D9D9"/>
</svg>
