<svg width="818" height="818" viewBox="0 0 818 818" fill="none" xmlns="http://www.w3.org/2000/svg">
<ellipse cx="409.019" cy="408.542" rx="183.057" ry="183.534" fill="#F5A020" fill-opacity="0.1"/>
<path d="M409.019 229.508C433.266 229.508 456.373 234.352 477.439 243.122L479.167 238.97C523.903 257.594 559.679 293.493 578.214 338.367L574.059 340.083C582.768 361.167 587.577 384.286 587.577 408.542C587.577 432.799 582.768 455.918 574.059 477.001L578.214 478.717C559.679 523.591 523.903 559.49 479.167 578.114L477.439 573.963C456.373 582.733 433.266 587.577 409.019 587.577C384.773 587.577 361.665 582.734 340.598 573.963L338.87 578.114C294.134 559.49 258.358 523.591 239.823 478.717L243.979 477.001C235.27 455.918 230.462 432.799 230.462 408.542C230.462 384.286 235.27 361.167 243.979 340.083L239.823 338.367C258.359 293.493 294.134 257.594 338.87 238.97L340.598 243.122C361.665 234.351 384.773 229.508 409.019 229.508Z" stroke="#F5A020" stroke-width="9" stroke-dasharray="100 100"/>
<g filter="url(#filter0_f_85_1347)">
<circle cx="409" cy="409" r="295.636" transform="rotate(60.51 409 409)" stroke="#F5A020" stroke-width="9" stroke-dasharray="160 160"/>
</g>
<circle cx="409.108" cy="408.612" r="295.352" transform="rotate(60.51 409.108 408.612)" stroke="#F5A020" stroke-width="9" stroke-dasharray="160 160"/>
<circle cx="409.496" cy="408.543" r="138.63" stroke="#F5A020" stroke-width="4"/>
<g filter="url(#filter1_f_85_1347)">
<circle cx="409.386" cy="408.607" r="70.3465" fill="#F5A020"/>
</g>
<circle cx="409.496" cy="408.543" r="70.0767" fill="#F5A020"/>
<path d="M405.769 187.35L403.929 187.381L403.678 172.407L405.518 172.376L405.769 187.35ZM401.178 187.456L399.34 187.526L398.771 172.561L400.61 172.491L401.178 187.456ZM396.619 187.662L394.782 187.775L393.862 172.827L395.698 172.714L396.619 187.662ZM392.018 187.972L390.184 188.121L388.971 173.194L390.805 173.046L392.018 187.972ZM387.426 188.373L385.595 188.558L384.089 173.658L385.92 173.473L387.426 188.373ZM382.845 188.864L381.018 189.085L379.216 174.218L381.043 173.996L382.845 188.864ZM378.275 189.445L376.453 189.703L374.355 174.875L376.177 174.617L378.275 189.445ZM373.762 190.116L371.947 190.417L369.499 175.642L371.314 175.342L373.762 190.116ZM369.24 190.895L367.432 191.235L364.667 176.516L366.475 176.177L369.24 190.895ZM364.72 191.773L362.919 192.149L359.859 177.489L361.66 177.113L364.72 191.773ZM360.219 192.741L358.425 193.153L355.071 178.557L356.864 178.145L360.219 192.741ZM355.739 193.799L353.954 194.247L350.305 179.723L352.09 179.274L355.739 193.799ZM351.282 194.948L349.507 195.432L345.564 180.984L347.339 180.5L351.282 194.948ZM346.878 196.182L345.114 196.706L340.844 182.352L342.608 181.827L346.878 196.182ZM342.499 197.516L340.748 198.08L336.157 183.825L337.909 183.261L342.499 197.516ZM338.127 198.954L336.387 199.553L331.509 185.394L333.248 184.795L338.127 198.954ZM333.785 200.479L332.058 201.114L326.893 187.057L328.62 186.422L333.785 200.479ZM329.475 202.093L327.762 202.762L322.312 188.813L324.025 188.144L329.475 202.093ZM325.2 203.793L323.5 204.498L317.767 190.663L319.467 189.958L325.2 203.793ZM320.96 205.581L319.275 206.32L313.261 192.604L314.946 191.865L320.96 205.581ZM316.794 207.443L315.127 208.221L308.791 194.651L310.458 193.873L316.794 207.443ZM312.645 209.412L310.994 210.225L304.373 196.793L306.024 195.979L312.645 209.412ZM308.529 211.472L306.896 212.319L300.003 199.023L301.637 198.176L308.529 211.472ZM304.457 213.615L302.841 214.495L295.679 201.342L297.295 200.462L304.457 213.615ZM300.429 215.84L298.831 216.753L291.404 203.748L293.001 202.836L300.429 215.84ZM296.446 218.147L294.868 219.092L287.178 206.241L288.757 205.296L296.446 218.147ZM292.512 220.534L290.952 221.511L283.003 208.818L284.563 207.842L292.512 220.534ZM288.651 222.989L287.114 224L278.88 211.491L280.417 210.479L288.651 222.989ZM284.837 225.535L283.323 226.579L274.819 214.252L276.333 213.207L284.837 225.535ZM281.064 228.171L279.571 229.247L270.819 217.094L272.312 216.019L281.064 228.171ZM277.346 230.884L275.875 231.989L266.879 220.016L268.35 218.911L277.346 230.884ZM273.683 233.671L272.234 234.806L262.998 223.018L264.446 221.883L273.683 233.671ZM270.077 236.532L268.652 237.696L259.178 226.097L260.604 224.933L270.077 236.532ZM266.53 239.466L265.128 240.658L255.422 229.253L256.824 228.061L266.53 239.466ZM263.047 242.467L261.67 243.688L251.731 232.487L253.107 231.265L263.047 242.467ZM259.653 245.521L258.306 246.774L248.106 235.808L249.454 234.555L259.653 245.521ZM256.301 248.677L254.979 249.957L244.561 239.199L245.882 237.919L256.301 248.677ZM253.014 251.899L251.718 253.206L241.084 242.661L242.38 241.354L253.014 251.899ZM249.792 255.188L248.524 256.52L237.679 246.192L238.947 244.86L249.792 255.188ZM246.638 258.54L245.397 259.898L234.345 249.792L235.587 248.434L246.638 258.54ZM243.552 261.956L242.338 263.339L231.085 253.458L232.299 252.075L243.552 261.956ZM240.536 265.434L239.35 266.841L227.899 257.189L229.085 255.782L240.536 265.434ZM237.609 268.954L236.455 270.387L224.791 260.994L225.945 259.56L237.609 268.954ZM234.757 272.543L233.634 274.001L221.769 264.864L222.891 263.406L234.757 272.543ZM231.971 276.207L230.878 277.688L218.83 268.793L219.922 267.313L231.971 276.207ZM229.26 279.927L228.197 281.429L215.971 272.78L217.034 271.278L229.26 279.927ZM226.625 283.701L225.593 285.224L213.194 276.825L214.226 275.301L226.625 283.701ZM224.067 287.527L223.066 289.071L210.499 280.925L211.5 279.381L224.067 287.527ZM221.587 291.404L220.617 292.968L207.888 285.078L208.857 283.514L221.587 291.404ZM219.191 295.325L218.254 296.908L205.363 289.287L206.299 287.703L219.191 295.325ZM216.896 299.27L215.997 300.875L202.929 293.559L203.828 291.954L216.896 299.27ZM214.672 303.299L213.806 304.922L200.593 297.874L201.459 296.25L214.672 303.299ZM212.531 307.372L211.698 309.013L198.344 302.234L199.177 300.594L212.531 307.372ZM210.473 311.488L209.674 313.146L196.185 306.64L196.984 304.983L210.473 311.488ZM208.5 315.645L207.734 317.319L194.115 311.089L194.881 309.415L208.5 315.645ZM206.611 319.842L205.88 321.53L192.137 315.579L192.868 313.89L206.611 319.842ZM204.811 324.071L204.115 325.774L190.251 320.11L190.947 318.406L204.811 324.071ZM203.117 328.302L202.463 330.022L188.467 324.693L189.122 322.973L203.117 328.302ZM201.506 332.612L200.887 334.345L186.785 329.302L187.405 327.57L201.506 332.612ZM199.983 336.955L199.399 338.7L185.198 333.945L185.782 332.2L199.983 336.955ZM198.549 341.328L198 343.084L183.705 338.619L184.254 336.862L198.549 341.328ZM197.203 345.729L196.69 347.496L182.308 343.322L182.821 341.555L197.203 345.729ZM195.947 350.157L195.47 351.935L181.006 348.052L181.483 346.275L195.947 350.157ZM194.792 354.58L194.356 356.368L179.807 352.818L180.243 351.03L194.792 354.58ZM193.736 359.036L193.34 360.833L178.715 357.607L179.112 355.811L193.736 359.036ZM192.772 363.538L192.412 365.343L177.725 362.412L178.085 360.608L192.772 363.538ZM191.898 368.059L191.575 369.87L176.832 367.236L177.156 365.425L191.898 368.059ZM191.115 372.598L190.828 374.415L176.036 372.076L176.323 370.259L191.115 372.598ZM190.423 377.152L190.172 378.975L175.336 376.931L175.587 375.108L190.423 377.152ZM189.831 381.683L189.622 383.511L174.743 381.81L174.952 379.982L189.831 381.683ZM189.34 386.239L189.172 388.072L174.259 386.698L174.427 384.866L189.34 386.239ZM188.945 390.832L188.812 392.667L173.875 391.587L174.008 389.752L188.945 390.832ZM188.639 395.432L188.543 397.27L173.587 396.483L173.684 394.646L188.639 395.432ZM188.424 400.04L188.363 401.879L173.395 401.383L173.456 399.544L188.424 400.04ZM188.3 404.638L188.277 406.478L173.302 406.289L173.325 404.449L188.3 404.638ZM188.275 409.196L188.296 411.036L173.321 411.207L173.3 409.367L188.275 409.196ZM188.354 413.81L188.411 415.649L173.442 416.109L173.385 414.269L188.354 413.81ZM188.523 418.42L188.615 420.258L173.658 421.007L173.565 419.17L188.523 418.42ZM188.781 423.024L188.909 424.859L173.969 425.901L173.841 424.066L188.781 423.024ZM189.129 427.62L189.293 429.452L174.377 430.789L174.213 428.956L189.129 427.62ZM189.568 432.151L189.777 433.98L174.898 435.68L174.689 433.852L189.568 432.151ZM190.119 436.717L190.365 438.541L175.525 440.548L175.278 438.724L190.119 436.717ZM190.764 441.279L191.046 443.097L176.249 445.399L175.966 443.581L190.764 441.279ZM191.499 445.825L191.818 447.637L177.069 450.235L176.75 448.423L191.499 445.825ZM192.325 450.355L192.681 452.16L177.987 455.054L177.631 453.249L192.325 450.355ZM193.242 454.867L193.634 456.664L179.002 459.854L178.61 458.056L193.242 454.867ZM194.244 459.305L194.68 461.093L180.131 464.643L179.695 462.855L194.244 459.305ZM195.362 463.768L195.835 465.546L181.362 469.393L180.889 467.615L195.362 463.768ZM196.572 468.209L197.08 469.977L182.688 474.117L182.179 472.348L196.572 468.209ZM197.871 472.624L198.415 474.382L184.11 478.812L183.565 477.055L197.871 472.624ZM199.259 477.012L199.839 478.758L185.626 483.478L185.047 481.732L199.259 477.012ZM200.736 481.37L201.352 483.104L187.238 488.112L186.623 486.378L200.736 481.37ZM202.296 485.675L202.95 487.394L188.952 492.716L188.298 490.996L202.296 485.675ZM203.951 489.939L204.644 491.644L190.769 497.282L190.077 495.577L203.951 489.939ZM205.709 494.192L206.437 495.882L192.68 501.801L191.953 500.111L205.709 494.192ZM207.554 498.408L208.315 500.083L194.682 506.28L193.92 504.605L207.554 498.408ZM209.484 502.586L210.279 504.245L196.774 510.718L195.979 509.059L209.484 502.586ZM211.498 506.723L212.327 508.366L198.957 515.112L198.128 513.47L211.498 506.723ZM213.596 510.819L214.458 512.444L201.228 519.461L200.366 517.836L213.596 510.819ZM215.769 514.852L216.667 516.458L203.595 523.765L202.697 522.159L215.769 514.852ZM218.03 518.832L218.963 520.417L206.058 528.016L205.125 526.431L218.03 518.832ZM220.389 522.783L221.355 524.35L208.607 532.209L207.641 530.643L220.389 522.783ZM222.828 526.686L223.826 528.233L211.24 536.349L210.242 534.803L222.828 526.686ZM225.346 530.539L226.375 532.065L213.956 540.435L212.928 538.909L225.346 530.539ZM227.942 534.34L229.001 535.844L216.754 544.464L215.695 542.96L227.942 534.34ZM230.614 538.087L231.703 539.57L219.634 548.437L218.545 546.954L230.614 538.087ZM233.36 541.778L234.48 543.238L222.595 552.35L221.475 550.89L233.36 541.778ZM236.161 545.379L237.315 546.812L225.649 556.203L224.496 554.769L236.161 545.379ZM239.07 548.947L240.252 550.357L228.779 559.981L227.596 558.572L239.07 548.947ZM242.05 552.456L243.26 553.841L231.984 563.696L230.773 562.31L242.05 552.456ZM245.1 555.903L246.338 557.264L235.263 567.345L234.025 565.984L245.1 555.903ZM248.219 559.289L249.485 560.624L238.616 570.927L237.35 569.591L248.219 559.289ZM251.406 562.61L252.698 563.92L242.04 574.44L240.747 573.13L251.406 562.61ZM254.659 565.867L255.978 567.15L245.534 577.883L244.215 576.6L254.659 565.867ZM257.964 569.04L259.31 570.293L249.106 581.255L247.759 580.001L257.964 569.04ZM261.338 572.14L262.712 573.364L252.751 584.547L251.377 583.323L261.338 572.14ZM264.794 575.181L266.193 576.377L256.46 587.759L255.062 586.563L264.794 575.181ZM268.311 578.151L269.734 579.319L260.233 590.895L258.811 589.728L268.311 578.151ZM271.887 581.05L273.333 582.188L264.068 593.954L262.623 592.816L271.887 581.05ZM275.521 583.875L276.989 584.984L267.965 596.935L266.496 595.827L275.521 583.875ZM279.211 586.626L280.701 587.705L271.921 599.837L270.43 598.758L279.211 586.626ZM282.955 589.302L284.468 590.35L275.936 602.658L274.423 601.61L282.955 589.302ZM286.721 591.872L288.258 592.884L280.023 605.393L278.486 604.381L286.721 591.872ZM290.58 594.379L292.138 595.36L284.158 608.033L282.601 607.053L290.58 594.379ZM294.49 596.808L296.067 597.756L288.346 610.589L286.77 609.64L294.49 596.808ZM298.448 599.156L300.043 600.072L292.585 613.059L290.99 612.143L298.448 599.156ZM302.453 601.423L304.066 602.307L296.874 615.443L295.26 614.559L302.453 601.423ZM306.502 603.609L308.134 604.46L301.209 617.739L299.578 616.888L306.502 603.609ZM310.596 605.712L312.244 606.529L305.591 619.946L303.943 619.129L310.596 605.712ZM314.699 607.711L316.366 608.489L310.031 622.059L308.363 621.281L314.699 607.711ZM318.872 609.627L320.555 610.37L314.509 624.071L312.825 623.328L318.872 609.627ZM323.093 611.459L324.791 612.167L319.025 625.989L317.327 625.28L323.093 611.459ZM327.351 613.205L329.063 613.878L323.579 627.814L321.867 627.141L327.351 613.205ZM331.643 614.863L333.369 615.502L328.169 629.547L326.444 628.908L331.643 614.863ZM335.968 616.435L337.707 617.038L332.794 631.185L331.056 630.582L335.968 616.435ZM340.325 617.918L342.075 618.486L337.451 632.73L335.701 632.162L340.325 617.918ZM344.663 619.291L346.426 619.815L342.156 634.17L340.392 633.645L344.663 619.291ZM349.082 620.576L350.856 621.065L346.878 635.503L345.104 635.014L349.082 620.576ZM353.526 621.772L355.31 622.224L351.625 636.74L349.842 636.287L353.526 621.772ZM357.995 622.877L359.787 623.294L356.397 637.881L354.605 637.464L357.995 622.877ZM362.486 623.892L364.286 624.272L361.19 638.925L359.39 638.545L362.486 623.892ZM366.997 624.817L368.804 625.161L366.003 639.873L364.196 639.528L366.997 624.817ZM371.481 625.637L373.297 625.938L370.849 640.713L369.033 640.412L371.481 625.637ZM376.016 626.359L377.838 626.621L375.703 641.445L373.882 641.182L376.016 626.359ZM380.58 626.988L382.406 627.214L380.567 642.077L378.741 641.851L380.58 626.988ZM385.156 627.527L386.986 627.716L385.443 642.613L383.613 642.423L385.156 627.527ZM389.744 627.975L391.577 628.128L390.327 643.052L388.494 642.898L389.744 627.975ZM394.333 628.331L396.169 628.447L395.222 643.393L393.385 643.277L394.333 628.331ZM398.877 628.585L400.715 628.656L400.136 643.621L398.298 643.55L398.877 628.585ZM403.487 628.737L405.327 628.772L405.038 643.745L403.199 643.71L403.487 628.737ZM408.101 628.799H409.941V643.775H408.101V628.799ZM412.716 628.772L414.556 628.736L414.844 643.71L413.004 643.745L412.716 628.772ZM417.327 628.656L419.166 628.585L419.745 643.55L417.906 643.621L417.327 628.656ZM421.874 628.447L423.71 628.33L424.657 643.276L422.821 643.393L421.874 628.447ZM426.466 628.128L428.299 627.974L429.549 642.898L427.715 643.051L426.466 628.128ZM431.057 627.716L432.887 627.526L434.43 642.422L432.6 642.612L431.057 627.716ZM435.637 627.214L437.463 626.988L439.301 641.851L437.475 642.076L435.637 627.214ZM440.205 626.621L442.026 626.359L444.161 641.182L442.339 641.444L440.205 626.621ZM444.746 625.937L446.561 625.637L449.009 640.411L447.194 640.712L444.746 625.937ZM449.238 625.16L451.046 624.816L453.847 639.528L452.039 639.872L449.238 625.16ZM453.757 624.271L455.557 623.891L458.653 638.544L456.852 638.924L453.757 624.271ZM458.255 623.292L460.048 622.876L463.438 637.463L461.646 637.88L458.255 623.292ZM462.733 622.223L464.516 621.77L468.201 636.286L466.417 636.739L462.733 622.223ZM467.187 621.064L468.961 620.575L472.939 635.013L471.165 635.502L467.187 621.064ZM471.616 619.814L473.38 619.289L477.65 633.644L475.886 634.168L471.616 619.814ZM475.967 618.485L477.717 617.917L482.341 632.161L480.591 632.729L475.967 618.485ZM480.336 617.037L482.074 616.433L486.987 630.58L485.248 631.184L480.336 617.037ZM484.674 615.501L486.399 614.862L491.599 628.906L489.873 629.545L484.674 615.501ZM488.98 613.877L490.692 613.203L496.175 627.139L494.463 627.813L488.98 613.877ZM493.251 612.166L494.949 611.457L500.715 625.279L499.017 625.987L493.251 612.166ZM497.487 610.368L499.17 609.625L505.217 623.326L503.533 624.069L497.487 610.368ZM501.676 608.487L503.343 607.709L509.679 621.279L508.011 622.057L501.676 608.487ZM505.798 606.528L507.446 605.71L514.099 619.127L512.451 619.944L505.798 606.528ZM509.908 604.458L511.54 603.607L518.464 616.886L516.833 617.737L509.908 604.458ZM513.976 602.305L515.59 601.421L522.783 614.557L521.169 615.441L513.976 602.305ZM517.999 600.07L519.594 599.154L527.053 612.141L525.457 613.057L517.999 600.07ZM521.976 597.754L523.552 596.805L531.273 609.638L529.696 610.587L521.976 597.754ZM525.904 595.357L527.462 594.377L535.441 607.05L533.884 608.031L525.904 595.357ZM529.784 592.882L531.321 591.87L539.556 604.378L538.019 605.39L529.784 592.882ZM533.574 590.347L535.086 589.299L543.618 601.607L542.106 602.655L533.574 590.347ZM537.34 587.702L538.831 586.624L547.611 598.756L546.121 599.834L537.34 587.702ZM541.053 584.981L542.521 583.872L551.545 595.824L550.077 596.933L541.053 584.981ZM544.709 582.185L546.155 581.047L555.419 592.813L553.973 593.952L544.709 582.185ZM548.308 579.316L549.731 578.148L559.231 589.725L557.809 590.892L548.308 579.316ZM551.849 576.374L553.247 575.178L562.98 586.56L561.581 587.756L551.849 576.374ZM555.329 573.361L556.703 572.137L566.664 583.32L565.29 584.544L555.329 573.361ZM558.731 570.291L560.078 569.037L570.282 579.998L568.935 581.252L558.731 570.291ZM562.063 567.147L563.382 565.864L573.826 576.597L572.507 577.88L562.063 567.147ZM565.343 563.917L566.635 562.607L577.294 573.127L576.002 574.437L565.343 563.917ZM568.557 560.621L569.822 559.285L580.692 569.588L579.426 570.923L568.557 560.621ZM571.703 557.261L572.941 555.9L584.017 565.981L582.778 567.342L571.703 557.261ZM574.781 553.838L575.991 552.452L587.268 562.307L586.057 563.693L574.781 553.838ZM577.789 550.353L578.971 548.944L590.445 558.568L589.262 559.978L577.789 550.353ZM580.725 546.809L581.879 545.375L593.545 554.766L592.391 556.199L580.725 546.809ZM583.561 543.235L584.681 541.774L596.566 550.886L595.446 552.347L583.561 543.235ZM586.338 539.567L587.427 538.084L599.496 546.95L598.407 548.433L586.338 539.567ZM589.04 535.841L590.099 534.336L602.345 542.956L601.286 544.461L589.04 535.841ZM591.666 532.061L592.694 530.535L605.113 538.905L604.085 540.431L591.666 532.061ZM594.215 528.229L595.212 526.682L607.798 534.799L606.801 536.345L594.215 528.229ZM596.686 524.346L597.651 522.78L610.399 530.639L609.434 532.205L596.686 524.346ZM599.077 520.413L600.011 518.828L612.916 526.427L611.982 528.013L599.077 520.413ZM601.373 516.454L602.271 514.848L615.343 522.156L614.445 523.762L601.373 516.454ZM603.582 512.44L604.444 510.815L617.674 517.832L616.812 519.458L603.582 512.44ZM605.713 508.362L606.542 506.719L619.913 513.466L619.084 515.108L605.713 508.362ZM607.761 504.241L608.557 502.582L622.061 509.055L621.266 510.714L607.761 504.241ZM609.725 500.079L610.486 498.404L624.12 504.601L623.359 506.276L609.725 500.079ZM611.603 495.878L612.331 494.188L626.087 500.107L625.36 501.797L611.603 495.878ZM613.396 491.64L614.089 489.935L627.963 495.573L627.271 497.278L613.396 491.64ZM615.089 487.391L615.743 485.671L629.742 490.993L629.088 492.712L615.089 487.391ZM616.688 483.1L617.303 481.366L631.417 486.374L630.802 488.108L616.688 483.1ZM618.2 478.754L618.78 477.007L632.993 481.728L632.413 483.474L618.2 478.754ZM619.624 474.377L620.169 472.62L634.474 477.05L633.93 478.808L619.624 474.377ZM620.959 469.973L621.468 468.204L635.86 472.344L635.352 474.112L620.959 469.973ZM622.204 465.541L622.677 463.763L637.15 467.611L636.678 469.389L622.204 465.541ZM623.359 461.088L623.795 459.301L638.344 462.851L637.908 464.639L623.359 461.088ZM624.405 456.66L624.797 454.862L639.429 458.052L639.037 459.85L624.405 456.66ZM625.358 452.156L625.714 450.351L640.408 453.245L640.052 455.05L625.358 452.156ZM626.221 447.633L626.54 445.821L641.289 448.419L640.97 450.231L626.221 447.633ZM626.992 443.092L627.275 441.274L642.073 443.577L641.79 445.395L626.992 443.092ZM627.673 438.536L627.92 436.713L642.761 438.72L642.514 440.543L627.673 438.536ZM628.261 433.975L628.47 432.147L643.35 433.848L643.141 435.676L628.261 433.975ZM628.746 429.448L628.91 427.615L643.826 428.952L643.662 430.785L628.746 429.448ZM629.13 424.855L629.258 423.019L644.197 424.061L644.069 425.897L629.13 424.855ZM629.424 420.253L629.516 418.415L644.473 419.165L644.381 421.003L629.424 420.253ZM629.628 415.645L629.684 413.806L644.653 414.265L644.597 416.104L629.628 415.645ZM629.742 411.032L629.763 409.192L644.738 409.363L644.717 411.203L629.742 411.032ZM629.762 406.474L629.738 404.634L644.713 404.445L644.736 406.285L629.762 406.474ZM629.675 401.875L629.614 400.036L644.582 399.539L644.643 401.378L629.675 401.875ZM629.495 397.265L629.398 395.428L644.354 394.641L644.45 396.478L629.495 397.265ZM629.226 392.662L629.093 390.827L644.03 389.748L644.163 391.583L629.226 392.662ZM628.866 388.067L628.697 386.235L643.61 384.861L643.779 386.694L628.866 388.067ZM628.416 383.507L628.207 381.679L643.086 379.978L643.295 381.806L628.416 383.507ZM627.866 378.971L627.614 377.148L642.45 375.104L642.701 376.927L627.866 378.971ZM627.209 374.411L626.922 372.593L641.714 370.254L642.002 372.072L627.209 374.411ZM626.463 369.866L626.139 368.055L640.882 365.42L641.205 367.232L626.463 369.866ZM625.625 365.338L625.265 363.534L639.952 360.604L640.312 362.408L625.625 365.338ZM624.697 360.829L624.301 359.032L638.925 355.806L639.322 357.603L624.697 360.829ZM623.681 356.364L623.245 354.576L637.794 351.026L638.23 352.814L623.681 356.364ZM622.567 351.93L622.09 350.153L636.554 346.27L637.031 348.048L622.567 351.93ZM621.347 347.492L620.834 345.725L635.216 341.55L635.729 343.317L621.347 347.492ZM620.037 343.08L619.488 341.323L633.783 336.858L634.331 338.614L620.037 343.08ZM618.638 338.696L618.053 336.951L632.255 332.196L632.839 333.941L618.638 338.696ZM617.15 334.341L616.53 332.608L630.632 327.566L631.251 329.298L617.15 334.341ZM615.574 330.018L614.919 328.298L628.915 322.969L629.57 324.689L615.574 330.018ZM613.922 325.77L613.226 324.067L627.089 318.403L627.785 320.106L613.922 325.77ZM612.157 321.526L611.425 319.838L625.168 313.886L625.899 315.575L612.157 321.526ZM610.302 317.314L609.537 315.641L623.155 309.411L623.921 311.085L610.302 317.314ZM608.362 313.142L607.563 311.484L621.052 304.979L621.852 306.636L608.362 313.142ZM606.338 309.009L605.505 307.368L618.859 300.59L619.692 302.23L606.338 309.009ZM604.23 304.918L603.364 303.295L616.578 296.246L617.444 297.87L604.23 304.918ZM602.039 300.871L601.141 299.266L614.208 291.95L615.107 293.555L602.039 300.871ZM599.782 296.905L598.845 295.321L611.737 287.7L612.673 289.283L599.782 296.905ZM597.419 292.964L596.449 291.4L609.178 283.511L610.148 285.075L597.419 292.964ZM594.97 289.067L593.969 287.523L606.536 279.377L607.537 280.921L594.97 289.067ZM592.443 285.22L591.411 283.697L603.81 275.298L604.842 276.821L592.443 285.22ZM589.838 281.425L588.776 279.923L601.002 271.274L602.065 272.777L589.838 281.425ZM587.158 277.684L586.065 276.204L598.113 267.309L599.206 268.789L587.158 277.684ZM584.401 273.998L583.279 272.54L595.144 263.403L596.267 264.861L584.401 273.998ZM581.581 270.384L580.427 268.951L592.09 259.557L593.244 260.99L581.581 270.384ZM578.685 266.837L577.499 265.43L588.95 255.779L590.136 257.186L578.685 266.837ZM575.697 263.335L574.483 261.953L585.736 252.072L586.95 253.454L575.697 263.335ZM572.639 259.895L571.397 258.537L582.449 248.431L583.69 249.788L572.639 259.895ZM569.512 256.517L568.243 255.184L579.088 244.857L580.357 246.189L569.512 256.517ZM566.317 253.203L565.021 251.896L575.655 241.351L576.951 242.658L566.317 253.203ZM563.056 249.954L561.734 248.674L572.153 237.916L573.474 239.196L563.056 249.954ZM559.73 246.771L558.382 245.518L568.581 234.552L569.929 235.805L559.73 246.771ZM556.365 243.686L554.988 242.464L564.928 231.263L566.305 232.484L556.365 243.686ZM552.906 240.655L551.505 239.463L561.211 228.058L562.613 229.25L552.906 240.655ZM549.383 237.693L547.958 236.529L557.431 224.93L558.856 226.094L549.383 237.693ZM545.8 234.803L544.352 233.668L553.589 221.88L555.037 223.015L545.8 234.803ZM542.16 231.986L540.689 230.881L549.685 218.908L551.156 220.014L542.16 231.986ZM538.463 229.244L536.97 228.169L545.722 216.016L547.215 217.091L538.463 229.244ZM534.712 226.577L533.198 225.532L541.701 213.205L543.216 214.25L534.712 226.577ZM530.921 223.998L529.384 222.986L537.618 210.477L539.155 211.489L530.921 223.998ZM527.082 221.508L525.523 220.532L533.472 207.84L535.032 208.816L527.082 221.508ZM523.167 219.089L521.588 218.144L529.278 205.294L530.857 206.238L523.167 219.089ZM519.204 216.75L517.606 215.838L525.033 202.833L526.631 203.746L519.204 216.75ZM515.194 214.493L513.578 213.613L520.739 200.46L522.355 201.34L515.194 214.493ZM511.138 212.317L509.505 211.47L516.398 198.174L518.031 199.021L511.138 212.317ZM507.04 210.224L505.39 209.41L512.011 195.977L513.661 196.791L507.04 210.224ZM502.908 208.219L501.241 207.441L507.576 193.871L509.244 194.65L502.908 208.219ZM498.76 206.318L497.075 205.579L503.088 191.864L504.773 192.602L498.76 206.318ZM494.534 204.496L492.834 203.792L498.567 189.957L500.267 190.661L494.534 204.496ZM490.272 202.761L488.559 202.091L494.009 188.142L495.722 188.812L490.272 202.761ZM485.976 201.112L484.249 200.478L489.414 186.421L491.141 187.055L485.976 201.112ZM481.647 199.552L479.907 198.952L484.786 184.793L486.525 185.392L481.647 199.552ZM477.286 198.079L475.535 197.515L480.125 183.26L481.877 183.824L477.286 198.079ZM472.92 196.705L471.156 196.18L475.426 181.826L477.19 182.351L472.92 196.705ZM468.527 195.431L466.752 194.947L470.695 180.499L472.47 180.983L468.527 195.431ZM464.08 194.246L462.295 193.798L465.944 179.273L467.729 179.722L464.08 194.246ZM459.608 193.152L457.815 192.74L461.17 178.144L462.963 178.556L459.608 193.152ZM455.115 192.148L453.314 191.772L456.374 177.112L458.175 177.488L455.115 192.148ZM450.602 191.234L448.793 190.894L451.558 176.176L453.367 176.516L450.602 191.234ZM446.087 190.416L444.272 190.115L446.72 175.341L448.535 175.642L446.087 190.416ZM441.581 189.702L439.759 189.445L441.857 174.616L443.679 174.874L441.581 189.702ZM437.016 189.084L435.189 188.863L436.991 173.996L438.817 174.217L437.016 189.084ZM432.438 188.557L430.608 188.372L432.114 173.472L433.945 173.657L432.438 188.557ZM427.85 188.121L426.016 187.972L427.228 173.045L429.062 173.194L427.85 188.121ZM423.252 187.775L421.415 187.662L422.336 172.714L424.172 172.827L423.252 187.775ZM418.694 187.526L416.856 187.456L417.424 172.491L419.263 172.561L418.694 187.526ZM414.105 187.381L412.265 187.35L412.516 172.376L414.356 172.407L414.105 187.381Z" fill="#F5A020"/>
<path d="M419.589 377.525L419.116 377.836C419.055 377.876 418.982 377.893 418.911 377.883C418.839 377.873 418.774 377.837 418.727 377.782C418.198 377.165 417.787 376.476 417.494 375.716C417.417 375.517 417.484 375.402 417.695 375.372C418.106 375.311 418.396 374.923 418.42 374.504C418.471 373.663 418.054 373.191 417.168 373.089C417.132 373.084 417.099 373.067 417.076 373.039C417.053 373.011 417.042 372.976 417.044 372.94C417.099 372.081 417.285 371.252 417.604 370.452C417.627 370.392 417.67 370.365 417.733 370.371C417.913 370.386 418.088 370.413 418.258 370.45C419.057 370.621 419.604 370.087 419.507 369.283C419.475 369.028 419.284 368.826 419.153 368.616C419.095 368.522 419.105 368.436 419.184 368.359C419.802 367.758 420.52 367.321 421.338 367.046C421.397 367.026 421.448 367.039 421.492 367.084C421.776 367.383 421.858 367.716 422.236 367.865C423.318 368.288 423.68 367.598 423.921 366.691C423.94 366.623 423.984 366.591 424.055 366.595C424.93 366.643 425.768 366.841 426.572 367.189C426.635 367.217 426.659 367.265 426.645 367.332C426.575 367.662 426.415 367.989 426.506 368.31C426.786 369.315 427.676 369.163 428.363 368.681C428.395 368.659 428.433 368.649 428.472 368.654C428.51 368.659 428.545 368.678 428.571 368.707C429.146 369.369 429.609 370.104 429.961 370.911C429.97 370.932 429.974 370.955 429.974 370.978C429.973 371.001 429.968 371.023 429.958 371.044C429.948 371.065 429.934 371.083 429.916 371.097C429.898 371.112 429.878 371.122 429.856 371.128C428.473 371.487 428.813 373.473 430.175 373.445C430.205 373.444 430.234 373.45 430.262 373.462C430.289 373.474 430.313 373.491 430.333 373.513C430.353 373.535 430.369 373.561 430.378 373.59C430.387 373.618 430.39 373.648 430.386 373.677C430.286 374.53 430.075 375.351 429.753 376.14C429.727 376.204 429.681 376.228 429.613 376.212C428.86 376.03 428.025 376.016 427.901 376.987C427.848 377.399 428.08 377.709 428.332 378.018C428.375 378.07 428.371 378.12 428.321 378.166C427.662 378.789 426.904 379.252 426.047 379.555C426.018 379.565 425.987 379.564 425.959 379.551C425.932 379.538 425.911 379.515 425.9 379.487C425.755 379.085 425.489 378.803 425.103 378.639C425.037 378.61 424.995 378.631 424.978 378.702L418.764 403.06C418.761 403.072 418.763 403.086 418.77 403.097C418.777 403.108 418.788 403.116 418.8 403.119L428.047 405.526C428.111 405.542 428.135 405.583 428.119 405.647L426.807 410.722C426.804 410.734 426.796 410.743 426.786 410.749C426.776 410.755 426.764 410.757 426.753 410.754L412.304 407.009C412.235 406.992 412.21 406.948 412.227 406.88L419.706 377.607C419.709 377.592 419.708 377.577 419.703 377.562C419.697 377.548 419.688 377.535 419.675 377.526C419.662 377.518 419.648 377.513 419.632 377.513C419.617 377.512 419.602 377.517 419.589 377.525ZM426.849 373.292C426.849 372.46 426.519 371.663 425.932 371.075C425.345 370.487 424.549 370.156 423.719 370.156C422.888 370.156 422.092 370.487 421.505 371.075C420.918 371.663 420.588 372.46 420.588 373.292C420.588 374.123 420.918 374.92 421.505 375.508C422.092 376.096 422.888 376.427 423.719 376.427C424.549 376.427 425.345 376.096 425.932 375.508C426.519 374.92 426.849 374.123 426.849 373.292Z" fill="#050505"/>
<path d="M403.723 384.881L401.165 394.128C401.16 394.145 401.149 394.159 401.133 394.167C401.118 394.176 401.1 394.178 401.083 394.173L388.245 390.656C388.237 390.653 388.229 390.649 388.222 390.644C388.215 390.639 388.209 390.632 388.204 390.624C388.2 390.617 388.197 390.608 388.196 390.6C388.195 390.591 388.196 390.582 388.198 390.574L389.485 385.856C389.487 385.848 389.491 385.84 389.497 385.833C389.502 385.825 389.509 385.82 389.516 385.815C389.524 385.811 389.532 385.808 389.541 385.807C389.55 385.806 389.559 385.806 389.567 385.809L396.833 387.798C396.841 387.801 396.85 387.801 396.859 387.8C396.868 387.799 396.876 387.796 396.884 387.792C396.891 387.787 396.898 387.782 396.903 387.775C396.909 387.768 396.913 387.76 396.915 387.751L399.468 378.498C399.473 378.481 399.484 378.467 399.499 378.459C399.514 378.45 399.532 378.448 399.548 378.452L413.767 382.267C413.784 382.272 413.798 382.283 413.807 382.298C413.815 382.314 413.818 382.332 413.813 382.349L412.581 387.061C412.579 387.07 412.575 387.078 412.57 387.085C412.565 387.092 412.558 387.098 412.55 387.102C412.543 387.106 412.534 387.109 412.525 387.11C412.517 387.111 412.508 387.111 412.499 387.108L403.804 384.834C403.787 384.83 403.769 384.833 403.754 384.841C403.739 384.85 403.728 384.865 403.723 384.881Z" fill="#050505"/>
<path d="M430.193 395.977L439.412 398.486C439.433 398.492 439.45 398.506 439.461 398.524C439.472 398.543 439.475 398.565 439.47 398.586L435.729 412.803C435.723 412.824 435.709 412.841 435.691 412.852C435.672 412.863 435.65 412.866 435.629 412.861L430.946 411.659C430.936 411.656 430.926 411.652 430.917 411.645C430.908 411.638 430.901 411.63 430.896 411.621C430.89 411.611 430.886 411.601 430.885 411.59C430.884 411.579 430.884 411.568 430.887 411.558L433.116 402.87C433.121 402.849 433.118 402.827 433.108 402.809C433.097 402.79 433.079 402.776 433.059 402.771L423.838 400.257C423.817 400.252 423.8 400.238 423.789 400.219C423.778 400.201 423.775 400.179 423.78 400.158L427.233 387.317C427.239 387.296 427.253 387.279 427.271 387.268C427.29 387.257 427.312 387.254 427.333 387.259L432.028 388.52C432.049 388.526 432.066 388.54 432.077 388.558C432.088 388.577 432.091 388.599 432.085 388.62L430.136 395.877C430.13 395.898 430.133 395.92 430.144 395.939C430.155 395.957 430.172 395.971 430.193 395.977Z" fill="#050505"/>
<path d="M372.541 388.7C373.422 389.085 374.348 388.688 374.433 387.661C374.436 387.629 374.445 387.598 374.46 387.57C374.475 387.542 374.495 387.517 374.52 387.497C374.544 387.477 374.573 387.463 374.603 387.454C374.634 387.446 374.665 387.444 374.697 387.448C375.508 387.556 376.292 387.764 377.049 388.07C377.099 388.09 377.138 388.129 377.159 388.178C377.18 388.227 377.182 388.282 377.163 388.332C376.852 389.151 377.227 390.052 378.211 389.956C378.282 389.949 378.348 389.927 378.408 389.89L378.98 389.526C379.007 389.509 379.039 389.502 379.07 389.506C379.102 389.511 379.131 389.526 379.153 389.549C379.747 390.202 380.192 390.944 380.487 391.774C380.508 391.835 380.493 391.884 380.442 391.921C380.101 392.165 379.699 392.286 379.596 392.777C379.583 392.837 379.607 392.876 379.667 392.892L403.883 399.192C403.912 399.199 403.942 399.195 403.968 399.179C403.994 399.164 404.013 399.139 404.021 399.11L406.448 389.907C406.451 389.896 406.457 389.885 406.464 389.876C406.471 389.866 406.48 389.859 406.49 389.853C406.501 389.847 406.512 389.843 406.523 389.842C406.535 389.84 406.547 389.841 406.558 389.844L411.595 391.177C411.615 391.182 411.632 391.195 411.642 391.213C411.653 391.231 411.656 391.253 411.651 391.273L407.844 405.749C407.84 405.761 407.833 405.771 407.822 405.777C407.811 405.783 407.798 405.785 407.786 405.782L378.516 398.16C378.502 398.156 378.488 398.157 378.475 398.162C378.461 398.167 378.45 398.176 378.442 398.187C378.434 398.198 378.429 398.212 378.429 398.226C378.429 398.24 378.433 398.253 378.441 398.265L378.746 398.729C378.79 398.795 378.807 398.875 378.796 398.954C378.784 399.032 378.744 399.103 378.684 399.154C378.06 399.674 377.37 400.079 376.612 400.369C376.581 400.381 376.549 400.386 376.516 400.384C376.484 400.382 376.452 400.373 376.423 400.358C376.395 400.342 376.369 400.321 376.35 400.295C376.33 400.269 376.316 400.239 376.308 400.207C376.036 399.05 374.554 399.229 374.114 400.182C374.051 400.317 374.064 400.568 373.962 400.729C373.928 400.784 373.878 400.809 373.814 400.804C372.971 400.735 372.158 400.543 371.374 400.228C371.347 400.217 371.325 400.197 371.31 400.172C371.296 400.147 371.29 400.118 371.294 400.09C371.352 399.695 371.491 399.26 371.332 398.898C370.947 398.018 370.126 398.249 369.503 398.717C369.449 398.758 369.399 398.754 369.353 398.706C368.719 398.058 368.259 397.303 367.972 396.441C367.953 396.384 367.971 396.342 368.024 396.314C368.762 395.931 369.308 395.012 368.64 394.321C368.385 394.059 368.001 393.966 367.64 393.865C367.612 393.857 367.587 393.839 367.57 393.815C367.553 393.791 367.544 393.762 367.546 393.732C367.601 392.853 367.804 392.011 368.157 391.205C368.168 391.179 368.19 391.158 368.217 391.148C368.243 391.137 368.273 391.138 368.3 391.149C369.213 391.545 370.295 391.191 369.983 390C369.93 389.799 369.754 389.649 369.677 389.465C369.629 389.352 369.651 389.256 369.745 389.177C370.399 388.63 371.117 388.186 371.899 387.846C371.957 387.821 372.002 387.836 372.032 387.892L372.398 388.569C372.431 388.629 372.478 388.672 372.541 388.7ZM377.358 394.118C377.358 393.287 377.028 392.489 376.441 391.901C375.854 391.313 375.058 390.983 374.228 390.983C373.816 390.983 373.409 391.064 373.03 391.222C372.65 391.379 372.305 391.61 372.014 391.901C371.723 392.192 371.493 392.538 371.335 392.918C371.178 393.299 371.097 393.706 371.097 394.118C371.097 394.53 371.178 394.938 371.335 395.318C371.493 395.698 371.723 396.044 372.014 396.335C372.305 396.626 372.65 396.857 373.03 397.015C373.409 397.172 373.816 397.253 374.228 397.253C375.058 397.253 375.854 396.923 376.441 396.335C377.028 395.747 377.358 394.95 377.358 394.118Z" fill="#050505"/>
<path d="M379.399 418.374L383.253 404.198C383.256 404.187 383.261 404.177 383.268 404.168C383.274 404.159 383.283 404.152 383.292 404.146C383.302 404.141 383.312 404.137 383.323 404.136C383.334 404.135 383.345 404.135 383.356 404.138L388.028 405.383C388.049 405.389 388.067 405.403 388.079 405.422C388.09 405.441 388.093 405.464 388.088 405.485L385.792 414.15C385.79 414.16 385.789 414.171 385.79 414.182C385.792 414.193 385.795 414.204 385.801 414.213C385.806 414.223 385.814 414.231 385.822 414.238C385.831 414.245 385.841 414.25 385.852 414.253L395.034 416.839C395.055 416.845 395.073 416.86 395.084 416.879C395.095 416.898 395.097 416.921 395.092 416.942L391.534 429.753C391.528 429.775 391.513 429.793 391.494 429.803C391.475 429.814 391.452 429.817 391.431 429.811L386.757 428.508C386.736 428.502 386.718 428.488 386.707 428.468C386.696 428.449 386.693 428.426 386.699 428.405L388.703 421.171C388.709 421.149 388.706 421.127 388.696 421.107C388.685 421.088 388.667 421.074 388.646 421.068L379.456 418.478C379.435 418.471 379.417 418.457 379.406 418.438C379.396 418.419 379.393 418.396 379.399 418.374Z" fill="#050505"/>
<path d="M399.09 439.602L399.571 439.278C399.625 439.242 399.689 439.227 399.753 439.236C399.816 439.244 399.874 439.276 399.916 439.325C400.478 439.971 400.902 440.699 401.188 441.508C401.197 441.533 401.2 441.561 401.198 441.588C401.196 441.615 401.188 441.641 401.175 441.664C401.161 441.688 401.143 441.709 401.121 441.725C401.1 441.741 401.075 441.752 401.048 441.758C399.648 442.055 400.098 443.986 401.463 444.042C401.483 444.043 401.503 444.048 401.521 444.057C401.539 444.065 401.555 444.077 401.568 444.092C401.581 444.107 401.591 444.124 401.598 444.143C401.604 444.162 401.606 444.181 401.605 444.201C401.537 445.066 401.34 445.9 401.012 446.702C401.001 446.729 400.981 446.752 400.956 446.766C400.931 446.781 400.902 446.787 400.874 446.783C400.478 446.73 400.061 446.582 399.695 446.732C398.772 447.113 399.055 447.925 399.489 448.564C399.506 448.588 399.513 448.618 399.51 448.647C399.508 448.677 399.494 448.704 399.473 448.725C398.837 449.344 398.099 449.798 397.259 450.087C397.198 450.108 397.149 450.092 397.112 450.04C396.932 449.794 396.796 449.549 396.568 449.376C395.731 448.746 394.813 449.334 394.709 450.29C394.702 450.35 394.672 450.405 394.626 450.444C394.579 450.483 394.519 450.501 394.459 450.496C393.59 450.426 392.755 450.216 391.957 449.867C391.894 449.839 391.879 449.795 391.913 449.736C392.59 448.533 391.336 447.361 390.359 448.309C390.332 448.335 390.3 448.356 390.265 448.369C390.23 448.382 390.192 448.387 390.155 448.385C390.117 448.383 390.08 448.373 390.047 448.355C390.013 448.338 389.984 448.314 389.96 448.285C389.435 447.631 389 446.923 388.654 446.161C388.646 446.144 388.641 446.125 388.641 446.106C388.64 446.087 388.644 446.069 388.651 446.051C388.658 446.033 388.668 446.017 388.682 446.004C388.695 445.99 388.711 445.979 388.728 445.972C389.631 445.6 389.88 445.002 389.477 444.18C389.238 443.691 388.842 443.614 388.345 443.546C388.317 443.542 388.291 443.528 388.274 443.505C388.257 443.483 388.249 443.455 388.252 443.427C388.35 442.556 388.573 441.72 388.922 440.918C388.934 440.892 388.953 440.871 388.978 440.857C389.003 440.843 389.032 440.838 389.06 440.842C389.941 440.968 390.832 441.059 390.792 439.803C390.791 439.743 390.772 439.684 390.739 439.634L390.349 439.037C390.31 438.978 390.317 438.926 390.368 438.879C391.028 438.272 391.78 437.819 392.623 437.522C392.648 437.514 392.675 437.513 392.7 437.522C392.725 437.53 392.747 437.546 392.762 437.568C393.012 437.934 393.069 438.362 393.634 438.413C393.681 438.418 393.71 438.397 393.722 438.352L400.122 414.132C400.14 414.068 400.116 414.027 400.052 414.01L390.889 411.542C390.811 411.521 390.783 411.471 390.804 411.392L392.142 406.405C392.145 406.393 392.15 406.382 392.158 406.372C392.166 406.362 392.175 406.354 392.186 406.348C392.197 406.342 392.209 406.338 392.221 406.336C392.234 406.335 392.246 406.336 392.258 406.339L406.678 410.202C406.691 410.206 406.702 410.214 406.709 410.226C406.716 410.238 406.718 410.252 406.715 410.265L398.983 439.526C398.979 439.539 398.98 439.554 398.985 439.568C398.989 439.581 398.998 439.593 399.01 439.601C399.021 439.61 399.035 439.614 399.05 439.615C399.064 439.615 399.078 439.611 399.09 439.602ZM398.05 443.81C398.05 442.978 397.721 442.181 397.133 441.593C396.546 441.005 395.75 440.675 394.92 440.675C394.09 440.675 393.293 441.005 392.706 441.593C392.119 442.181 391.789 442.978 391.789 443.81C391.789 444.641 392.119 445.439 392.706 446.027C393.293 446.615 394.09 446.945 394.92 446.945C395.75 446.945 396.546 446.615 397.133 446.027C397.721 445.439 398.05 444.641 398.05 443.81Z" fill="#050505"/>
<path d="M439.247 424.181L415.087 417.926C415.066 417.921 415.043 417.924 415.023 417.935C415.004 417.946 414.99 417.964 414.985 417.985L412.557 427.223C412.551 427.244 412.537 427.262 412.518 427.272C412.5 427.283 412.477 427.286 412.456 427.281L407.442 425.96C407.371 425.942 407.344 425.897 407.363 425.826L411.13 411.441C411.134 411.427 411.14 411.414 411.149 411.402C411.158 411.391 411.169 411.381 411.181 411.374C411.194 411.367 411.207 411.362 411.222 411.36C411.236 411.358 411.251 411.359 411.264 411.363L440.447 418.923C440.46 418.927 440.474 418.927 440.487 418.923C440.5 418.919 440.512 418.912 440.521 418.902C440.531 418.893 440.537 418.88 440.54 418.867C440.543 418.854 440.542 418.84 440.538 418.827C440.425 418.466 439.893 418.267 440.395 417.867C440.995 417.388 441.676 417.002 442.439 416.707C442.464 416.698 442.49 416.694 442.516 416.696C442.542 416.698 442.568 416.706 442.591 416.719C442.613 416.732 442.633 416.75 442.648 416.771C442.663 416.793 442.673 416.817 442.678 416.843C442.758 417.313 443.117 417.64 443.602 417.669C444.368 417.718 444.838 417.3 445.011 416.415C445.019 416.379 445.039 416.346 445.068 416.323C445.097 416.3 445.133 416.289 445.17 416.291C446.026 416.343 446.849 416.534 447.64 416.866C447.698 416.89 447.722 416.934 447.711 416.997C447.579 417.762 447.453 418.677 448.506 418.787C448.908 418.829 449.18 418.602 449.49 418.368C449.515 418.348 449.547 418.339 449.579 418.342C449.61 418.344 449.64 418.359 449.661 418.382C450.266 419.026 450.721 419.762 451.028 420.591C451.04 420.624 451.04 420.659 451.028 420.691C451.016 420.723 450.992 420.75 450.962 420.766C449.748 421.391 449.729 423.002 451.266 423.159C451.317 423.164 451.365 423.189 451.399 423.228C451.433 423.268 451.45 423.319 451.447 423.37C451.399 424.227 451.205 425.05 450.864 425.838C450.853 425.865 450.832 425.888 450.806 425.902C450.779 425.916 450.749 425.921 450.72 425.915C450.381 425.85 450.08 425.676 449.748 425.768C448.709 426.06 448.904 426.965 449.361 427.684C449.397 427.741 449.39 427.792 449.338 427.838C448.679 428.419 447.944 428.881 447.134 429.223C447.113 429.232 447.09 429.236 447.067 429.236C447.044 429.235 447.022 429.229 447.001 429.219C446.981 429.209 446.962 429.195 446.948 429.177C446.933 429.159 446.922 429.139 446.916 429.116C446.544 427.766 444.698 428.021 444.586 429.427C444.584 429.457 444.576 429.487 444.562 429.513C444.548 429.54 444.529 429.564 444.505 429.583C444.482 429.602 444.455 429.617 444.426 429.625C444.397 429.634 444.367 429.637 444.337 429.633C443.499 429.539 442.694 429.328 441.921 428.999C441.861 428.974 441.834 428.929 441.843 428.865C441.888 428.519 442.038 428.161 441.919 427.838C441.743 427.357 441.399 427.123 440.889 427.136C440.543 427.143 440.297 427.408 439.997 427.578C439.976 427.589 439.952 427.593 439.929 427.59C439.905 427.586 439.884 427.574 439.868 427.557C439.27 426.893 438.817 426.14 438.51 425.297C438.5 425.269 438.501 425.239 438.512 425.212C438.523 425.186 438.543 425.164 438.569 425.152C438.884 425 439.149 424.794 439.363 424.533C439.386 424.505 439.402 424.471 439.409 424.434C439.416 424.398 439.413 424.361 439.402 424.325C439.39 424.29 439.37 424.258 439.343 424.233C439.316 424.208 439.283 424.19 439.247 424.181ZM447.903 422.967C447.903 422.555 447.822 422.147 447.665 421.767C447.507 421.387 447.277 421.041 446.986 420.75C446.695 420.459 446.35 420.228 445.971 420.07C445.591 419.913 445.184 419.832 444.773 419.832C443.942 419.832 443.146 420.162 442.559 420.75C441.972 421.338 441.642 422.135 441.642 422.967C441.642 423.798 441.972 424.596 442.559 425.184C443.146 425.771 443.942 426.102 444.773 426.102C445.184 426.102 445.591 426.021 445.971 425.863C446.35 425.706 446.695 425.475 446.986 425.184C447.277 424.892 447.507 424.547 447.665 424.166C447.822 423.786 447.903 423.378 447.903 422.967Z" fill="#050505"/>
<path d="M422.106 429.351L419.549 438.625C419.547 438.632 419.544 438.639 419.54 438.644C419.536 438.65 419.53 438.655 419.524 438.658C419.518 438.662 419.511 438.664 419.504 438.665C419.497 438.666 419.49 438.666 419.483 438.664L405.245 434.865C405.238 434.863 405.231 434.86 405.226 434.856C405.22 434.851 405.215 434.846 405.212 434.84C405.208 434.834 405.206 434.827 405.205 434.82C405.204 434.813 405.204 434.806 405.206 434.799L406.436 430.059C406.438 430.052 406.441 430.045 406.445 430.04C406.449 430.034 406.455 430.029 406.461 430.026C406.467 430.022 406.474 430.02 406.481 430.019C406.488 430.018 406.495 430.018 406.502 430.02L415.224 432.289C415.238 432.293 415.252 432.291 415.265 432.284C415.277 432.277 415.286 432.266 415.29 432.252L417.847 422.98C417.849 422.973 417.852 422.966 417.856 422.961C417.861 422.955 417.866 422.95 417.872 422.947C417.878 422.943 417.885 422.941 417.892 422.94C417.899 422.939 417.906 422.939 417.913 422.941L430.777 426.448C430.784 426.45 430.791 426.453 430.796 426.458C430.802 426.462 430.807 426.467 430.81 426.474C430.814 426.48 430.816 426.487 430.817 426.494C430.818 426.501 430.817 426.508 430.816 426.515L429.527 431.262C429.525 431.269 429.522 431.275 429.517 431.281C429.513 431.287 429.508 431.291 429.502 431.295C429.495 431.299 429.489 431.301 429.482 431.302C429.475 431.303 429.467 431.302 429.461 431.3L422.172 429.313C422.165 429.311 422.158 429.31 422.151 429.311C422.144 429.312 422.137 429.315 422.131 429.318C422.125 429.322 422.12 429.327 422.115 429.332C422.111 429.338 422.108 429.344 422.106 429.351Z" fill="#050505"/>
<defs>
<filter id="filter0_f_85_1347" x="99.411" y="99.411" width="619.178" height="619.178" filterUnits="userSpaceOnUse" color-interpolation-filters="sRGB">
<feFlood flood-opacity="0" result="BackgroundImageFix"/>
<feBlend mode="normal" in="SourceGraphic" in2="BackgroundImageFix" result="shape"/>
<feGaussianBlur stdDeviation="4.7" result="effect1_foregroundBlur_85_1347"/>
</filter>
<filter id="filter1_f_85_1347" x="327.74" y="326.961" width="163.293" height="163.293" filterUnits="userSpaceOnUse" color-interpolation-filters="sRGB">
<feFlood flood-opacity="0" result="BackgroundImageFix"/>
<feBlend mode="normal" in="SourceGraphic" in2="BackgroundImageFix" result="shape"/>
<feGaussianBlur stdDeviation="5.65" result="effect1_foregroundBlur_85_1347"/>
</filter>
</defs>
</svg>
