<svg width="360" height="360" viewBox="0 0 360 360" fill="none" xmlns="http://www.w3.org/2000/svg">
<path d="M223.303 46.8317L221.275 48.1637C221.014 48.3349 220.701 48.4058 220.393 48.3631C220.086 48.3204 219.806 48.167 219.606 47.9318C217.337 45.2877 215.573 42.3368 214.316 39.0791C213.987 38.2261 214.273 37.7347 215.176 37.605C216.942 37.343 218.185 35.6818 218.289 33.8858C218.509 30.2839 216.718 28.2634 212.917 27.8244C212.763 27.8055 212.622 27.729 212.523 27.6107C212.424 27.4924 212.375 27.3412 212.385 27.1883C212.62 23.5066 213.42 19.9521 214.787 16.5248C214.887 16.2704 215.072 16.1556 215.341 16.1806C216.114 16.2454 216.865 16.3577 217.593 16.5173C221.021 17.2507 223.371 14.9608 222.951 11.5185C222.817 10.426 221.994 9.55793 221.432 8.65995C221.183 8.25586 221.228 7.88918 221.567 7.55992C224.216 4.9857 227.297 3.10992 230.809 1.93257C231.063 1.84776 231.283 1.90263 231.467 2.0972C232.687 3.37682 233.039 4.8061 234.663 5.44217C239.302 7.25311 240.859 4.29726 241.891 0.413478C241.971 0.119139 242.163 -0.0180547 242.468 0.00190047C246.219 0.206441 249.819 1.05453 253.266 2.54618C253.535 2.66591 253.64 2.87046 253.58 3.15981C253.281 4.57413 252.592 5.97348 252.982 7.35039C254.186 11.6532 258.003 11.0022 260.951 8.93684C261.087 8.84282 261.254 8.80229 261.418 8.82299C261.582 8.8437 261.733 8.92419 261.842 9.04908C264.311 11.8877 266.299 15.0356 267.806 18.4929C267.845 18.5833 267.864 18.6811 267.862 18.7796C267.86 18.878 267.837 18.9746 267.794 19.0628C267.752 19.1511 267.69 19.2288 267.615 19.2906C267.539 19.3524 267.451 19.3968 267.357 19.4208C261.423 20.9623 262.882 29.4707 268.726 29.351C268.854 29.348 268.98 29.3724 269.098 29.4226C269.215 29.4728 269.32 29.5476 269.406 29.642C269.492 29.7364 269.556 29.8481 269.595 29.9696C269.634 30.0911 269.647 30.2196 269.632 30.3463C269.203 33.9981 268.297 37.5152 266.915 40.8976C266.805 41.1719 266.606 41.2742 266.317 41.2044C263.084 40.4261 259.499 40.3663 258.968 44.5269C258.744 46.2929 259.739 47.6175 260.816 48.942C261.001 49.1665 260.986 49.3785 260.772 49.5781C257.943 52.2471 254.69 54.2301 251.013 55.5272C250.89 55.5712 250.755 55.5652 250.637 55.5105C250.519 55.4558 250.428 55.3568 250.385 55.2354C249.761 53.5142 248.621 52.3044 246.965 51.606C246.681 51.4813 246.501 51.5711 246.426 51.8754L219.764 156.236C219.751 156.289 219.76 156.346 219.789 156.394C219.818 156.441 219.866 156.476 219.921 156.49L259.597 166.802C259.871 166.872 259.973 167.044 259.903 167.319L254.276 189.065C254.262 189.114 254.229 189.156 254.186 189.181C254.142 189.206 254.092 189.213 254.044 189.199L192.046 173.156C191.752 173.081 191.642 172.896 191.717 172.602L223.805 47.1834C223.82 47.1192 223.816 47.0519 223.792 46.9901C223.769 46.9283 223.728 46.875 223.673 46.8371C223.619 46.7992 223.555 46.7784 223.489 46.7774C223.423 46.7765 223.358 46.7954 223.303 46.8317ZM254.456 28.6925C254.456 25.13 253.04 21.7134 250.521 19.1944C248.002 16.6753 244.586 15.2601 241.023 15.2601C237.461 15.2601 234.044 16.6753 231.525 19.1944C229.006 21.7134 227.591 25.13 227.591 28.6925C227.591 32.2549 229.006 35.6715 231.525 38.1906C234.044 40.7096 237.461 42.1248 241.023 42.1248C244.586 42.1248 248.002 40.7096 250.521 38.1906C253.04 35.6715 254.456 32.2549 254.456 28.6925Z" fill="#FFA800" fill-opacity="0.9"/>
<path d="M155.229 78.3457L144.251 117.962C144.23 118.034 144.181 118.095 144.115 118.132C144.05 118.168 143.972 118.177 143.899 118.156L88.8156 103.085C88.779 103.076 88.7448 103.059 88.7148 103.036C88.6848 103.013 88.6596 102.984 88.6408 102.952C88.622 102.919 88.6099 102.883 88.6052 102.845C88.6005 102.808 88.6034 102.77 88.6135 102.733L94.1361 82.5214C94.1457 82.4848 94.1624 82.4506 94.1853 82.4206C94.2082 82.3906 94.2369 82.3654 94.2696 82.3466C94.3024 82.3278 94.3385 82.3157 94.376 82.311C94.4135 82.3063 94.4515 82.3092 94.4878 82.3193L125.663 90.8427C125.699 90.8528 125.737 90.8557 125.775 90.851C125.812 90.8463 125.848 90.8342 125.881 90.8154C125.914 90.7966 125.942 90.7714 125.965 90.7414C125.988 90.7114 126.005 90.6772 126.015 90.6406L136.97 50.9947C136.991 50.9239 137.038 50.8641 137.103 50.8278C137.167 50.7915 137.243 50.7815 137.314 50.8001L198.325 67.1434C198.397 67.1643 198.458 67.213 198.495 67.279C198.531 67.3449 198.54 67.4227 198.519 67.4951L193.236 87.6848C193.227 87.7213 193.21 87.7556 193.187 87.7856C193.164 87.8156 193.135 87.8407 193.103 87.8595C193.07 87.8783 193.034 87.8904 192.996 87.8951C192.959 87.8998 192.921 87.897 192.884 87.8868L155.573 78.1437C155.501 78.1254 155.424 78.1364 155.36 78.1742C155.295 78.212 155.248 78.2736 155.229 78.3457Z" fill="#FFA800" fill-opacity="0.9"/>
<path d="M268.804 125.885L308.36 136.639C308.449 136.663 308.524 136.722 308.57 136.801C308.617 136.881 308.63 136.976 308.607 137.065L292.555 197.978C292.531 198.067 292.472 198.143 292.392 198.189C292.313 198.235 292.218 198.248 292.129 198.225L272.036 193.077C271.991 193.065 271.948 193.045 271.911 193.017C271.873 192.989 271.842 192.954 271.818 192.913C271.794 192.873 271.779 192.828 271.773 192.782C271.766 192.735 271.77 192.688 271.782 192.643L281.345 155.421C281.368 155.332 281.355 155.237 281.309 155.158C281.263 155.078 281.187 155.019 281.098 154.995L241.535 144.227C241.446 144.202 241.37 144.144 241.324 144.064C241.278 143.984 241.265 143.889 241.288 143.8L256.105 88.7835C256.129 88.6947 256.188 88.619 256.267 88.5728C256.347 88.5267 256.442 88.5136 256.531 88.5366L276.676 93.9394C276.765 93.964 276.84 94.0225 276.887 94.1022C276.933 94.182 276.946 94.2767 276.923 94.366L268.557 125.459C268.534 125.548 268.547 125.643 268.593 125.722C268.639 125.802 268.715 125.861 268.804 125.885Z" fill="#FFA800" fill-opacity="0.9"/>
<path d="M21.433 94.712C25.212 96.3583 29.1856 94.6596 29.5522 90.2595C29.5633 90.1234 29.6018 89.991 29.6654 89.8704C29.7291 89.7498 29.8164 89.6435 29.9222 89.558C30.028 89.4725 30.15 89.4097 30.2807 89.3733C30.4114 89.337 30.548 89.3278 30.6822 89.3466C34.1644 89.8105 37.5293 90.6985 40.777 92.0106C40.9886 92.0971 41.1579 92.263 41.2488 92.4728C41.3397 92.6825 41.3449 92.9195 41.2634 93.133C39.9314 96.6427 41.5403 100.504 45.7608 100.092C46.0651 100.062 46.347 99.9677 46.6064 99.8081L49.0609 98.2516C49.1763 98.1786 49.3136 98.1483 49.4489 98.1661C49.5843 98.1839 49.7091 98.2485 49.8018 98.3488C52.351 101.148 54.2592 104.325 55.5264 107.882C55.6162 108.142 55.5513 108.351 55.3318 108.511C53.8726 109.559 52.144 110.075 51.7025 112.178C51.6476 112.437 51.7499 112.602 52.0093 112.672L155.913 139.664C156.037 139.695 156.169 139.676 156.279 139.61C156.39 139.544 156.471 139.437 156.505 139.312L166.921 99.8829C166.934 99.8341 166.957 99.7884 166.988 99.7483C167.018 99.7083 167.057 99.6748 167.101 99.6497C167.145 99.6247 167.193 99.6086 167.243 99.6024C167.293 99.5961 167.344 99.5999 167.393 99.6135L189.004 105.323C189.089 105.346 189.162 105.401 189.207 105.478C189.251 105.555 189.265 105.647 189.244 105.735L172.908 167.755C172.894 167.807 172.86 167.851 172.814 167.878C172.767 167.904 172.712 167.911 172.661 167.898L47.0704 135.241C47.0116 135.227 46.9497 135.231 46.8929 135.252C46.836 135.273 46.7869 135.31 46.752 135.359C46.7171 135.407 46.6981 135.465 46.6975 135.524C46.6969 135.583 46.7147 135.641 46.7486 135.69L48.0582 137.681C48.2442 137.965 48.3195 138.308 48.2698 138.643C48.2201 138.978 48.0489 139.283 47.7888 139.499C45.1148 141.729 42.1514 143.465 38.8987 144.707C38.7687 144.758 38.6293 144.78 38.4899 144.771C38.3506 144.762 38.2145 144.724 38.091 144.658C37.9675 144.592 37.8595 144.5 37.7742 144.388C37.6889 144.277 37.6283 144.148 37.5967 144.011C36.4293 139.057 30.0686 139.821 28.1828 143.907C27.9134 144.483 27.9658 145.56 27.5318 146.249C27.3821 146.483 27.1701 146.59 26.8957 146.571C23.2788 146.276 19.7892 145.453 16.4267 144.101C16.3113 144.054 16.2148 143.97 16.1525 143.863C16.0902 143.756 16.0655 143.632 16.0825 143.51C16.3294 141.819 16.9281 139.955 16.2471 138.406C14.5933 134.635 11.0687 135.623 8.39724 137.628C8.16776 137.803 7.95324 137.788 7.75369 137.583C5.0348 134.804 3.05922 131.569 1.82699 127.878C1.74717 127.633 1.822 127.451 2.05149 127.331C5.21688 125.692 7.55912 121.756 4.69305 118.793C3.60051 117.67 1.95421 117.274 0.405188 116.84C0.282581 116.804 0.175722 116.729 0.102256 116.625C0.0287902 116.522 -0.00688612 116.397 0.00110009 116.271C0.235574 112.505 1.10861 108.895 2.62022 105.443C2.671 105.331 2.76361 105.243 2.87826 105.198C2.99292 105.153 3.12054 105.155 3.23383 105.203C7.15503 106.902 11.7946 105.383 10.4551 100.28C10.2306 99.4189 9.47482 98.7754 9.14556 97.9897C8.93604 97.5057 9.03332 97.0942 9.43741 96.7549C12.2411 94.4102 15.3217 92.5094 18.6791 91.0527C18.9286 90.943 19.1182 91.0078 19.2479 91.2473L20.8193 94.1508C20.959 94.4052 21.1636 94.5923 21.433 94.712ZM42.1015 117.925C42.1015 114.362 40.6864 110.946 38.1673 108.427C35.6483 105.908 32.2317 104.493 28.6692 104.493C26.9053 104.493 25.1586 104.84 23.5289 105.515C21.8992 106.19 20.4184 107.179 19.1711 108.427C17.9238 109.674 16.9344 111.155 16.2594 112.785C15.5843 114.414 15.2369 116.161 15.2369 117.925C15.2369 119.689 15.5843 121.436 16.2594 123.065C16.9344 124.695 17.9238 126.176 19.1711 127.423C20.4184 128.67 21.8992 129.66 23.5289 130.335C25.1586 131.01 26.9053 131.357 28.6692 131.357C32.2317 131.357 35.6483 129.942 38.1673 127.423C40.6864 124.904 42.1015 121.487 42.1015 117.925Z" fill="#FFA800" fill-opacity="0.9"/>
<path d="M50.8579 221.85L67.3957 161.108C67.4079 161.063 67.429 161.02 67.4578 160.982C67.4866 160.945 67.5225 160.913 67.5635 160.889C67.6046 160.866 67.6499 160.85 67.6969 160.844C67.7438 160.838 67.7915 160.842 67.8372 160.854L87.8847 166.19C87.9755 166.214 88.053 166.273 88.1006 166.355C88.1482 166.436 88.162 166.532 88.1391 166.624L78.2912 203.748C78.2788 203.793 78.2755 203.841 78.2816 203.888C78.2877 203.935 78.303 203.98 78.3266 204.021C78.3503 204.062 78.3818 204.098 78.4194 204.127C78.457 204.156 78.4999 204.177 78.5457 204.189L117.945 215.272C118.036 215.298 118.113 215.359 118.159 215.442C118.205 215.524 118.217 215.622 118.192 215.713L102.926 270.603C102.9 270.694 102.839 270.771 102.756 270.817C102.673 270.863 102.576 270.875 102.484 270.85L82.4294 265.267C82.3384 265.241 82.2613 265.18 82.2151 265.097C82.1688 265.014 82.1571 264.917 82.1825 264.826L90.7807 233.83C90.8061 233.739 90.7944 233.641 90.7481 233.559C90.7019 233.476 90.6248 233.415 90.5338 233.389L51.1048 222.291C51.0137 222.265 50.9367 222.204 50.8904 222.121C50.8442 222.038 50.8325 221.941 50.8579 221.85Z" fill="#FFA800" fill-opacity="0.9"/>
<path d="M135.347 312.798L137.412 311.406C137.641 311.254 137.918 311.19 138.191 311.227C138.464 311.264 138.714 311.4 138.894 311.608C141.303 314.377 143.122 317.495 144.349 320.962C144.388 321.072 144.403 321.188 144.393 321.304C144.383 321.419 144.349 321.532 144.292 321.633C144.235 321.734 144.158 321.822 144.064 321.891C143.971 321.96 143.864 322.008 143.75 322.032C137.741 323.305 139.672 331.581 145.531 331.82C145.617 331.824 145.701 331.845 145.778 331.882C145.855 331.918 145.924 331.97 145.981 332.034C146.038 332.097 146.081 332.171 146.107 332.252C146.134 332.332 146.145 332.417 146.137 332.501C145.848 336.208 145 339.78 143.593 343.217C143.546 343.333 143.462 343.429 143.355 343.492C143.248 343.554 143.124 343.578 143.002 343.562C141.303 343.337 139.515 342.701 137.943 343.344C133.985 344.976 135.197 348.456 137.06 351.194C137.132 351.299 137.164 351.425 137.152 351.551C137.139 351.677 137.083 351.794 136.993 351.883C134.264 354.537 131.096 356.482 127.489 357.72C127.23 357.81 127.02 357.742 126.861 357.518C126.09 356.463 125.506 355.415 124.526 354.674C120.934 351.973 116.998 354.494 116.549 358.588C116.52 358.847 116.392 359.084 116.192 359.249C115.992 359.414 115.736 359.494 115.479 359.471C111.747 359.171 108.168 358.273 104.74 356.777C104.471 356.657 104.409 356.47 104.553 356.216C107.457 351.06 102.076 346.038 97.8858 350.102C97.7705 350.214 97.633 350.301 97.4819 350.357C97.3308 350.413 97.1696 350.437 97.0084 350.427C96.8472 350.417 96.6896 350.374 96.5456 350.3C96.4017 350.226 96.2745 350.123 96.1722 349.997C93.9222 347.198 92.0539 344.165 90.5673 340.898C90.5333 340.824 90.5147 340.745 90.5125 340.664C90.5104 340.583 90.5248 340.502 90.5549 340.427C90.5849 340.351 90.63 340.283 90.6875 340.225C90.7449 340.167 90.8135 340.121 90.8891 340.089C94.7604 338.493 95.8305 335.934 94.0994 332.412C93.0742 330.316 91.3755 329.987 89.2428 329.695C89.1223 329.678 89.0132 329.615 88.939 329.52C88.8648 329.425 88.8315 329.305 88.8462 329.186C89.2652 325.455 90.2231 321.87 91.7197 318.433C91.7689 318.323 91.8532 318.232 91.9599 318.174C92.0666 318.115 92.1899 318.094 92.3109 318.111C96.0899 318.65 99.9138 319.039 99.7417 313.659C99.737 313.4 99.6591 313.148 99.5172 312.933L97.841 310.374C97.6763 310.124 97.7037 309.9 97.9233 309.7C100.757 307.096 103.982 305.158 107.599 303.886C107.706 303.849 107.823 303.848 107.931 303.883C108.039 303.918 108.132 303.987 108.198 304.08C109.268 305.652 109.515 307.485 111.939 307.702C112.139 307.722 112.264 307.635 112.313 307.44L139.777 203.671C139.852 203.396 139.752 203.222 139.477 203.147L100.161 192.573C99.8265 192.483 99.7043 192.269 99.7941 191.93L105.534 170.565C105.548 170.513 105.572 170.465 105.604 170.422C105.637 170.38 105.678 170.344 105.725 170.318C105.771 170.291 105.823 170.274 105.876 170.268C105.929 170.262 105.983 170.266 106.035 170.281L167.906 186.834C167.962 186.847 168.01 186.883 168.039 186.934C168.069 186.984 168.077 187.045 168.063 187.103L134.89 312.469C134.873 312.528 134.875 312.591 134.895 312.649C134.916 312.707 134.953 312.758 135.003 312.794C135.053 312.829 135.113 312.849 135.174 312.85C135.236 312.851 135.296 312.833 135.347 312.798ZM130.887 330.825C130.887 327.263 129.472 323.846 126.952 321.327C124.433 318.808 121.017 317.393 117.454 317.393C113.892 317.393 110.475 318.808 107.956 321.327C105.437 323.846 104.022 327.263 104.022 330.825C104.022 334.388 105.437 337.804 107.956 340.323C110.475 342.842 113.892 344.257 117.454 344.257C121.017 344.257 124.433 342.842 126.952 340.323C129.472 337.804 130.887 334.388 130.887 330.825Z" fill="#FFA800" fill-opacity="0.9"/>
<path d="M307.654 246.724L203.989 219.927C203.896 219.904 203.797 219.917 203.714 219.965C203.632 220.012 203.572 220.09 203.548 220.181L193.131 259.76C193.107 259.849 193.048 259.925 192.967 259.972C192.885 260.018 192.789 260.031 192.697 260.007L171.183 254.35C170.879 254.27 170.766 254.078 170.846 253.774L187.01 192.142C187.026 192.082 187.053 192.026 187.09 191.976C187.128 191.927 187.175 191.885 187.228 191.854C187.282 191.823 187.341 191.802 187.402 191.794C187.464 191.786 187.526 191.789 187.586 191.805L312.802 224.2C312.858 224.215 312.918 224.215 312.973 224.199C313.029 224.183 313.08 224.152 313.12 224.11C313.16 224.068 313.187 224.016 313.2 223.959C313.213 223.903 313.21 223.844 313.192 223.788C312.705 222.239 310.423 221.386 312.578 219.673C315.152 217.622 318.076 215.966 321.348 214.704C321.454 214.663 321.567 214.647 321.679 214.656C321.792 214.664 321.901 214.697 321.999 214.753C322.097 214.809 322.181 214.886 322.246 214.978C322.311 215.071 322.354 215.176 322.373 215.287C322.718 217.3 324.259 218.7 326.339 218.827C329.627 219.037 331.643 217.246 332.386 213.454C332.417 213.297 332.503 213.157 332.628 213.059C332.753 212.961 332.909 212.913 333.067 212.923C336.739 213.142 340.271 213.963 343.663 215.385C343.912 215.49 344.015 215.677 343.97 215.946C343.401 219.224 342.862 223.145 347.382 223.616C349.103 223.796 350.271 222.823 351.603 221.82C351.711 221.736 351.847 221.696 351.983 221.707C352.119 221.718 352.245 221.78 352.336 221.88C354.93 224.639 356.886 227.794 358.203 231.346C358.255 231.484 358.254 231.636 358.202 231.774C358.15 231.912 358.049 232.026 357.919 232.095C352.71 234.774 352.628 241.673 359.221 242.347C359.443 242.37 359.648 242.476 359.793 242.645C359.938 242.814 360.011 243.031 359.999 243.252C359.794 246.924 358.961 250.448 357.499 253.826C357.449 253.943 357.36 254.04 357.247 254.1C357.134 254.16 357.004 254.179 356.878 254.155C355.427 253.878 354.132 253.13 352.71 253.527C348.25 254.776 349.088 258.653 351.049 261.736C351.204 261.98 351.171 262.2 350.952 262.394C348.123 264.884 344.97 266.862 341.493 268.328C341.403 268.367 341.305 268.385 341.207 268.383C341.109 268.38 341.013 268.356 340.924 268.313C340.836 268.27 340.757 268.208 340.694 268.132C340.631 268.056 340.584 267.967 340.558 267.872C338.964 262.087 331.039 263.18 330.56 269.204C330.551 269.333 330.516 269.458 330.456 269.573C330.397 269.688 330.315 269.79 330.215 269.872C330.115 269.954 329.999 270.016 329.875 270.053C329.75 270.09 329.619 270.101 329.49 270.087C325.898 269.683 322.443 268.777 319.126 267.371C318.866 267.261 318.754 267.069 318.789 266.794C318.983 265.313 319.627 263.779 319.118 262.394C318.36 260.334 316.886 259.331 314.696 259.386C313.214 259.416 312.159 260.553 310.872 261.279C310.782 261.328 310.678 261.346 310.578 261.33C310.477 261.314 310.386 261.264 310.318 261.189C307.749 258.346 305.806 255.118 304.489 251.506C304.448 251.388 304.451 251.26 304.498 251.145C304.545 251.031 304.632 250.938 304.743 250.885C306.095 250.236 307.23 249.353 308.148 248.236C308.248 248.113 308.316 247.968 308.346 247.812C308.375 247.656 308.365 247.495 308.315 247.345C308.266 247.194 308.18 247.058 308.064 246.95C307.949 246.841 307.807 246.764 307.654 246.724ZM344.793 241.524C344.793 239.76 344.446 238.013 343.771 236.383C343.095 234.754 342.106 233.273 340.859 232.025C339.611 230.778 338.131 229.789 336.501 229.114C334.871 228.439 333.125 228.091 331.361 228.091C327.798 228.091 324.382 229.506 321.863 232.025C319.344 234.545 317.928 237.961 317.928 241.524C317.928 245.086 319.344 248.503 321.863 251.022C324.382 253.541 327.798 254.956 331.361 254.956C333.125 254.956 334.871 254.608 336.501 253.933C338.131 253.258 339.611 252.269 340.859 251.022C342.106 249.774 343.095 248.294 343.771 246.664C344.446 245.034 344.793 243.287 344.793 241.524Z" fill="#FFA800" fill-opacity="0.9"/>
<path d="M234.103 268.88L223.133 308.616C223.125 308.645 223.111 308.673 223.093 308.697C223.074 308.722 223.051 308.742 223.025 308.757C222.998 308.773 222.969 308.782 222.939 308.786C222.909 308.79 222.878 308.788 222.848 308.781L161.756 292.505C161.726 292.497 161.698 292.483 161.674 292.465C161.65 292.446 161.63 292.423 161.614 292.397C161.599 292.37 161.589 292.341 161.585 292.311C161.581 292.28 161.583 292.25 161.591 292.22L166.867 271.911C166.874 271.881 166.888 271.854 166.907 271.829C166.925 271.805 166.948 271.785 166.975 271.77C167.001 271.754 167.03 271.744 167.06 271.74C167.091 271.736 167.121 271.738 167.151 271.746L204.574 281.467C204.633 281.483 204.696 281.476 204.749 281.446C204.802 281.417 204.841 281.368 204.859 281.31L215.829 241.581C215.837 241.552 215.851 241.524 215.869 241.5C215.888 241.476 215.911 241.455 215.937 241.44C215.964 241.425 215.993 241.415 216.023 241.411C216.053 241.407 216.084 241.409 216.113 241.417L271.31 256.443C271.339 256.451 271.367 256.464 271.391 256.483C271.415 256.502 271.436 256.525 271.451 256.551C271.466 256.578 271.476 256.607 271.48 256.637C271.484 256.667 271.482 256.698 271.474 256.727L265.944 277.067C265.936 277.096 265.923 277.124 265.904 277.148C265.886 277.172 265.863 277.193 265.836 277.208C265.81 277.223 265.78 277.233 265.75 277.237C265.72 277.241 265.689 277.239 265.66 277.231L234.387 268.716C234.358 268.708 234.327 268.706 234.297 268.71C234.267 268.714 234.238 268.724 234.211 268.739C234.185 268.754 234.162 268.775 234.143 268.799C234.124 268.823 234.111 268.851 234.103 268.88Z" fill="#FFA800" fill-opacity="0.9"/>
</svg>
