<svg width="60" height="60" viewBox="0 0 60 60" fill="none" xmlns="http://www.w3.org/2000/svg">
<path d="M52.5 11.25H7.5C7.00272 11.25 6.52581 11.4475 6.17417 11.7992C5.82254 12.1508 5.625 12.6277 5.625 13.125V45C5.625 45.9946 6.02009 46.9484 6.72335 47.6516C7.42661 48.3549 8.38044 48.75 9.375 48.75H50.625C51.6196 48.75 52.5734 48.3549 53.2766 47.6516C53.9799 46.9484 54.375 45.9946 54.375 45V13.125C54.375 12.6277 54.1775 12.1508 53.8258 11.7992C53.4742 11.4475 52.9973 11.25 52.5 11.25ZM30 31.207L12.3211 15H47.6789L30 31.207ZM23.1352 30L9.375 42.6117V17.3883L23.1352 30ZM25.9102 32.543L28.7227 35.1328C29.0686 35.4504 29.5211 35.6266 29.9906 35.6266C30.4602 35.6266 30.9127 35.4504 31.2586 35.1328L34.0711 32.543L47.6648 45H12.3211L25.9102 32.543ZM36.8648 30L50.625 17.3859V42.6141L36.8648 30Z" fill="#F5A020"/>
</svg>
