<svg width="37" height="38" viewBox="0 0 37 38" fill="none" xmlns="http://www.w3.org/2000/svg">
<path d="M4.62495 18.9999C4.62495 19.3149 4.74676 19.6169 4.9636 19.8396C5.18044 20.0623 5.47454 20.1874 5.7812 20.1874H28.4278L19.9944 28.8473C19.887 28.9576 19.8018 29.0886 19.7436 29.2327C19.6855 29.3769 19.6556 29.5314 19.6556 29.6874C19.6556 29.8435 19.6855 29.998 19.7436 30.1421C19.8018 30.2863 19.887 30.4173 19.9944 30.5276C20.1018 30.6379 20.2294 30.7254 20.3697 30.7851C20.5101 30.8449 20.6605 30.8756 20.8124 30.8756C20.9644 30.8756 21.1148 30.8449 21.2552 30.7851C21.3955 30.7254 21.5231 30.6379 21.6305 30.5276L32.0367 19.8401C32.1442 19.7298 32.2295 19.5988 32.2877 19.4547C32.3459 19.3105 32.3759 19.156 32.3759 18.9999C32.3759 18.8439 32.3459 18.6893 32.2877 18.5452C32.2295 18.401 32.1442 18.2701 32.0367 18.1598L21.6305 7.47227C21.4135 7.24945 21.1193 7.12427 20.8124 7.12427C20.5056 7.12427 20.2114 7.24945 19.9944 7.47227C19.7774 7.69509 19.6556 7.99731 19.6556 8.31243C19.6556 8.62755 19.7774 8.92976 19.9944 9.15258L28.4278 17.8124H5.7812C5.47454 17.8124 5.18044 17.9375 4.9636 18.1602C4.74676 18.3829 4.62495 18.685 4.62495 18.9999Z" fill="#D9D9D9"/>
</svg>
