<svg width="37" height="38" viewBox="0 0 37 38" fill="none" xmlns="http://www.w3.org/2000/svg">
<path d="M32.3751 18.9999C32.3751 19.3149 32.2532 19.6169 32.0364 19.8396C31.8196 20.0623 31.5255 20.1874 31.2188 20.1874H8.5722L17.0056 28.8473C17.113 28.9576 17.1982 29.0886 17.2564 29.2327C17.3145 29.3769 17.3444 29.5314 17.3444 29.6874C17.3444 29.8435 17.3145 29.998 17.2564 30.1421C17.1982 30.2863 17.113 30.4173 17.0056 30.5276C16.8982 30.6379 16.7706 30.7254 16.6303 30.7851C16.4899 30.8449 16.3395 30.8756 16.1876 30.8756C16.0356 30.8756 15.8852 30.8449 15.7448 30.7851C15.6045 30.7254 15.4769 30.6379 15.3695 30.5276L4.96326 19.8401C4.85575 19.7298 4.77047 19.5988 4.71228 19.4547C4.6541 19.3105 4.62415 19.156 4.62415 18.9999C4.62415 18.8439 4.6541 18.6893 4.71228 18.5452C4.77047 18.401 4.85575 18.2701 4.96326 18.1598L15.3695 7.47227C15.5865 7.24945 15.8807 7.12427 16.1876 7.12427C16.4944 7.12427 16.7886 7.24945 17.0056 7.47227C17.2226 7.69509 17.3444 7.99731 17.3444 8.31243C17.3444 8.62755 17.2226 8.92976 17.0056 9.15258L8.5722 17.8124H31.2188C31.5255 17.8124 31.8196 17.9375 32.0364 18.1602C32.2532 18.3829 32.3751 18.685 32.3751 18.9999Z" fill="#D9D9D9"/>
</svg>
