<svg width="475" height="476" viewBox="0 0 475 476" fill="none" xmlns="http://www.w3.org/2000/svg">
<path d="M234.385 17.9202L232.545 17.951L232.294 2.97709L234.134 2.94626L234.385 17.9202ZM229.795 18.0263L227.956 18.0962L227.388 3.13098L229.226 3.06112L229.795 18.0263ZM225.235 18.2317L223.399 18.3448L222.478 3.39706L224.315 3.28398L225.235 18.2317ZM220.634 18.5422L218.801 18.6911L217.588 3.76431L219.422 3.61533L220.634 18.5422ZM216.043 18.9426L214.212 19.1277L212.705 4.22765L214.536 4.04256L216.043 18.9426ZM211.461 19.4334L209.634 19.6548L207.833 4.78754L209.659 4.56619L211.461 19.4334ZM206.891 20.015L205.07 20.2727L202.972 5.44436L204.794 5.18663L206.891 20.015ZM202.379 20.686L200.563 20.9867L198.115 6.21214L199.931 5.91139L202.379 20.686ZM197.857 21.4651L196.048 21.8048L193.284 7.08626L195.092 6.74656L197.857 21.4651ZM193.336 22.3426L191.535 22.7185L188.475 8.05844L190.276 7.68251L193.336 22.3426ZM188.835 23.3105L187.042 23.7227L183.687 9.12723L185.481 8.71508L188.835 23.3105ZM184.355 24.3689L182.571 24.8172L178.922 10.2925L180.706 9.8442L184.355 24.3689ZM179.898 25.5175L178.123 26.0019L174.181 11.5542L175.956 11.0698L179.898 25.5175ZM175.494 26.7515L173.731 27.2761L169.461 12.9218L171.224 12.3971L175.494 26.7515ZM171.116 28.0861L169.364 28.6501L164.774 14.3949L166.525 13.8309L171.116 28.0861ZM166.743 29.5235L165.004 30.1229L160.125 15.9637L161.865 15.3643L166.743 29.5235ZM162.401 31.0491L160.674 31.6837L155.509 17.6266L157.236 16.992L162.401 31.0491ZM158.092 32.6626L156.378 33.3322L150.928 19.383L152.642 18.7134L158.092 32.6626ZM153.816 34.3633L152.116 35.0677L146.384 21.2324L148.083 20.528L153.816 34.3633ZM149.576 36.1508L147.891 36.8896L141.878 23.174L143.563 22.4351L149.576 36.1508ZM145.41 38.0125L143.743 38.7909L137.407 25.2211L139.074 24.4427L145.41 38.0125ZM141.261 39.9818L139.611 40.7953L132.99 27.3624L134.64 26.5489L141.261 39.9818ZM137.146 42.0416L135.512 42.8885L128.62 29.5929L130.253 28.7461L137.146 42.0416ZM133.073 44.1846L131.457 45.0645L124.296 31.9117L125.912 31.0319L133.073 44.1846ZM129.045 46.4099L127.447 47.3224L120.02 34.3179L121.618 33.4054L129.045 46.4099ZM125.063 48.7165L123.484 49.6613L115.794 36.8104L117.373 35.8656L125.063 48.7165ZM121.128 51.1037L119.569 52.0804L111.62 39.3883L113.179 38.4116L121.128 51.1037ZM117.267 53.5585L115.73 54.5701L107.496 42.0608L109.033 41.0491L117.267 53.5585ZM113.454 56.1044L111.939 57.1492L103.435 44.8219L104.95 43.7771L113.454 56.1044ZM109.681 58.7412L108.188 59.8165L99.4358 47.6639L100.929 46.5886L109.681 58.7412ZM105.962 61.4537L104.491 62.559L95.495 50.5862L96.966 49.4809L105.962 61.4537ZM102.299 64.241L100.851 65.3759L91.6142 53.5876L93.0626 52.4527L102.299 64.241ZM98.6934 67.102L97.2683 68.2659L87.795 56.6669L89.22 55.503L98.6934 67.102ZM95.146 70.0354L93.7448 71.2279L84.0387 59.8229L85.44 58.6304L95.146 70.0354ZM91.6631 73.0369L90.2868 74.2582L80.347 63.0563L81.7233 61.8351L91.6631 73.0369ZM88.2694 76.091L86.922 77.3441L76.7228 66.378L78.0702 65.1249L88.2694 76.091ZM84.9175 79.2467L83.5958 80.5267L73.177 69.7689L74.4988 68.4889L84.9175 79.2467ZM81.6303 82.4693L80.3347 83.7758L69.7006 73.2308L70.9962 71.9242L81.6303 82.4693ZM78.4089 85.7575L77.14 87.09L66.295 76.7621L67.5639 75.4296L78.4089 85.7575ZM75.2547 89.1102L74.013 90.4681L62.9614 80.3614L64.2031 79.0036L75.2547 89.1102ZM72.1689 92.526L70.9549 93.9086L59.7013 84.0275L60.9153 82.6449L72.1689 92.526ZM69.1528 96.0035L67.9669 97.4104L56.5159 87.7588L57.7017 86.3519L69.1528 96.0035ZM66.2255 99.5239L65.0714 100.957L53.4078 91.5633L54.5619 90.1303L66.2255 99.5239ZM63.3734 103.113L62.2508 104.571L50.385 95.4341L51.5076 93.9762L63.3734 103.113ZM60.5873 106.777L59.4945 108.258L47.4461 99.3628L48.5389 97.8825L60.5873 106.777ZM57.8762 110.497L56.8136 111.999L44.5875 103.35L45.6501 101.848L57.8762 110.497ZM55.2411 114.27L54.2092 115.794L41.8103 107.394L42.8422 105.871L55.2411 114.27ZM52.6831 118.097L51.6822 119.641L39.1156 111.494L40.1165 109.95L52.6831 118.097ZM50.2032 121.974L49.2338 123.538L36.5046 115.648L37.4739 114.084L50.2032 121.974ZM47.8071 125.894L46.8707 127.478L33.9791 119.857L34.9155 118.273L47.8071 125.894ZM45.5121 129.839L44.6132 131.445L31.5458 124.129L32.4447 122.523L45.5121 129.839ZM43.2885 133.869L42.4224 135.492L29.209 128.443L30.075 126.82L43.2885 133.869ZM41.1474 137.942L40.3146 139.583L26.9605 132.804L27.7933 131.164L41.1474 137.942ZM39.0897 142.058L38.2904 143.715L24.8012 137.21L25.6005 135.553L39.0897 142.058ZM37.1161 146.215L36.3507 147.888L22.7319 141.659L23.4974 139.985L37.1161 146.215ZM35.2274 150.412L34.4962 152.1L20.7536 146.148L21.4848 144.46L35.2274 150.412ZM33.4272 154.641L32.7313 156.344L18.8678 150.68L19.5637 148.976L33.4272 154.641ZM31.7338 158.872L31.0791 160.591L17.0832 155.263L17.738 153.543L31.7338 158.872ZM30.1228 163.182L29.5032 164.915L15.4017 159.872L16.0213 158.14L30.1228 163.182ZM28.5998 167.525L28.0156 169.27L13.8144 164.515L14.3986 162.77L28.5998 167.525ZM27.1653 171.898L26.6167 173.654L12.3219 169.188L12.8705 167.432L27.1653 171.898ZM25.8198 176.299L25.3069 178.066L10.9245 173.891L11.4374 172.124L25.8198 176.299ZM24.5636 180.727L24.0865 182.504L9.62261 178.622L10.0997 176.844L24.5636 180.727ZM23.4087 185.15L22.9725 186.938L8.42337 183.388L8.85958 181.6L23.4087 185.15ZM22.3527 189.606L21.9564 191.403L7.33192 188.177L7.72825 186.38L22.3527 189.606ZM21.3883 194.108L21.0283 195.912L6.34177 192.982L6.70177 191.178L21.3883 194.108ZM20.5147 198.629L20.191 200.44L5.44858 197.806L5.77226 195.994L20.5147 198.629ZM19.7318 203.168L19.4445 204.985L4.65224 202.646L4.93961 200.829L19.7318 203.168ZM19.0396 207.722L18.7885 209.545L3.95262 207.501L4.20374 205.678L19.0396 207.722ZM18.4473 212.253L18.2383 214.081L3.35919 212.38L3.56817 210.552L18.4473 212.253ZM17.9568 216.809L17.788 218.642L2.87512 217.268L3.04391 215.436L17.9568 216.809ZM17.5612 221.402L17.4286 223.237L2.49152 222.157L2.62415 220.322L17.5612 221.402ZM17.2559 226.002L17.1592 227.84L2.20392 227.053L2.30061 225.215L17.2559 226.002ZM17.0405 230.61L16.9795 232.449L2.01171 231.953L2.0727 230.114L17.0405 230.61ZM16.9163 235.208L16.893 237.048L1.91824 236.858L1.94152 235.019L16.9163 235.208ZM16.8914 239.766L16.9124 241.606L1.93737 241.777L1.91637 239.937L16.8914 239.766ZM16.9708 244.38L17.0272 246.219L2.05825 246.678L2.00184 244.839L16.9708 244.38ZM17.1392 248.99L17.2313 250.827L2.27407 251.577L2.18195 249.739L17.1392 248.99ZM17.3971 253.593L17.5252 255.429L2.58552 256.471L2.45745 254.636L17.3971 253.593ZM17.7452 258.189L17.9095 260.022L2.99323 261.359L2.82899 259.526L17.7452 258.189ZM18.1847 262.721L18.3937 264.549L3.51456 266.25L3.30559 264.422L18.1847 262.721ZM18.7353 267.287L18.9819 269.11L4.141 271.118L3.89439 269.294L18.7353 267.287ZM19.3801 271.849L19.6629 273.667L4.86497 275.969L4.5821 274.151L19.3801 271.849ZM20.1155 276.395L20.4347 278.207L5.68576 280.805L5.36656 278.993L20.1155 276.395ZM20.9417 280.925L21.2972 282.73L6.60351 285.624L6.24794 283.819L20.9417 280.925ZM21.8587 285.436L22.2506 287.234L7.61828 290.424L7.22636 288.626L21.8587 285.436ZM22.8606 289.875L23.2968 291.662L8.74773 295.213L8.31152 293.425L22.8606 289.875ZM23.9787 294.337L24.4514 296.116L9.97805 299.963L9.50534 298.185L23.9787 294.337ZM25.1883 298.779L25.6969 300.547L11.3043 304.686L10.7957 302.918L25.1883 298.779ZM26.4874 303.194L27.0317 304.952L12.7261 309.382L12.1818 307.625L26.4874 303.194ZM27.8756 307.582L28.4556 309.328L14.243 314.048L13.663 312.302L27.8756 307.582ZM29.3527 311.94L29.9681 313.674L15.8545 318.682L15.2391 316.948L29.3527 311.94ZM30.9128 316.244L31.5667 317.964L17.5681 323.286L16.9143 321.566L30.9128 316.244ZM32.5673 320.509L33.26 322.214L19.3857 327.851L18.693 326.147L32.5673 320.509ZM34.3259 324.762L35.053 326.452L21.2961 332.371L20.569 330.681L34.3259 324.762ZM36.1703 328.978L36.9317 330.653L23.298 336.85L22.5366 335.175L36.1703 328.978ZM38.1001 333.156L38.8954 334.815L25.3906 341.288L24.5953 339.629L38.1001 333.156ZM40.1144 337.293L40.9433 338.936L27.573 345.682L26.7441 344.04L40.1144 337.293ZM42.2124 341.388L43.0746 343.014L29.8444 350.031L28.9822 348.406L42.2124 341.388ZM44.3858 345.421L45.2837 347.028L32.2116 354.335L31.3137 352.729L44.3858 345.421ZM46.646 349.401L47.5796 350.987L34.6749 358.586L33.7412 357.001L46.646 349.401ZM49.0056 353.353L49.9713 354.919L37.2233 362.779L36.2577 361.213L49.0056 353.353ZM51.4448 357.256L52.442 358.802L39.8561 366.919L38.8589 365.372L51.4448 357.256ZM53.9627 361.109L54.9911 362.635L42.5724 371.004L41.544 369.479L53.9627 361.109ZM56.5582 364.91L57.6173 366.414L45.3708 375.034L44.3117 373.529L56.5582 364.91ZM59.2304 368.657L60.3197 370.14L48.2504 379.006L47.1611 377.524L59.2304 368.657ZM61.9764 372.347L63.096 373.808L51.211 382.92L50.0915 381.459L61.9764 372.347ZM64.7779 375.948L65.9317 377.382L54.2658 386.772L53.112 385.339L64.7779 375.948ZM67.6864 379.517L68.8689 380.927L57.3951 390.551L56.2126 389.142L67.6864 379.517ZM70.6661 383.026L71.8769 384.411L60.6001 394.266L59.3893 392.88L70.6661 383.026ZM73.7162 386.473L74.9548 387.834L63.8796 397.915L62.641 396.554L73.7162 386.473ZM76.8354 389.859L78.1012 391.194L67.232 401.496L65.9662 400.161L76.8354 389.859ZM80.0223 393.18L81.3148 394.49L70.6561 405.01L69.3636 403.7L80.0223 393.18ZM83.2758 396.437L84.5945 397.72L74.1506 408.453L72.8319 407.17L83.2758 396.437ZM86.5801 399.61L87.9269 400.863L77.7227 411.825L76.3759 410.571L86.5801 399.61ZM89.9549 402.71L91.3289 403.934L81.3679 415.117L79.9939 413.893L89.9549 402.71ZM93.4109 405.751L94.8094 406.947L85.0766 418.329L83.6782 417.133L93.4109 405.751ZM96.9276 408.721L98.35 409.888L88.8494 421.465L87.4271 420.298L96.9276 408.721ZM100.503 411.619L101.949 412.758L92.6847 424.524L91.2391 423.386L100.503 411.619ZM104.137 414.445L105.606 415.554L96.5813 427.505L95.1129 426.396L104.137 414.445ZM107.827 417.196L109.318 418.275L100.537 430.407L99.0468 429.328L107.827 417.196ZM111.572 419.871L113.084 420.92L104.552 433.228L103.04 432.179L111.572 419.871ZM115.337 422.442L116.874 423.454L108.639 435.962L107.102 434.951L115.337 422.442ZM119.197 424.949L120.754 425.93L112.775 438.603L111.218 437.623L119.197 424.949ZM123.106 427.378L124.683 428.326L116.963 441.159L115.386 440.21L123.106 427.378ZM127.064 429.726L128.66 430.642L121.202 443.629L119.606 442.713L127.064 429.726ZM131.069 431.993L132.683 432.877L125.49 446.013L123.876 445.129L131.069 431.993ZM135.119 434.179L136.75 435.03L129.826 448.309L128.194 447.458L135.119 434.179ZM139.212 436.282L140.861 437.099L134.208 450.516L132.559 449.699L139.212 436.282ZM143.316 438.281L144.983 439.059L138.647 452.629L136.98 451.85L143.316 438.281ZM147.488 440.197L149.172 440.94L143.125 454.641L141.442 453.898L147.488 440.197ZM151.709 442.029L153.408 442.737L147.641 456.559L145.943 455.85L151.709 442.029ZM155.967 443.774L157.679 444.448L152.196 458.384L150.483 457.71L155.967 443.774ZM160.259 445.433L161.985 446.072L156.786 460.117L155.06 459.478L160.259 445.433ZM164.585 447.004L166.323 447.608L161.41 461.755L159.672 461.152L164.585 447.004ZM168.942 448.488L170.692 449.056L166.067 463.3L164.317 462.732L168.942 448.488ZM173.279 449.86L175.043 450.385L170.772 464.739L169.009 464.215L173.279 449.86ZM177.698 451.146L179.472 451.635L175.494 466.073L173.72 465.584L177.698 451.146ZM182.143 452.341L183.926 452.794L180.242 467.31L178.458 466.857L182.143 452.341ZM186.612 453.447L188.404 453.863L185.013 468.451L183.221 468.034L186.612 453.447ZM191.102 454.462L192.903 454.842L189.807 469.495L188.006 469.114L191.102 454.462ZM195.613 455.387L197.421 455.731L194.62 470.442L192.812 470.098L195.613 455.387ZM200.098 456.207L201.913 456.508L199.465 471.283L197.65 470.982L200.098 456.207ZM204.633 456.929L206.454 457.191L204.32 472.014L202.498 471.752L204.633 456.929ZM209.196 457.558L211.022 457.784L209.184 472.647L207.358 472.421L209.196 457.558ZM213.772 458.097L215.603 458.286L214.059 473.182L212.229 472.993L213.772 458.097ZM218.36 458.544L220.194 458.698L218.944 473.622L217.11 473.468L218.36 458.544ZM222.949 458.901L224.785 459.017L223.838 473.963L222.002 473.847L222.949 458.901ZM227.493 459.155L229.332 459.226L228.753 474.191L226.914 474.12L227.493 459.155ZM232.103 459.306L233.943 459.342L233.655 474.315L231.815 474.28L232.103 459.306ZM236.718 459.368H238.558V474.344H236.718V459.368ZM241.333 459.342L243.172 459.306L243.46 474.28L241.621 474.315L241.333 459.342ZM245.944 459.226L247.782 459.155L248.361 474.12L246.523 474.191L245.944 459.226ZM250.49 459.017L252.326 458.9L253.273 473.846L251.437 473.963L250.49 459.017ZM255.082 458.698L256.916 458.544L258.165 473.468L256.332 473.621L255.082 458.698ZM259.673 458.286L261.503 458.096L263.047 472.992L261.216 473.182L259.673 458.286ZM264.253 457.783L266.08 457.558L267.918 472.42L266.092 472.646L264.253 457.783ZM268.822 457.191L270.643 456.928L272.777 471.751L270.956 472.014L268.822 457.191ZM273.362 456.507L275.177 456.207L277.625 470.981L275.81 471.282L273.362 456.507ZM277.855 455.73L279.662 455.386L282.463 470.098L280.656 470.442L277.855 455.73ZM282.373 454.841L284.173 454.461L287.269 469.113L285.469 469.494L282.373 454.841ZM286.872 453.862L288.664 453.446L292.054 468.033L290.262 468.449L286.872 453.862ZM291.349 452.793L293.133 452.34L296.817 466.856L295.034 467.309L291.349 452.793ZM295.803 451.633L297.577 451.145L301.555 465.583L299.781 466.071L295.803 451.633ZM300.233 450.384L301.996 449.859L306.267 464.214L304.503 464.738L300.233 450.384ZM304.583 449.055L306.333 448.486L310.958 462.73L309.208 463.299L304.583 449.055ZM308.952 447.607L310.69 447.003L315.603 461.15L313.865 461.754L308.952 447.607ZM313.29 446.07L315.016 445.432L320.215 459.476L318.489 460.115L313.29 446.07ZM317.596 444.446L319.308 443.773L324.792 457.709L323.08 458.382L317.596 444.446ZM321.868 442.735L323.566 442.027L329.332 455.848L327.634 456.557L321.868 442.735ZM326.103 440.938L327.787 440.195L333.833 453.896L332.15 454.639L326.103 440.938ZM330.292 439.057L331.959 438.279L338.295 451.849L336.628 452.627L330.292 439.057ZM334.414 437.097L336.062 436.28L342.716 449.697L341.067 450.514L334.414 437.097ZM338.525 435.027L340.156 434.177L347.081 447.456L345.449 448.307L338.525 435.027ZM342.592 432.875L344.206 431.991L351.399 445.127L349.785 446.01L342.592 432.875ZM346.615 430.64L348.211 429.724L355.669 442.71L354.073 443.627L346.615 430.64ZM350.592 428.324L352.169 427.375L359.889 440.208L358.312 441.156L350.592 428.324ZM354.521 425.927L356.078 424.947L364.057 437.62L362.5 438.6L354.521 425.927ZM358.401 423.451L359.937 422.44L368.172 434.948L366.635 435.96L358.401 423.451ZM362.191 420.917L363.703 419.869L372.235 432.177L370.723 433.225L362.191 420.917ZM365.957 418.272L367.447 417.194L376.228 429.325L374.737 430.404L365.957 418.272ZM369.669 415.551L371.137 414.442L380.162 426.394L378.693 427.503L369.669 415.551ZM373.326 412.755L374.771 411.617L384.036 423.383L382.59 424.521L373.326 412.755ZM376.925 409.885L378.347 408.718L387.848 420.295L386.425 421.462L376.925 409.885ZM380.465 406.944L381.864 405.748L391.596 417.13L390.198 418.326L380.465 406.944ZM383.945 403.931L385.319 402.707L395.28 413.89L393.906 415.114L383.945 403.931ZM387.347 400.86L388.694 399.607L398.898 410.568L397.551 411.822L387.347 400.86ZM390.68 397.717L391.998 396.434L402.442 407.167L401.124 408.45L390.68 397.717ZM393.959 394.487L395.252 393.177L405.911 403.697L404.618 405.007L393.959 394.487ZM397.173 391.191L398.439 389.855L409.308 400.158L408.042 401.493L397.173 391.191ZM400.319 387.831L401.558 386.47L412.633 396.551L411.395 397.911L400.319 387.831ZM403.397 384.408L404.608 383.022L415.885 392.877L414.674 394.262L403.397 384.408ZM406.405 380.923L407.588 379.514L419.061 389.138L417.879 390.548L406.405 380.923ZM409.342 377.379L410.496 375.945L422.162 385.336L421.008 386.769L409.342 377.379ZM412.178 373.804L413.297 372.344L425.182 381.456L424.063 382.916L412.178 373.804ZM414.954 370.136L416.043 368.654L428.113 377.52L427.023 379.003L414.954 370.136ZM417.656 366.411L418.715 364.906L430.962 373.526L429.903 375.031L417.656 366.411ZM420.283 362.631L421.311 361.105L433.73 369.475L432.701 371.001L420.283 362.631ZM422.831 358.799L423.829 357.252L436.415 365.369L435.417 366.915L422.831 358.799ZM425.302 354.916L426.268 353.349L439.016 361.209L438.05 362.775L425.302 354.916ZM427.694 350.983L428.627 349.398L441.532 356.997L440.598 358.582L427.694 350.983ZM429.989 347.024L430.887 345.418L443.959 352.725L443.062 354.331L429.989 347.024ZM432.198 343.01L433.061 341.385L446.291 348.402L445.429 350.027L432.198 343.01ZM434.33 338.932L435.159 337.289L448.529 344.036L447.7 345.678L434.33 338.932ZM436.378 334.811L437.173 333.152L450.678 339.625L449.882 341.284L436.378 334.811ZM438.341 330.649L439.103 328.974L452.736 335.171L451.975 336.846L438.341 330.649ZM440.22 326.448L440.947 324.758L454.704 330.676L453.977 332.367L440.22 326.448ZM442.013 322.21L442.705 320.505L456.58 326.143L455.887 327.847L442.013 322.21ZM443.706 317.96L444.36 316.24L458.358 321.562L457.704 323.282L443.706 317.96ZM445.304 313.67L445.92 311.935L460.033 316.944L459.418 318.678L445.304 313.67ZM446.817 309.323L447.397 307.577L461.61 312.297L461.03 314.044L446.817 309.323ZM448.241 304.947L448.785 303.189L463.091 307.62L462.546 309.378L448.241 304.947ZM449.576 300.543L450.084 298.774L464.477 302.914L463.968 304.682L449.576 300.543ZM450.821 296.111L451.294 294.333L465.767 298.18L465.294 299.959L450.821 296.111ZM451.975 291.658L452.412 289.871L466.961 293.421L466.524 295.208L451.975 291.658ZM453.021 287.23L453.413 285.432L468.046 288.622L467.654 290.42L453.021 287.23ZM453.975 282.726L454.33 280.92L469.024 283.814L468.668 285.62L453.975 282.726ZM454.837 278.203L455.156 276.39L469.905 278.989L469.586 280.801L454.837 278.203ZM455.609 273.662L455.892 271.844L470.69 274.146L470.407 275.964L455.609 273.662ZM456.29 269.106L456.536 267.283L471.377 269.29L471.131 271.113L456.29 269.106ZM456.878 264.545L457.087 262.717L471.966 264.418L471.757 266.246L456.878 264.545ZM457.362 260.018L457.526 258.185L472.442 259.522L472.278 261.354L457.362 260.018ZM457.746 255.424L457.874 253.589L472.814 254.631L472.686 256.467L457.746 255.424ZM458.04 250.823L458.132 248.985L473.089 249.735L472.997 251.573L458.04 250.823ZM458.244 246.215L458.3 244.376L473.269 244.835L473.213 246.674L458.244 246.215ZM458.359 241.602L458.38 239.762L473.355 239.933L473.334 241.772L458.359 241.602ZM458.378 237.044L458.355 235.204L473.33 235.015L473.353 236.854L458.378 237.044ZM458.291 232.445L458.23 230.606L473.198 230.109L473.259 231.948L458.291 232.445ZM458.112 227.835L458.015 225.998L472.97 225.211L473.067 227.048L458.112 227.835ZM457.842 223.232L457.71 221.397L472.647 220.318L472.779 222.153L457.842 223.232ZM457.483 218.637L457.314 216.805L472.227 215.431L472.396 217.263L457.483 218.637ZM457.032 214.077L456.823 212.249L471.702 210.548L471.911 212.376L457.032 214.077ZM456.482 209.541L456.231 207.718L471.067 205.674L471.318 207.497L456.482 209.541ZM455.826 204.981L455.539 203.163L470.331 200.824L470.618 202.642L455.826 204.981ZM455.079 200.436L454.756 198.625L469.498 195.99L469.822 197.801L455.079 200.436ZM454.242 195.908L453.882 194.104L468.568 191.173L468.928 192.978L454.242 195.908ZM453.314 191.399L452.917 189.602L467.542 186.376L467.938 188.173L453.314 191.399ZM452.298 186.934L451.861 185.146L466.411 181.596L466.847 183.383L452.298 186.934ZM451.183 182.5L450.706 180.723L465.17 176.84L465.647 178.617L451.183 182.5ZM449.963 178.062L449.45 176.295L463.832 172.12L464.345 173.887L449.963 178.062ZM448.653 173.649L448.104 171.893L462.399 167.428L462.948 169.184L448.653 173.649ZM447.254 169.265L446.67 167.521L460.871 162.766L461.455 164.51L447.254 169.265ZM445.766 164.911L445.147 163.178L459.248 158.135L459.868 159.868L445.766 164.911ZM444.191 160.588L443.536 158.868L457.532 153.539L458.186 155.259L444.191 160.588ZM442.538 156.34L441.842 154.637L455.706 148.972L456.402 150.676L442.538 156.34ZM440.773 152.096L440.042 150.407L453.785 144.456L454.516 146.144L440.773 152.096ZM438.919 147.884L438.153 146.211L451.772 139.981L452.537 141.654L438.919 147.884ZM436.979 143.711L436.179 142.054L449.669 135.549L450.468 137.206L436.979 143.711ZM434.954 139.579L434.122 137.938L447.476 131.16L448.309 132.8L434.954 139.579ZM432.847 135.488L431.981 133.865L445.194 126.816L446.06 128.44L432.847 135.488ZM430.656 131.441L429.757 129.836L442.824 122.52L443.723 124.125L430.656 131.441ZM428.398 127.475L427.462 125.891L440.353 118.269L441.29 119.853L428.398 127.475ZM426.035 123.534L425.066 121.97L437.795 114.08L438.764 115.644L426.035 123.534ZM423.586 119.637L422.586 118.093L435.152 109.947L436.153 111.491L423.586 119.637ZM421.059 115.79L420.027 114.267L432.426 105.867L433.458 107.391L421.059 115.79ZM418.455 111.995L417.392 110.493L429.618 101.844L430.681 103.346L418.455 111.995ZM415.774 108.254L414.681 106.774L426.73 97.8789L427.822 99.3592L415.774 108.254ZM413.018 104.568L411.895 103.11L423.761 93.9728L424.883 95.4307L413.018 104.568ZM410.197 100.954L409.043 99.5207L420.707 90.1271L421.861 91.5601L410.197 100.954ZM407.301 97.4071L406.116 96.0002L417.567 86.3487L418.753 87.7556L407.301 97.4071ZM404.313 93.9053L403.099 92.5226L414.353 82.6415L415.567 84.0242L404.313 93.9053ZM401.255 90.4649L400.013 89.107L411.065 79.0004L412.307 80.3582L401.255 90.4649ZM398.128 87.0868L396.859 85.7543L407.704 75.4264L408.973 76.7588L398.128 87.0868ZM394.933 83.7726L393.638 82.466L404.272 71.921L405.567 73.2275L394.933 83.7726ZM391.672 80.5237L390.35 79.2436L400.769 68.4858L402.091 69.7659L391.672 80.5237ZM388.346 77.3413L386.999 76.0882L397.198 65.122L398.545 66.3751L388.346 77.3413ZM384.981 74.2554L383.605 73.0342L393.545 61.8324L394.921 63.0536L384.981 74.2554ZM381.523 71.225L380.122 70.0325L389.828 58.6276L391.229 59.8201L381.523 71.225ZM377.999 68.2631L376.574 67.0992L386.048 55.5001L387.473 56.6641L377.999 68.2631ZM374.417 65.3731L372.968 64.2383L382.205 52.4499L383.653 53.5848L374.417 65.3731ZM370.776 62.5563L369.305 61.451L378.301 49.4782L379.772 50.5835L370.776 62.5563ZM367.08 59.8138L365.587 58.7385L374.339 46.586L375.832 47.6613L367.08 59.8138ZM363.329 57.1469L361.814 56.1021L370.318 43.7747L371.833 44.8195L363.329 57.1469ZM359.537 54.5679L358 53.5562L366.234 41.0469L367.771 42.0585L359.537 54.5679ZM355.699 52.0782L354.139 51.1015L362.089 38.4094L363.648 39.3861L355.699 52.0782ZM351.783 49.6591L350.204 48.7143L357.894 35.8634L359.473 36.8082L351.783 49.6591ZM347.82 47.3202L346.222 46.4077L353.649 33.4032L355.247 34.3157L347.82 47.3202ZM343.81 45.0624L342.194 44.1825L349.355 31.0298L350.971 31.9096L343.81 45.0624ZM339.755 42.8865L338.121 42.0396L345.014 28.7441L346.648 29.5909L339.755 42.8865ZM335.656 40.7934L334.006 39.9799L340.627 26.547L342.277 27.3605L335.656 40.7934ZM331.524 38.7892L329.857 38.0107L336.193 24.441L337.86 25.2194L331.524 38.7892ZM327.376 36.8879L325.691 36.1491L331.705 22.4335L333.39 23.1723L327.376 36.8879ZM323.151 35.0661L321.451 34.3617L327.184 20.5264L328.884 21.2308L323.151 35.0661ZM318.889 33.3306L317.175 32.661L322.625 18.7118L324.339 19.3814L318.889 33.3306ZM314.592 31.6821L312.865 31.0475L318.03 16.9904L319.758 17.625L314.592 31.6821ZM310.263 30.1214L308.524 29.522L313.402 15.3629L315.142 15.9623L310.263 30.1214ZM305.903 28.6487L304.151 28.0848L308.742 13.8296L310.493 14.3935L305.903 28.6487ZM301.536 27.2749L299.773 26.7503L304.043 12.396L305.806 12.9206L301.536 27.2749ZM297.144 26.0008L295.369 25.5164L299.311 11.0687L301.086 11.5531L297.144 26.0008ZM292.696 24.8161L290.912 24.3678L294.56 9.84312L296.345 10.2914L292.696 24.8161ZM288.225 23.7217L286.432 23.3095L289.786 8.71407L291.579 9.12622L288.225 23.7217ZM283.732 22.7176L281.931 22.3417L284.99 7.6816L286.792 8.05753L283.732 22.7176ZM279.218 21.804L277.41 21.4643L280.175 6.74574L281.983 7.08544L279.218 21.804ZM274.704 20.9861L272.888 20.6853L275.336 5.91071L277.152 6.21146L274.704 20.9861ZM270.197 20.2721L268.375 20.0144L270.473 5.18603L272.295 5.44376L270.197 20.2721ZM265.632 19.6542L263.806 19.4329L265.607 4.56564L267.434 4.78699L265.632 19.6542ZM261.055 19.1272L259.224 18.9421L260.73 4.04211L262.561 4.22719L261.055 19.1272ZM256.466 18.6908L254.632 18.5418L255.845 3.61498L257.679 3.76396L256.466 18.6908ZM251.868 18.3445L250.032 18.2314L250.952 3.28373L252.789 3.39681L251.868 18.3445ZM247.311 18.096L245.472 18.0262L246.041 3.06096L247.879 3.13082L247.311 18.096ZM242.721 17.9509L240.882 17.9201L241.133 2.94618L242.972 2.97701L242.721 17.9509Z" fill="#F5A020"/>
<path d="M236.582 2.628H238.422V17.604H236.582V2.628Z" fill="#F5A020"/>
</svg>
