<svg width="367" height="368" viewBox="0 0 367 368" fill="none" xmlns="http://www.w3.org/2000/svg">
  <path d="M183.058 4.5C207.304 4.50002 230.411 9.34321 251.478 18.1133L253.205 13.9619C297.942 32.5858 333.717 68.4848 352.253 113.358L348.098 115.075C356.807 136.159 361.615 159.278 361.615 183.534C361.615 207.791 356.807 230.909 348.098 251.993L352.253 253.709C333.717 298.583 297.942 334.481 253.205 353.105L251.478 348.955C230.411 357.725 207.304 362.568 183.058 362.568C158.811 362.568 135.703 357.725 114.637 348.955L112.908 353.105C68.1721 334.481 32.3969 298.583 13.8613 253.709L18.0176 251.993C9.3086 230.909 4.5 207.791 4.5 183.534C4.5 159.278 9.30861 136.159 18.0176 115.075L13.8613 113.358C32.397 68.4851 68.1723 32.586 112.908 13.9619L114.637 18.1133C135.703 9.3431 158.811 4.5 183.058 4.5Z" 
        stroke="#F5A020" 
        stroke-width="9" 
        fill="none" 
        stroke-dasharray="30 30" 
        stroke-linecap="round" 
        stroke-linejoin="round"/>
</svg>