<svg width="368" height="367" viewBox="0 0 368 367" fill="none" xmlns="http://www.w3.org/2000/svg">
  <path d="M363.092 183.535C363.092 207.781 358.248 230.888 349.478 251.955L353.63 253.682C335.006 298.419 299.107 334.194 254.233 352.73L252.516 348.575C231.433 357.284 208.314 362.092 184.058 362.092C159.801 362.092 136.682 357.284 115.599 348.575L113.883 352.73C69.0088 334.194 33.1102 298.419 14.4862 253.682L18.6366 251.955C9.86654 230.888 5.02336 207.781 5.02334 183.535C5.02334 159.288 9.86643 136.18 18.6366 115.114L14.4862 113.385C33.1104 68.6492 69.0092 32.8739 113.883 14.3384L115.599 18.4946C136.682 9.78565 159.801 4.97705 184.058 4.97705C208.314 4.97705 231.433 9.78566 252.516 18.4946L254.233 14.3384C299.107 32.8741 335.006 68.6493 353.63 113.385L349.478 115.114C358.249 136.18 363.092 159.288 363.092 183.535Z" 
        stroke="#F5A020" 
        stroke-width="9" 
        fill="none" 
        stroke-linecap="round" 
        stroke-linejoin="round"/>
</svg>