<svg width="165" height="165" viewBox="0 0 165 165" fill="none" xmlns="http://www.w3.org/2000/svg">
<g filter="url(#filter0_f_2051_26)">
<circle cx="82.3862" cy="82.6087" r="70.3465" fill="#F5A020"/>
</g>
<circle cx="82.4958" cy="82.544" r="70.0767" fill="#F5A020"/>
<path d="M92.5888 51.5266L92.1161 51.8375C92.0553 51.8775 91.9822 51.894 91.9106 51.8841C91.839 51.8741 91.7737 51.8383 91.7272 51.7834C91.1982 51.1663 90.7872 50.4775 90.4942 49.7172C90.4175 49.5181 90.4843 49.4034 90.6948 49.3731C91.1063 49.312 91.3959 48.9243 91.4203 48.5051C91.4714 47.6644 91.054 47.1928 90.1681 47.0904C90.1322 47.086 90.0993 47.0681 90.0763 47.0405C90.0533 47.0129 90.0418 46.9776 90.0442 46.9419C90.0989 46.0826 90.2855 45.253 90.6041 44.4531C90.6273 44.3937 90.6703 44.3669 90.7331 44.3727C90.9133 44.3878 91.0883 44.414 91.2581 44.4513C92.0568 44.6225 92.6045 44.088 92.5068 43.2846C92.4754 43.0296 92.2836 42.827 92.1528 42.6174C92.0946 42.5231 92.1051 42.4375 92.1842 42.3607C92.8015 41.7598 93.5195 41.322 94.338 41.0472C94.3973 41.0275 94.4485 41.0403 94.4915 41.0857C94.7758 41.3843 94.8578 41.7179 95.2362 41.8664C96.3175 42.2891 96.6803 41.5992 96.9209 40.6927C96.9395 40.624 96.9843 40.592 97.0552 40.5966C97.9296 40.6444 98.7684 40.8423 99.5719 41.1905C99.6346 41.2184 99.6591 41.2662 99.6451 41.3337C99.5753 41.6638 99.4149 41.9904 99.5056 42.3118C99.7864 43.316 100.676 43.1641 101.363 42.682C101.395 42.6601 101.433 42.6506 101.472 42.6555C101.51 42.6603 101.545 42.6791 101.571 42.7082C102.146 43.3708 102.609 44.1055 102.961 44.9124C102.97 44.9335 102.974 44.9563 102.974 44.9793C102.973 45.0023 102.968 45.0248 102.958 45.0454C102.948 45.066 102.934 45.0842 102.916 45.0986C102.898 45.113 102.878 45.1234 102.856 45.129C101.473 45.4888 101.813 47.4746 103.175 47.4467C103.205 47.446 103.234 47.4517 103.262 47.4634C103.289 47.4751 103.313 47.4926 103.333 47.5146C103.353 47.5366 103.369 47.5627 103.378 47.591C103.387 47.6194 103.39 47.6494 103.386 47.679C103.286 48.5313 103.075 49.3522 102.753 50.1416C102.727 50.2057 102.681 50.2295 102.613 50.2132C101.86 50.0316 101.025 50.0176 100.901 50.9887C100.848 51.4009 101.08 51.71 101.332 52.0192C101.375 52.0716 101.371 52.1211 101.321 52.1676C100.662 52.7906 99.9038 53.2534 99.0469 53.5562C99.0182 53.5664 98.9866 53.565 98.9591 53.5523C98.9316 53.5395 98.9105 53.5164 98.9004 53.488C98.7551 53.0863 98.4894 52.804 98.1034 52.641C98.0371 52.6118 97.9953 52.6328 97.9778 52.7038L91.7638 77.0615C91.7608 77.0739 91.7629 77.0871 91.7698 77.0982C91.7766 77.1093 91.7876 77.1174 91.8005 77.1208L101.047 79.5276C101.111 79.5439 101.135 79.5841 101.119 79.6481L99.8073 84.7236C99.804 84.7351 99.7964 84.7448 99.7863 84.7507C99.7762 84.7566 99.7643 84.7582 99.7532 84.7551L85.304 81.0104C85.2354 80.993 85.2098 80.9499 85.2272 80.8812L92.7056 51.6087C92.7092 51.5938 92.7082 51.578 92.7028 51.5636C92.6973 51.5492 92.6877 51.5368 92.6751 51.5279C92.6625 51.519 92.6475 51.5142 92.6321 51.514C92.6167 51.5138 92.6016 51.5182 92.5888 51.5266ZM99.8492 47.293C99.8492 46.4615 99.5193 45.6641 98.9322 45.0761C98.3452 44.4882 97.5489 44.1579 96.7186 44.1579C95.8884 44.1579 95.0921 44.4882 94.505 45.0761C93.9179 45.6641 93.5881 46.4615 93.5881 47.293C93.5881 48.1244 93.9179 48.9219 94.505 49.5098C95.0921 50.0978 95.8884 50.4281 96.7186 50.4281C97.5489 50.4281 98.3452 50.0978 98.9322 49.5098C99.5193 48.9219 99.8492 48.1244 99.8492 47.293Z" fill="#050505"/>
<path d="M76.7235 58.8829L74.165 68.1292C74.1601 68.1461 74.1487 68.1604 74.1334 68.1689C74.118 68.1774 74.0999 68.1795 74.083 68.1746L61.2452 64.6571C61.2367 64.6548 61.2287 64.6509 61.2217 64.6456C61.2147 64.6402 61.2089 64.6335 61.2045 64.6259C61.2001 64.6183 61.1973 64.6098 61.1962 64.6011C61.1951 64.5923 61.1958 64.5835 61.1981 64.575L62.4852 59.8575C62.4874 59.849 62.4913 59.841 62.4967 59.834C62.502 59.827 62.5087 59.8211 62.5163 59.8167C62.524 59.8123 62.5324 59.8095 62.5411 59.8084C62.5499 59.8073 62.5587 59.808 62.5672 59.8103L69.8328 61.7997C69.8413 61.802 69.8501 61.8027 69.8589 61.8016C69.8676 61.8005 69.876 61.7977 69.8837 61.7933C69.8913 61.7889 69.898 61.783 69.9033 61.776C69.9087 61.769 69.9126 61.761 69.9148 61.7525L72.468 52.4992C72.4729 52.4827 72.484 52.4687 72.499 52.4603C72.5139 52.4518 72.5316 52.4495 72.5483 52.4538L86.7673 56.2683C86.7842 56.2732 86.7985 56.2846 86.807 56.2999C86.8155 56.3153 86.8175 56.3335 86.8127 56.3504L85.5814 61.0626C85.5792 61.0711 85.5753 61.0791 85.5699 61.0862C85.5646 61.0932 85.5579 61.099 85.5503 61.1034C85.5426 61.1078 85.5342 61.1106 85.5255 61.1117C85.5168 61.1128 85.5079 61.1122 85.4994 61.1098L76.8037 58.8358C76.7868 58.8315 76.7689 58.834 76.7539 58.8429C76.7389 58.8517 76.728 58.8661 76.7235 58.8829Z" fill="#050505"/>
<path d="M103.193 69.978L112.412 72.4878C112.433 72.4935 112.45 72.5072 112.461 72.5258C112.472 72.5444 112.475 72.5665 112.47 72.5874L108.729 86.8044C108.723 86.8252 108.709 86.8428 108.691 86.8536C108.672 86.8644 108.65 86.8674 108.629 86.8621L103.946 85.6604C103.936 85.6578 103.926 85.653 103.917 85.6465C103.908 85.6399 103.901 85.6317 103.896 85.6223C103.89 85.6128 103.886 85.6024 103.885 85.5915C103.884 85.5807 103.884 85.5697 103.887 85.5591L106.116 76.8717C106.121 76.8509 106.118 76.8288 106.108 76.8101C106.097 76.7915 106.079 76.7779 106.059 76.7721L96.8378 74.2588C96.8171 74.2531 96.7995 74.2395 96.7887 74.2208C96.778 74.2022 96.7749 74.1801 96.7803 74.1593L100.233 61.3185C100.239 61.2978 100.253 61.2801 100.271 61.2693C100.29 61.2586 100.312 61.2555 100.333 61.2609L105.028 62.5219C105.049 62.5276 105.066 62.5413 105.077 62.5599C105.088 62.5785 105.091 62.6006 105.085 62.6215L103.136 69.8784C103.13 69.8993 103.133 69.9214 103.144 69.94C103.155 69.9586 103.172 69.9723 103.193 69.978Z" fill="#050505"/>
<path d="M45.5411 62.7018C46.4218 63.086 47.3479 62.6895 47.4333 61.6626C47.4359 61.6308 47.4449 61.5999 47.4597 61.5717C47.4745 61.5436 47.4949 61.5188 47.5196 61.4988C47.5442 61.4789 47.5726 61.4642 47.6031 61.4557C47.6336 61.4472 47.6654 61.4451 47.6967 61.4495C48.5082 61.5578 49.2925 61.765 50.0494 62.0712C50.0987 62.0915 50.1381 62.1302 50.1593 62.1791C50.1805 62.2281 50.1817 62.2834 50.1627 62.3332C49.8523 63.1524 50.2273 64.0536 51.2109 63.9575C51.2818 63.9506 51.3475 63.9284 51.408 63.8912L51.98 63.5279C52.0069 63.5109 52.0389 63.5038 52.0704 63.5079C52.102 63.5121 52.1311 63.5272 52.1527 63.5506C52.7468 64.2038 53.1915 64.9455 53.4868 65.7757C53.5078 65.8363 53.4927 65.8852 53.4415 65.9224C53.1014 66.167 52.6985 66.2875 52.5956 66.7782C52.5829 66.8388 52.6067 66.8772 52.6672 66.8935L76.883 73.1934C76.9118 73.2007 76.9425 73.1962 76.9682 73.1809C76.994 73.1655 77.0129 73.1405 77.0208 73.1113L79.4485 63.9086C79.4515 63.8972 79.4567 63.8866 79.4639 63.8772C79.4711 63.8679 79.4801 63.8601 79.4903 63.8542C79.5005 63.8484 79.5118 63.8446 79.5235 63.8432C79.5351 63.8417 79.547 63.8426 79.5583 63.8458L84.5951 65.1784C84.6149 65.1837 84.6319 65.1966 84.6423 65.2146C84.6527 65.2326 84.6558 65.254 84.6509 65.2745L80.8437 79.75C80.8404 79.762 80.8325 79.7723 80.8217 79.7785C80.811 79.7847 80.7982 79.7864 80.7861 79.7832L51.5161 72.1612C51.5024 72.1579 51.488 72.1587 51.4747 72.1636C51.4615 72.1685 51.45 72.1772 51.4419 72.1886C51.4338 72.2 51.4293 72.2134 51.4292 72.2273C51.429 72.2411 51.4332 72.2546 51.4411 72.266L51.7463 72.7306C51.7897 72.797 51.8072 72.8769 51.7956 72.9552C51.7841 73.0335 51.7442 73.1046 51.6835 73.155C51.0603 73.6754 50.3697 74.0806 49.6116 74.3706C49.5813 74.3824 49.5488 74.3874 49.5163 74.3855C49.4839 74.3835 49.4521 74.3745 49.4234 74.3591C49.3946 74.3437 49.3694 74.3222 49.3495 74.2962C49.3296 74.2701 49.3155 74.2401 49.3082 74.2081C49.0361 73.0519 47.5537 73.2301 47.1142 74.1837C47.0514 74.3182 47.0636 74.5697 46.9624 74.7304C46.9276 74.7851 46.8781 74.8101 46.8142 74.8055C45.9712 74.7368 45.1579 74.5447 44.3743 74.2291C44.3474 74.2181 44.3249 74.1986 44.3104 74.1736C44.2959 74.1486 44.2901 74.1196 44.2941 74.0911C44.3516 73.6964 44.4911 73.2615 44.3324 72.9C43.947 72.0197 43.1256 72.2502 42.503 72.7183C42.4495 72.7591 42.3995 72.7556 42.353 72.7078C41.7193 72.0593 41.2589 71.3042 40.9717 70.4425C40.9531 70.3855 40.9705 70.343 41.024 70.315C41.7617 69.9325 42.3076 69.0139 41.6397 68.3222C41.385 68.0602 41.0013 67.9677 40.6403 67.8664C40.6118 67.8581 40.5869 67.8404 40.5697 67.8162C40.5526 67.7921 40.5443 67.763 40.5462 67.7336C40.6008 66.8545 40.8043 66.0121 41.1566 65.2063C41.1684 65.1802 41.19 65.1597 41.2167 65.1492C41.2434 65.1388 41.2732 65.1392 41.2996 65.1504C42.2134 65.5469 43.2947 65.1924 42.9826 64.0012C42.9302 63.8004 42.7541 63.6501 42.6774 63.4668C42.6285 63.3538 42.6512 63.2578 42.7454 63.1786C43.3988 62.6313 44.1168 62.1877 44.8992 61.8477C44.9574 61.8221 45.0016 61.8372 45.0318 61.8931L45.398 62.5708C45.4306 62.6302 45.4783 62.6738 45.5411 62.7018ZM50.3581 68.1196C50.3581 67.2881 50.0282 66.4907 49.4411 65.9028C48.8541 65.3148 48.0578 64.9845 47.2275 64.9845C46.8164 64.9845 46.4093 65.0656 46.0295 65.2232C45.6497 65.3807 45.3046 65.6117 45.0139 65.9028C44.7232 66.1939 44.4926 66.5395 44.3353 66.9199C44.178 67.3002 44.097 67.7079 44.097 68.1196C44.097 68.5313 44.178 68.939 44.3353 69.3194C44.4926 69.6997 44.7232 70.0453 45.0139 70.3365C45.3046 70.6276 45.6497 70.8585 46.0295 71.0161C46.4093 71.1736 46.8164 71.2547 47.2275 71.2547C48.0578 71.2547 48.8541 70.9244 49.4411 70.3365C50.0282 69.7485 50.3581 68.9511 50.3581 68.1196Z" fill="#050505"/>
<path d="M52.3988 92.3759L56.2531 78.199C56.2559 78.1884 56.2609 78.1783 56.2676 78.1696C56.2743 78.1608 56.2827 78.1534 56.2922 78.1479C56.3018 78.1424 56.3124 78.1388 56.3233 78.1374C56.3342 78.136 56.3454 78.1368 56.356 78.1397L61.0283 79.385C61.0494 79.3907 61.0675 79.4045 61.0786 79.4235C61.0897 79.4424 61.0929 79.465 61.0876 79.4863L58.7924 88.151C58.7895 88.1616 58.7888 88.1728 58.7902 88.1837C58.7916 88.1947 58.7952 88.2053 58.8007 88.2149C58.8062 88.2244 58.8135 88.2328 58.8223 88.2396C58.831 88.2463 58.8411 88.2512 58.8517 88.254L68.034 90.8407C68.0553 90.8468 68.0732 90.8611 68.084 90.8804C68.0948 90.8997 68.0975 90.9224 68.0916 90.9437L64.5338 103.755C64.5277 103.776 64.5134 103.794 64.4942 103.805C64.4749 103.816 64.4521 103.818 64.4309 103.812L59.7569 102.51C59.7356 102.503 59.7177 102.489 59.7069 102.47C59.6961 102.451 59.6934 102.428 59.6993 102.406L61.7032 95.1722C61.7091 95.1509 61.7064 95.1281 61.6956 95.1088C61.6848 95.0895 61.6669 95.0752 61.6457 95.0691L52.4564 92.479C52.4351 92.4729 52.4172 92.4586 52.4064 92.4393C52.3956 92.42 52.3929 92.3972 52.3988 92.3759Z" fill="#050505"/>
<path d="M72.0898 113.604L72.5711 113.279C72.6245 113.243 72.6891 113.229 72.7527 113.237C72.8163 113.246 72.8745 113.278 72.9164 113.326C73.478 113.972 73.9018 114.7 74.1878 115.509C74.1969 115.535 74.2004 115.562 74.1981 115.589C74.1958 115.616 74.1878 115.642 74.1745 115.666C74.1613 115.69 74.1432 115.71 74.1215 115.726C74.0997 115.742 74.0748 115.754 74.0483 115.759C72.6479 116.056 73.0978 117.988 74.4634 118.044C74.4833 118.045 74.5029 118.049 74.5209 118.058C74.5389 118.067 74.555 118.079 74.5682 118.093C74.5814 118.108 74.5914 118.126 74.5977 118.144C74.6039 118.163 74.6063 118.183 74.6047 118.203C74.5372 119.068 74.3396 119.901 74.0117 120.704C74.0007 120.731 73.9812 120.753 73.9562 120.768C73.9313 120.782 73.9023 120.788 73.8739 120.784C73.478 120.732 73.0612 120.583 72.6949 120.733C71.7724 121.114 72.0549 121.926 72.4892 122.566C72.5058 122.59 72.5133 122.619 72.5105 122.649C72.5076 122.678 72.4945 122.706 72.4735 122.726C71.8375 123.346 71.0992 123.8 70.2585 124.089C70.1981 124.109 70.1492 124.094 70.112 124.041C69.9324 123.795 69.7964 123.551 69.5679 123.378C68.7308 122.747 67.8134 123.336 67.7088 124.291C67.7021 124.352 67.6723 124.407 67.6257 124.445C67.5791 124.484 67.5194 124.503 67.4594 124.497C66.5897 124.427 65.7555 124.218 64.9567 123.868C64.8939 123.841 64.8794 123.797 64.9131 123.737C65.5898 122.534 64.3358 121.362 63.3592 122.311C63.3323 122.337 63.3002 122.357 63.265 122.37C63.2298 122.383 63.1922 122.389 63.1547 122.386C63.1171 122.384 63.0804 122.374 63.0468 122.357C63.0133 122.339 62.9836 122.315 62.9598 122.286C62.4354 121.633 62 120.925 61.6535 120.162C61.6456 120.145 61.6412 120.127 61.6407 120.108C61.6402 120.089 61.6436 120.07 61.6506 120.052C61.6576 120.035 61.6681 120.019 61.6815 120.005C61.6949 119.992 61.7109 119.981 61.7285 119.974C62.6307 119.601 62.8801 119.004 62.4767 118.182C62.2378 117.693 61.8419 117.616 61.3448 117.548C61.3167 117.544 61.2913 117.529 61.274 117.507C61.2567 117.485 61.249 117.457 61.2524 117.429C61.35 116.558 61.5733 115.721 61.9221 114.919C61.9335 114.893 61.9532 114.872 61.9781 114.859C62.0029 114.845 62.0317 114.84 62.0599 114.844C62.9406 114.97 63.8318 115.061 63.7917 113.805C63.7906 113.744 63.7724 113.686 63.7394 113.635L63.3487 113.038C63.3103 112.98 63.3167 112.927 63.3679 112.881C64.0283 112.273 64.78 111.821 65.6229 111.524C65.6479 111.515 65.6751 111.515 65.7002 111.523C65.7254 111.531 65.7472 111.547 65.7624 111.569C66.0118 111.936 66.0694 112.364 66.6344 112.414C66.681 112.419 66.71 112.399 66.7216 112.353L73.1222 88.1337C73.1397 88.0697 73.1164 88.0289 73.0525 88.0115L63.8893 85.5436C63.8114 85.5226 63.783 85.4725 63.8039 85.3934L65.1416 80.4069C65.1448 80.3948 65.1504 80.3835 65.158 80.3736C65.1657 80.3637 65.1752 80.3554 65.1861 80.3492C65.197 80.343 65.209 80.3391 65.2214 80.3376C65.2338 80.3361 65.2464 80.3371 65.2584 80.3405L79.678 84.2039C79.691 84.2072 79.7022 84.2156 79.7091 84.2274C79.7159 84.2392 79.7179 84.2533 79.7147 84.2668L71.9834 113.527C71.9795 113.541 71.9799 113.556 71.9846 113.569C71.9893 113.583 71.998 113.594 72.0097 113.603C72.0213 113.611 72.0352 113.616 72.0496 113.616C72.0639 113.616 72.0779 113.612 72.0898 113.604ZM71.0503 117.811C71.0503 116.98 70.7205 116.182 70.1334 115.595C69.5463 115.007 68.7501 114.676 67.9198 114.676C67.0895 114.676 66.2933 115.007 65.7062 115.595C65.1191 116.182 64.7893 116.98 64.7893 117.811C64.7893 118.643 65.1191 119.44 65.7062 120.028C66.2933 120.616 67.0895 120.946 67.9198 120.946C68.7501 120.946 69.5463 120.616 70.1334 120.028C70.7205 119.44 71.0503 118.643 71.0503 117.811Z" fill="#050505"/>
<path d="M112.247 98.182L88.0874 91.9276C88.0656 91.9221 88.0426 91.9253 88.0234 91.9364C88.0041 91.9475 87.9902 91.9657 87.9845 91.987L85.5568 101.225C85.5512 101.245 85.5374 101.263 85.5185 101.274C85.4996 101.285 85.477 101.288 85.4557 101.282L80.4416 99.9618C80.3707 99.9432 80.3445 99.8983 80.3631 99.8273L84.1302 85.4426C84.1339 85.4286 84.1402 85.4154 84.149 85.4039C84.1577 85.3924 84.1686 85.3827 84.1811 85.3754C84.1935 85.3681 84.2073 85.3633 84.2216 85.3614C84.236 85.3594 84.2505 85.3603 84.2645 85.364L113.447 92.9249C113.46 92.9284 113.474 92.9283 113.487 92.9246C113.5 92.9209 113.512 92.9138 113.521 92.9039C113.531 92.8941 113.537 92.8819 113.54 92.8687C113.543 92.8555 113.542 92.8417 113.538 92.8288C113.425 92.4673 112.893 92.2682 113.395 91.8682C113.995 91.3896 114.676 91.0031 115.439 90.7085C115.464 90.6991 115.49 90.6952 115.516 90.6972C115.542 90.6992 115.568 90.707 115.591 90.72C115.613 90.7331 115.633 90.751 115.648 90.7726C115.663 90.7941 115.673 90.8188 115.678 90.8447C115.758 91.3145 116.117 91.6411 116.602 91.6708C117.368 91.7197 117.838 91.3017 118.011 90.4168C118.019 90.3802 118.039 90.3474 118.068 90.3246C118.097 90.3018 118.133 90.2905 118.17 90.2928C119.026 90.344 119.849 90.5356 120.64 90.8674C120.698 90.8919 120.722 90.9355 120.711 90.9984C120.579 91.7634 120.453 92.6786 121.506 92.7886C121.908 92.8306 122.18 92.6035 122.49 92.3695C122.515 92.3499 122.547 92.3404 122.579 92.343C122.61 92.3456 122.64 92.36 122.661 92.3834C123.266 93.0273 123.721 93.7638 124.028 94.5928C124.04 94.625 124.04 94.6605 124.028 94.6927C124.016 94.7248 123.992 94.7514 123.962 94.7675C122.748 95.3928 122.729 97.0031 124.266 97.1603C124.317 97.1656 124.365 97.1906 124.399 97.2299C124.433 97.2693 124.45 97.32 124.447 97.3716C124.399 98.2286 124.205 99.0512 123.864 99.8395C123.853 99.8669 123.832 99.8895 123.806 99.9035C123.779 99.9174 123.749 99.922 123.72 99.9164C123.381 99.8517 123.08 99.6771 122.748 99.7697C121.709 100.061 121.904 100.966 122.361 101.686C122.397 101.743 122.39 101.794 122.338 101.839C121.679 102.42 120.944 102.882 120.134 103.224C120.113 103.233 120.09 103.238 120.067 103.237C120.044 103.236 120.022 103.231 120.001 103.221C119.981 103.211 119.962 103.196 119.948 103.179C119.933 103.161 119.922 103.14 119.916 103.118C119.544 101.768 117.698 102.023 117.586 103.429C117.584 103.459 117.576 103.488 117.562 103.515C117.548 103.542 117.529 103.565 117.505 103.585C117.482 103.604 117.455 103.618 117.426 103.627C117.397 103.636 117.367 103.638 117.337 103.635C116.499 103.541 115.694 103.329 114.921 103.001C114.861 102.975 114.834 102.93 114.843 102.866C114.888 102.521 115.038 102.162 114.919 101.839C114.743 101.358 114.399 101.124 113.889 101.137C113.543 101.144 113.297 101.41 112.997 101.579C112.976 101.591 112.952 101.595 112.929 101.591C112.905 101.587 112.884 101.576 112.868 101.558C112.27 100.894 111.817 100.141 111.51 99.2981C111.5 99.2706 111.501 99.2406 111.512 99.2139C111.523 99.1872 111.543 99.1656 111.569 99.1531C111.884 99.0018 112.149 98.7957 112.363 98.5348C112.386 98.5063 112.402 98.4722 112.409 98.4358C112.416 98.3995 112.413 98.362 112.402 98.3268C112.39 98.2917 112.37 98.26 112.343 98.2346C112.316 98.2093 112.283 98.1912 112.247 98.182ZM120.903 96.9682C120.903 96.5565 120.822 96.1488 120.665 95.7684C120.507 95.3881 120.277 95.0424 119.986 94.7513C119.695 94.4602 119.35 94.2293 118.971 94.0717C118.591 93.9142 118.184 93.8331 117.773 93.8331C116.942 93.8331 116.146 94.1634 115.559 94.7513C114.972 95.3393 114.642 96.1367 114.642 96.9682C114.642 97.7996 114.972 98.5971 115.559 99.185C116.146 99.7729 116.942 100.103 117.773 100.103C118.184 100.103 118.591 100.022 118.971 99.8646C119.35 99.7071 119.695 99.4761 119.986 99.185C120.277 98.8939 120.507 98.5483 120.665 98.1679C120.822 97.7875 120.903 97.3799 120.903 96.9682Z" fill="#050505"/>
<path d="M95.106 103.353L92.5492 112.627C92.5474 112.634 92.5442 112.64 92.5399 112.646C92.5356 112.652 92.5302 112.656 92.524 112.66C92.5179 112.663 92.5111 112.666 92.504 112.667C92.497 112.668 92.4898 112.667 92.4829 112.665L78.2447 108.867C78.2378 108.865 78.2314 108.862 78.2257 108.857C78.2201 108.853 78.2153 108.848 78.2117 108.841C78.2082 108.835 78.2059 108.828 78.2049 108.821C78.204 108.814 78.2045 108.807 78.2063 108.8L79.4359 104.06C79.4377 104.053 79.4408 104.047 79.4452 104.041C79.4495 104.035 79.4549 104.031 79.461 104.027C79.4672 104.023 79.474 104.021 79.481 104.02C79.4881 104.019 79.4953 104.02 79.5021 104.022L88.224 106.29C88.2377 106.294 88.2522 106.292 88.2646 106.286C88.277 106.279 88.2862 106.267 88.2903 106.254L90.847 96.9812C90.8489 96.9743 90.852 96.9678 90.8563 96.9622C90.8607 96.9565 90.866 96.9518 90.8722 96.9482C90.8784 96.9446 90.8852 96.9423 90.8922 96.9414C90.8993 96.9405 90.9064 96.9409 90.9133 96.9428L103.777 100.45C103.784 100.452 103.791 100.455 103.796 100.459C103.802 100.464 103.807 100.469 103.81 100.475C103.814 100.481 103.816 100.488 103.817 100.495C103.818 100.502 103.817 100.509 103.816 100.516L102.527 105.263C102.525 105.27 102.522 105.277 102.517 105.282C102.513 105.288 102.508 105.293 102.502 105.296C102.495 105.3 102.489 105.302 102.482 105.303C102.475 105.304 102.467 105.304 102.461 105.302L95.1722 103.314C95.1654 103.312 95.1582 103.312 95.1511 103.313C95.1441 103.314 95.1373 103.316 95.1311 103.32C95.125 103.323 95.1196 103.328 95.1153 103.334C95.1109 103.339 95.1078 103.346 95.106 103.353Z" fill="#050505"/>
<defs>
<filter id="filter0_f_2051_26" x="0.739673" y="0.962207" width="163.293" height="163.293" filterUnits="userSpaceOnUse" color-interpolation-filters="sRGB">
<feFlood flood-opacity="0" result="BackgroundImageFix"/>
<feBlend mode="normal" in="SourceGraphic" in2="BackgroundImageFix" result="shape"/>
<feGaussianBlur stdDeviation="5.65" result="effect1_foregroundBlur_2051_26"/>
</filter>
</defs>
</svg>
